<mxfile host="Electron" agent="Mozilla/5.0 (X11; Linux x86_64) AppleWebKit/537.36 (KHTML, like Gecko) draw.io/24.7.17 Chrome/128.0.6613.36 Electron/32.0.1 Safari/537.36" version="24.7.17">
  <diagram name="Page-1" id="Qw3rQzFztcb-2FH5rVYN">
    <mxGraphModel dx="2284" dy="835" grid="1" gridSize="10" guides="1" tooltips="1" connect="1" arrows="1" fold="1" page="1" pageScale="1" pageWidth="850" pageHeight="1100" math="0" shadow="0">
      <root>
        <mxCell id="0" />
        <mxCell id="1" parent="0" />
        <mxCell id="nSW95RDYFiEPkef_lx06-1" value="" style="rounded=1;whiteSpace=wrap;html=1;arcSize=5;dashed=1;fillColor=none;" vertex="1" parent="1">
          <mxGeometry x="120" y="240" width="440" height="440" as="geometry" />
        </mxCell>
        <mxCell id="nSW95RDYFiEPkef_lx06-40" value="" style="rounded=1;whiteSpace=wrap;html=1;arcSize=5;dashed=1;fillColor=none;" vertex="1" parent="1">
          <mxGeometry x="130" y="340" width="150" height="300" as="geometry" />
        </mxCell>
        <mxCell id="nSW95RDYFiEPkef_lx06-53" value="" style="rounded=1;whiteSpace=wrap;html=1;arcSize=5;dashed=1;fillColor=none;" vertex="1" parent="1">
          <mxGeometry x="290.53999999999996" y="340" width="98.93" height="300" as="geometry" />
        </mxCell>
        <mxCell id="nSW95RDYFiEPkef_lx06-61" value="" style="rounded=1;whiteSpace=wrap;html=1;arcSize=5;dashed=1;fillColor=none;" vertex="1" parent="1">
          <mxGeometry x="400" y="340" width="150" height="300" as="geometry" />
        </mxCell>
        <mxCell id="nSW95RDYFiEPkef_lx06-77" value="" style="rounded=1;whiteSpace=wrap;html=1;arcSize=5;dashed=1;fillColor=none;strokeColor=#66B2FF;strokeWidth=2;" vertex="1" parent="1">
          <mxGeometry x="110" y="440" width="460" height="210" as="geometry" />
        </mxCell>
        <mxCell id="nSW95RDYFiEPkef_lx06-55" style="edgeStyle=orthogonalEdgeStyle;rounded=0;orthogonalLoop=1;jettySize=auto;html=1;entryX=0.5;entryY=0;entryDx=0;entryDy=0;exitX=0.5;exitY=1;exitDx=0;exitDy=0;" edge="1" parent="1" source="nSW95RDYFiEPkef_lx06-53" target="nSW95RDYFiEPkef_lx06-31">
          <mxGeometry relative="1" as="geometry">
            <Array as="points">
              <mxPoint x="340" y="680" />
              <mxPoint x="340" y="680" />
            </Array>
          </mxGeometry>
        </mxCell>
        <mxCell id="nSW95RDYFiEPkef_lx06-37" value="" style="rounded=1;whiteSpace=wrap;html=1;arcSize=5;dashed=1;fillColor=none;" vertex="1" parent="1">
          <mxGeometry x="-120" y="240" width="160" height="1160" as="geometry" />
        </mxCell>
        <mxCell id="nSW95RDYFiEPkef_lx06-3" value="" style="rounded=1;whiteSpace=wrap;html=1;arcSize=5;dashed=1;fillColor=none;" vertex="1" parent="1">
          <mxGeometry x="120" y="720" width="440" height="680" as="geometry" />
        </mxCell>
        <mxCell id="nSW95RDYFiEPkef_lx06-21" value="" style="rounded=1;whiteSpace=wrap;html=1;arcSize=5;dashed=1;fillColor=none;" vertex="1" parent="1">
          <mxGeometry x="160" y="1120" width="360" height="90" as="geometry" />
        </mxCell>
        <mxCell id="nSW95RDYFiEPkef_lx06-44" style="edgeStyle=orthogonalEdgeStyle;rounded=0;orthogonalLoop=1;jettySize=auto;html=1;entryX=0.5;entryY=1;entryDx=0;entryDy=0;dashed=1;" edge="1" parent="1" source="nSW95RDYFiEPkef_lx06-18" target="nSW95RDYFiEPkef_lx06-31">
          <mxGeometry relative="1" as="geometry" />
        </mxCell>
        <mxCell id="nSW95RDYFiEPkef_lx06-18" value="" style="rounded=1;whiteSpace=wrap;html=1;arcSize=5;dashed=1;fillColor=none;" vertex="1" parent="1">
          <mxGeometry x="260" y="980" width="160" height="100" as="geometry" />
        </mxCell>
        <mxCell id="nSW95RDYFiEPkef_lx06-31" value="" style="rounded=1;whiteSpace=wrap;html=1;arcSize=5;dashed=1;fillColor=none;strokeColor=#66B2FF;strokeWidth=2;" vertex="1" parent="1">
          <mxGeometry x="160" y="810" width="360" height="130" as="geometry" />
        </mxCell>
        <mxCell id="nSW95RDYFiEPkef_lx06-2" value="exp" style="aspect=fixed;sketch=0;html=1;dashed=0;whitespace=wrap;verticalLabelPosition=bottom;verticalAlign=top;fillColor=#2875E2;strokeColor=#ffffff;points=[[0.005,0.63,0],[0.1,0.2,0],[0.9,0.2,0],[0.5,0,0],[0.995,0.63,0],[0.72,0.99,0],[0.5,1,0],[0.28,0.99,0]];shape=mxgraph.kubernetes.icon2;prIcon=ns" vertex="1" parent="1">
          <mxGeometry x="130" y="250" width="50" height="48" as="geometry" />
        </mxCell>
        <mxCell id="nSW95RDYFiEPkef_lx06-4" value="confluent" style="aspect=fixed;sketch=0;html=1;dashed=0;whitespace=wrap;verticalLabelPosition=bottom;verticalAlign=top;fillColor=#2875E2;strokeColor=#ffffff;points=[[0.005,0.63,0],[0.1,0.2,0],[0.9,0.2,0],[0.5,0,0],[0.995,0.63,0],[0.72,0.99,0],[0.5,1,0],[0.28,0.99,0]];shape=mxgraph.kubernetes.icon2;prIcon=ns" vertex="1" parent="1">
          <mxGeometry x="130" y="730" width="50" height="48" as="geometry" />
        </mxCell>
        <mxCell id="nSW95RDYFiEPkef_lx06-15" value="Front End" style="aspect=fixed;sketch=0;html=1;dashed=0;whitespace=wrap;verticalLabelPosition=bottom;verticalAlign=top;fillColor=#2875E2;strokeColor=#ffffff;points=[[0.005,0.63,0],[0.1,0.2,0],[0.9,0.2,0],[0.5,0,0],[0.995,0.63,0],[0.72,0.99,0],[0.5,1,0],[0.28,0.99,0]];shape=mxgraph.kubernetes.icon2;prIcon=deploy" vertex="1" parent="1">
          <mxGeometry x="210" y="450" width="50" height="48" as="geometry" />
        </mxCell>
        <mxCell id="nSW95RDYFiEPkef_lx06-16" value="Stats UI" style="aspect=fixed;sketch=0;html=1;dashed=0;whitespace=wrap;verticalLabelPosition=bottom;verticalAlign=top;fillColor=#2875E2;strokeColor=#ffffff;points=[[0.005,0.63,0],[0.1,0.2,0],[0.9,0.2,0],[0.5,0,0],[0.995,0.63,0],[0.72,0.99,0],[0.5,1,0],[0.28,0.99,0]];shape=mxgraph.kubernetes.icon2;prIcon=svc" vertex="1" parent="1">
          <mxGeometry x="140" y="450" width="50" height="48" as="geometry" />
        </mxCell>
        <mxCell id="nSW95RDYFiEPkef_lx06-19" value="confluent-operator" style="shape=image;verticalLabelPosition=bottom;labelBackgroundColor=default;verticalAlign=top;aspect=fixed;imageAspect=0;image=data:image/png,iVBORw0KGgoAAAANSUhEUgAAAnQAAALJCAYAAAA9Pb5kAAAACXBIWXMAAA7EAAAOxAGVKw4bAAAACnRFWHRsb2dpY2FsWAAwZeNEqwAAABB0RVh0bG9naWNhbFkAODQuNDMzNkKHE3YAAAAPdEVYdHNjcmVlbgBIRE1JLUEtMS8Nn4UAACAASURBVHhe7N11dFVX3sbxJxCIQEgI7u7eAi3S4sXdCsUKpd4Zpq5Tm8rUFVpKi7u7u2spUNwdQggal/ePDn3b3ZYiSe7Z53w/a81as57fnTUXEm6e7LPP2X4pKSkpAgCXiYlJ1OkzV3Q24qpCsgYob54sCg8PMl8GAK7gbwYAYKv4+CTNmLVXQ0ds1eq1x8yx8ucLUa8eldXrgcrKny/EHAOAtfxYoQPgBlu3nVGfh6br8JEL5ugP/P0z6N+v3KunHqspPz9zCgD2odABsFpKivTFwA16+90VSkxMNsfX1aBeUQ3+upVy5Qo2RwBgFQodAKv95/2V+ujTtWZ8w0qWCNfc6d0pdQCsRqEDYK3nXlqk737YYsY3rWSJcE2d0EWFCmYzRwBghQxmAAA2+PSLdalS5iRp/4Hz6tB1gmJiEs0RAFiBQgfAOouWHNJb764w49uyb/95PfX0XDMGACtQ6ABYZf+B8+r78HSlxWaRSVN26dMv1pkxADgehQ6AVf7x9DxduhxvxqnmvQ9Xa+u2M2YMAI5GoQNgjdHjtmvNuuNmnKri45M04Jl5Sk5OgyVAAEgjFDoAVoiKitWrbyw14zSxddsZffPdZjMGAMei0AGwwpvvLldUVKwZp5n/frRaFy/FmTEAOBKFDoDjHTl6USNGbTPjNHXxUpwGfrvJjAHAkSh0ABzv/Q9X+2RP2zeDN+nM2atmDACOQ6ED4GhHjl7U+Ek/m3G6uHgpjseYALAChQ6Aow0avMknq3PXjBi9TdHRCWYMAI5CoQPgWDExiT5bnbsmOjpBU2fsNmMAcBQKHQDHmjJ9V7re2fpXfhi+1YwAwFEodAAca8y4HWbkE5u3nNK2HWfNGAAcg0IHwJF274nU6rXHzNhnxozbbkYA4BgUOgCO5LR9a5On7VJiYrIZA4AjUOgAONK4Cc643HpNRES0lq04YsYA4AgUOgCOs3L1UR05etGMfW7y1F1mBACOQKED4DiTpzmzOM2cvVdXrsabMQD4HIUOgOMsXnLIjBzhytV4LVvOZVcAzkOhA+Aoe/dF6tjxS2bsGKvWHDUjAPA5Ch0AR1nk0NW5a5z+/gB4E4UOgKM4vTDtP3DekTdsAPA2Ch0Ax4iPT7LikqYN7xGAt1DoADjG+o0nFB+fZMaO4/RVRADeQ6ED4Bir1jjnqK/r2bT5pBkBgE9R6AA4xqrVdlzKPHb8EvvoADgKhQ6AI6SkSJu22LPyxT46AE5CoQPgCNt/Pqu4OOfvn7tm1Wo7Lg8D8AYKHQBHsOVy6zUb2UcHwEEodAAcYe/+SDNytAMHzys6OsGMAcAnKHQAHGH7jrNm5GgpKdL+g1FmDAA+QaED4HMpKdLOXRFm7Hj79tm1qgjAvSh0AHxu3/5IxcQkmrHj2baqCMC9KHQAfG7vvvNmZIVtFDoADkGhA+Bz+yy7IeKa7T+fMSMA8AkKHQCfs3WFLjIyRpevxJsxAKQ7Ch0Anzt6zM5jtJKTU3To8AUzBoB0R6ED4HO2PYPut45ypisAB6DQAfCpCxfjFBERbcbWsHV1EYC7UOgA+JTthcjm1UUA7kGhA+BTtl+y3GfpDR0A3IVCB8CnzkZcNSOrXLwYa0YAkO4odAB86sxZuwvdGcsLKQB3oNAB8CnbL7lGRcUqMTHZjAEgXVHoAPiU7St0iYnJOnHyshkDQLqi0AHwqbNnr5iRdc5aXkoB2I9CB8Cn3LAHzfZVRgD2o9AB8KmLF+PMyDoXL3GnKwDfotAB8JnY2ETFxyeZsXXi4uz/MwCwG4UOgM9cvGT/6pzEs+gA+B6FDoDPuKUIueGyMQC7UegA+IxbitAF9tAB8DEKHQCfiY1LNCMruaWYArAXhQ6Az1y5Em9GVnLDjR0A7EahA+AzSUkpZmSlmBh3rDQCsBeFDgBuU5xLLh0DsBeFDoDPUIQAIHVQ6AD4jFtuinDLnwOAvSh0AHCb4mIpdAB8i0IHwGc4MgsAUgeFDoDPBARkNCMAwC2g0AEAAFjO3wzgTMuWH9aGTSeVlJyioEB/5c6dRfnzhah0qXDlzxdivhxAOgoI5KMUdluz7rhOn76iyPPROn8+RskpUkjWzGpYv5jKl8tpvhwOxKeQg+3ZG6kPPlmj+QsO6MrVv36ifmi2ANWonl/t2pRV29ZlFJI1s/kSwJECA9zxEeSWPwe8IzIyRjPn7NW8Bfu1fOWR6zwce6kKFcymzh3L6+l/3q2sWfj54lR+KSkp7nhUu8sMHb5V/3p+gRnfkHZtyqhfn2q6p05hcwQ4yqw5+9TjwalmbJ06tQpp9rRuZgw4zsrVR/XD8K2aOn23OfpbRQqHaujgNrqjWj5zBAfg10oHevu9lfr4s7VmfMOmzdijaTP2qETx7Hri0Rrq27uq+RIAqSiAFTo4WGRkjIaO2KpRY7fr8JEL5viGHTl6UQ2bjdSIH9qpTcvS5hg+xk0RDvPRp2tvq8z91oGDUXr6+QUqXfFrfTlwo65GJ5gvAXwq0CV7zwIDuVsXzhMfn6TPv96gand9q/+8v/K2ytxv9X9sprZuO2PG8DEKnYPs2Rup9z5cZca37WzEVb325lJVqzlYk6fuMseAz4RmCzAjK7FCB6cZN/FnVa/9nV5/a5kuXf7rPdi3Ii4uSf0fm6mkJHZsOQmFzkGeenpumv4DORtxVf0enal2ncfryNGL5hhId6Gh7ih0bvlzwH5r1h3XvY2G6dEnZ+vosUvmONXs239ew0f9ZMbwIQqdQ+zcdU4bNp404zSxbMUR1aw7RF9/s0nJyWlXIIG/ExoaaEZWCsvmjj8H7JWQkKxX31iqFm3HaNuOs+Y4TXz6xTozgg9R6BwivX/TiYtL0iuvL1GTlqPS9Lc44HrccsmVFTr40t59karXZJi+GrTRHKWpY8cvacWqo2YMH6HQOcTkab7Z27Z5yynVqPOdJk7eaY6ANBcY6K/Mme2/ocAtK42wS0qKNGjwJt3TaJh27jpnjtPF3Pn7zQg+QqFzgOMnLuvcuWgzTjdxcUnq//gsvf7WMi7BIt25YXXLLSuNsMep01fUttM4vfTaEsXFJZnjdLP5x/TZKoS/R6FzgC1bT5mRT3z+9QZ16DpBl6+k7h1RwPWEumD/GSt0SE+r1hxT3YZDHXG5c8fPEWYEH6HQOcCePb5ZKv8zy1Yc0T0Nfbd8D+/JkzuLGVkntwv+DLDDJ5+vU5uO4xQZGWOOfCI6OkFRUbFmDB+g0DnAxUtxZuRTh49cUMNmIzRzzl5zBKQ6N5ShwoVCzQhIVbGxieree4reeneF47bGnD5zxYzgAxQ6B7jiwEucsbGJ6vngNL3x9nJzBKQq21foMmfOqDAX7AOEc0VEROu+lqM0Z54zb0CIPO+M1UKvo9A5gNNW6H7rs6/Wq//js9L0gcfwNtsLne3vH862Z2+k6jYcmm7PlrsVly8792eYl1Do8LcmTt6prj0mKT7ed3dSwb1sv+Rq+/uHc/20/YzuazlKZ85eNUeO4u9PlXACvgoOkC0ksxk5zqIlh9S203hFRyeYI+C2FMgXYkZWYYUOaWHFqqNq3maMo6/gXBPGXd6OQKFzgJAQO/bfrF1/XK07jtNVSh1SUbFi2c3IKtwQgdQ2b8EBtek4zppfoMPCKHROQKFzAJseSrp5yym16TiOZ9Uh1RQqmE0ZMviZsTVKl8phRsAtW7TkkHr2nWrGjsYKnTNQ6Bwgf367Ljlt3nJK7TqPZ6UOqSJDBj8VsOzfwG+VKhluRsAtWbTkkLr1mqyEhGRz5Gi5cgWbEXyAQucAJYrb9wPh2krdlaus1OH2lSpp7yoXl1yRGhYuPqhO3SZaV+aKFQ0zI/gIhc4BbP0HsXnLKbXtxEodbl/pUvb9UiP9srpYqGA2MwZuyqIlh9S99xQztkLZMjnNCD5CoXOAPLmzKDDQ34ytcG2ljlKH22HrKlfxYtmt3v8H37P1Mus1ZUrbu7ruNhQ6h6hYIbcZWYNSh9tl640FlSra++8Wvrdi1VErL7P+Fit0zkGhc4gad+Y3I6ts3nJKXbpPUmKivR9M8B1bi1FlS983fG/7z2fVvZedl1l/qywrdI5BoXMI2wudJK1ee0yPPjXbjIG/lSd3FivvlKtUMY8ZAX/r8JELrripLHPmjFZfXXIbCp1DVHdBoZOkSVN26e33Vpox8LcqVbCvHNm6sgjfiYyMUdtO4xUVFWuOrFOnViGO/XIQvhIOUbhQNuXNk9WMrfTxZ2s1aux2Mwauy7bLl7lyBXPsF25KXFySOnabqCNHL5ojK9W7p4gZwYcodA7SuGExM7LWP56ep3UbTpgx8JdqVLdrlbocm8Fxk/o/NlNbfzptxtai0DkLhc5BGjcqbkbWSk5O0f09J+vEycvmCPhTtm07qHV3ITMC/tL7H63WjNl7zdhawcGZVLVKXjOGD1HoHOS+RsVd9UyrCxdi1anbRMXGJpoj4A/y5M5i1UN63XAjE9LH9Fl79P6Hq83Yao0bFJOfe35cuQKFzkGCgzPp7poFzNhqu3afU79HZ5ox8Kfq1i5sRo7k5yfdWS2fGQN/sGNnhPo/NsuMrdeyeSkzgo9R6BymeVP3/SOZPXefPvl8nRkDf2DLProK5XIpe/ZAMwZ+58zZq+rQZYLi45PMkdX8/TOoBYXOcSh0DtOhXVkzcoW33l2hZSuOmDHwO7YUujqWrCTCt7p0n6SzEVfN2HotmpZUSNbMZgwfo9A5TIH8Ia677HpNr75TdfjIBTMGflWpQm7lzxdixo5zTx0KHa7vpdeW6KftZ8zYFTq0L2dGcAAKnQN16lDejFzh0uV4de4+STEx3CSBv+b0RyFkypRB9zr8PcK3li0/rEGDN5mxKwQG+qtp4xJmDAeg0DlQ+zbuvOwqSfv2n9djHA+G63D68xjvqVNE2UK43IQ/FxkZo74uvhGsTavSCgryN2M4AF8VB8qRI0j3NS6uBYsOmiNXmDZzj0aO2aae3SubI3jMxUtxOn8+RpGR0bpwMU4R567qxMkrypDRT8lJKebLHcHphRO+9fATs3T+fIwZuwaf285FoXOo3j2quLbQSdILryzWvXWLqEjhUHMEFzh2/JIOHb6gQ4cv6PiJS4o4d1XnI2MUeT5Gkeejdf58rLWbxePikrRw8UHlypVFeXJnUb687jiyD7dv4LebtHjpITN2jWJFw9g/6mB+KSkpzvw12ONSUqSylb/WmbN2/tC7EZUr5tbieb2UKRNX/m20d1/kr6XtyNGL2n/gvA4dvqD9B86bL3W98PAg5c4VrPz5sql8uZwqUzqHypXJqXLlcilLcCbz5XChXbvP6d7Gw5SQkGyOXOPt1xvoqcdrmDEcgkLnYP95f6U++nStGbvKk4/V0H/eaGDGcIiTpy5r795I7dkXqb37zmvf/kgdOBjFkW43oVDBbCpbJqcqlMulMmV+KXply+RUYCAXSNwiNjZRtesP1cFDUebINTJm9NO+HU8qPDzIHMEhKHQOduLkZVWoNsiMXWfaxK6qfy93DfpKUlKKDh2O0t5957V3X6T2/K/A7dsXqctX4s2XIxX4+UlFi4SpXNlfyl35srlUtmxOlS4ZrsyZM5ovh8M999IifffDFjN2lU4dymnIoNZmDAeh0DlclwcmuXovnSTly5tV61c9xJ2D6eTwkQtateaYlq88ou07zmj3nkjzJfCh6nfm1901C6hmjQKqW6sQKyIOt27DCTVrPdqMXWfW1G6qW7uQGcNBKHQOt3L1UbXuMM6MXadzx/L6bmArM0YqOHzkglauPqrVa45p1ZqjOn6Cy6U2KV4su+6uWUB331VQte4qqFIlw82XwEdiYxNVo84QHTt+yRy5SrmyObV2eV8zhsNQ6CzQoOkI/bj1tBm7zuhh7TnwORUcPBSlVf8rb6vXHGO/m8uEhwfp7poFdFfNgqpVs6CqVsnDZVofefHVxfrmu81m7DrfftVSXTtXMGM4DIXOAjNm71WvvtPM2HXCwgK1afVDypkz2BzhOg4cjPplBW7tMa1afVSnTl8xXwIXCwjIqDuq5tNdNQuo1l0FdfddBRWaLcB8GVLZlh9PqWGzkWbsOnnzZNWOLY/K35+nETgdhc4S1WsP8cTjIJrdV0LjRnY0Y/zGvv3ntXrNMa383wrc6TMUOPxezRr51bJ5abVpWVrFioaZY9ym+Pgk1az7vSfOpv7vO430yEN3mjEciEJniRGjt+kfT88zY1fi0usfbd12RtOm79bUGbt15OhFcwz8pTKlc6hVi9Jq1byUqlXNa45xC159Y6m+GrTRjF0nLDRAu356gqO+LEGhs0RSUoqq1PjGExvaC+QP0Y/rH/b8vqAdOyM0ZdouTZ2+W4cOu38lAGkvf74QtWhWUq1alFbd2oW4jHYLvHKpVZJefr6unn+mthnDoSh0Fhk+apv++Yw3VumeGVBLr710jxm73oGDURo/6WdNmbbbE5fY4TthoQG6r0kJtWxeSo0bFudEixuQkiLVrDtE+/a7/99mYKC/dv/0uMLCAs0RHIpCZxEvrdL5+2fQpjX9VbSI+896PXT4giZM+llTZ+zmmXDwiaAgf7VuWVrdu1ZSvXuKyM/PfAUk6fthP+qZFxaasSt59Zdqm1HoLDNq7HY9OWCuGbtSvXuKaPqkrmbsCkeOXtTEyTs1dcZu/bwzwhwDPlOwQIi6da2kB+6vqKJFuKHimgsX41Sl+je6eCnOHLlOWFigfv7xMVZtLUOhs1DVmt/q8BFvbIwfNbS9WrVwxw0Sx45f0qQpOzV1+m5t23HWHAOOU+uugnqgWyW1a1NGWbN4+ySXZ19cqCFDfzRjV+LOVjtR6Cw0cfJO9X98lhm7UpHCofpp4yNmbI3k5BTNmbdfg7/frBWrjppjwArBwZnUpmVpdb+/ku6pU9hzl2T37ovU3ff+oORk9/+4LFwomzavfViZMnHDjG0odJaqXf8H7dx1zoxd6a3X6+sfj9c0Y0e7cDFOw0Zu1fdDf3T9sUDwlsKFsv3vkmwlFS6UzRy7UtNWo7V+4wkzdqUfvm2jDu3KmjEsQKGz1JJlh9Sh60QzdqWQrJm1fctjCgt1/tPvd++J1NffbNTEKTsVG5tojgFXqVOrkLrfX1FtW7v3kuz0WXvUu990M3alKpXyaPmi3mYMS1DoLNa203gtX3nEjF3pwd5V9ekH95mxIyQmJmvm7L0a/P0WrV1/3BwDrheSNbP69Kqixx+poXx5s5pjq1WoNsgz5yHPntZNdWoVMmNYgkJnsZ27zql2/R/M2LXWr+ynMqVzmLHPREbG6IfhP+qH4Vs5PxXQL48b6ti+nP711N0qW8Y5/1Zv1dffbNIrry8xY1dq07K0RvzQzoxhEQqd5fo/PksTJ+80Y1dyyjmv23ac1dffbNTU6bsVH59kjgFIalCvqP75RE3Vr1fUHFkhNjZRZasM1IULsebIdTJnzqgt6x5WwQIh5ggWodBZ7mzEVVWrOVhXoxPMkSutWNxHlSvmNuM0l5CQrKnTd+vb7zdr85ZT5hjAX6hUIbf+8URNtW9b1qqjxj75fJ3eeneFGbvSi8/V0YvP1jFjWIZC5wLffLdZL7662IxdqUmj4po4ppMZp5nExGSNGrNdH366xjP7aIC0UCB/iB5/pIZ696zs+BsoLl6KU6U7BunS5Xhz5DoF8odoy7qHFRDg7bOz3YBC5xL1mwzX1m1nzNiV0mOVLiXll+f9vffhKh06fMEcA7hF2UIyq2/vanrskerKkzuLOXaEd/67Sh9+ssaMXWnk0HZq3aK0GcNCFDqX2LX7nOo0GOqJB182rF9MU8Z3NuNUM3POXr3731Xatdsbz/kDfCFTpgzq3KG8/vWPu1WqZLg59pmoqFhVuGOQoj2wjcXNxyt6kT0bGnBd5crm1BOPVjdjV1qy7JA2bT5pxrdt8dJDqn/fCPV8cBplDkhjCQnJGjN+h2rUGaI+/ac7ZiX80y/WeaLMSdKH7zU2I1iMFToXiYlJ1F33DNHRY+4/maBFs5IaM7yDGd+SjZtO6rU3l2rdBm88CR5woowZ/dSrRxW99Fwd5c7lm0ux58/HqHy1QZ54KPiz/6qlV1+8x4xhMVboXCQoyF9DBrXxxDmLc+bt1/4D5834pvy0/Yw63j9RTVqOoswBPpaUlKKhw7eqSo1v9fZ7K31yQ8L3w370RJkrVjRMzz9d24xhOQqdy9SskV/PDKhlxq706RfrzeiG7Nt/Xj0fnKZ6jYdr8dJD5hiAD8XEJOrjz9aqSo1v9NWgjen2rMf4+CR9+/0WM3alIYNaK3Nm7mp1GwqdC730XF1VrZzHjF1n3MQdN3VCw+EjF/XwE7NUs+4QzZyz1xwDcJCoqFi9+sZSVbtrsEaP257mN3xNmLxT585Fm7HrPPV4Dd15Rz4zhguwh86lDhyMUp0GQ11/+eAfj9fUW6/XN+PfOX3mit7/cLVGjd2uxMRkcwzAAmXL5NDrr9RT86YlzVGqqF57yG1v43C6ShVya+mCXlY94Bk3jkLnYj8M36qnn19gxq6SLSSz9u986k8vH8THJ+mzL9frky/Wub7YAl5x5x359M6bDXV3zQLm6JYtXX5Y7btMMGNXCQry17oV/VSkcKg5gktQ012sb++qatWilBm7yqXL8Zo6fbcZa/HSQ6pZ93u9+8EqyhzgIpu3nFKz1qPVqdtE7dkbaY5vyVeDNpqR6wz8vAVlzuVYoXO5K1fjVbPO9zp5yr3HVtW6q6DmzuguSTp+4rJeeGWRZs/dZ7wKgNtkzOinxx+prpeeq6vg4Ezm+IbsP3Be1WsPMWNX6d61ogZ+0cKM4TKs0Llc1iyZNWpoO2XM6N5nmaxdf1y790Tqw0/WqHrt7yhzgEckJaXoy4EbVaPOEM2ac2v/7keN3W5GrlKsaJg+er+JGcOFWKHziM++Wq833l5uxq6RLSRAly7HmTEAD2lYv5i++KSZChYIMUd/KiVFKldloE6fufG75W0SEJBRyxf2UdkyOcwRXIgVOo8Y8ORdql+vqBm7BmUOwJJlh1Sjznf69It1N3RH+8rVR11b5iTpg3ebUOY8hELnIUO/baN8ebOaMQC4RkxMot58Z4XuvvcHrd94/RNgxk/82Yxco22rMurdo7IZw8W45OoxP249rcYtRiopiS87APfr1qWi3nmzgcLDg36Xx8Ymqni5LxUdnfC73A2KFQ3T6qUP3vKNIrAThc6D3L6fDnYKDPRXjvAg5QgPUlhYoAID/RUclElBQZkUGOSv4CB/BQVlUnBQpt/M/BUUnElBgf4KCPBXTEyCYmITFRubqJjo3/z32ETFxiYoJibxl//EJvySxyQqJiZBp89c1dmIq6784Q4pLDRAb73eQL0e+P8Vq8lTd6nfozN/8yp3CAry17IFvVWmNJdavYZC51Ed75/IOaZIc0UKh6pY0TCFhwcpPHuQcuQI/rW05cgRrOzZA5UjPPiGN7Gnh8NHLujs2WidibiiiIhonTn7S9mLiLiqc+eidfrMFZ2NiKb8Waj23QX17detVKhgNnXtMVnzFx4wX2K97wa2UueO5c0YHkCh86hLl+N1b6OhOnzkojkCbkpQkL9KlQhXqVI5VLpkuEqXyqHSpXKoZIlwBQT88QQPt4iKitWuPee0Z8857d4bqT37IrVnz7mbOl8Y6S8ka2a9959G+tdz85WQ8Pc3TtjkoQer8YgSD6PQedj+A+dVr/FwXWWlATcgMNBfVSvnUdkyOX8tbaVKhvP0ecOly/Havfuc9uw7pz17I7Vnb6R27zmnY8cvmS8FUs1dNQpozvTurn7mKK6PQudxi5YcUqduE80YUPFi2VWzen7VqJ5f1e/Mr4rlc/PD4jZcvhKvjZtOaP3Gk1q/8YQ2bz6py1fizZcBN61A/hCtXvqgwsICzRE8hEIHffDxGr37wSozhoeEZM2sO+/IpxrVC6jGnflV4878yp6dHw5pKTk5RTt3n9OGjSe0fuMJrd9wQoePXDBfBlxXYOAvN0HwvDlQ6CBJ6v/4LE2cvNOM4VJhoQFq0riE6tYurOp35FOF8rnMl8AHzp2L1toNx7Vx40mt23hcGzaeNF8C/M6E0Z10X+PiZgwPotBB0i+rBR3vn6ilyw+bI7iAn59UtUpeNWlUXE0aFtedd+RThgxcPnW6uLgkLV95RPMW7Nf8hQd04uRl8yXwsCGDWqtTh3JmDI+i0OFXcXFJat1xLKsCLpE9e6Aa1i/2a4nLkeP3D1aFfbb/fFbz5u/XvIUHtHnLKXMMD/nkg/vUt3dVM4aHUejwO1euxqtZq9HasTPCHMECv12Fq34nq3BuFhkZo7kL9mv+ggNasuwQd6t7yCsv1NVzT9c2Y3gchQ5/EBUVq8YtRurAwShzBAeqUD6XOncsr66dKnBWr0clJCRr5eojmjv/gOYv3K+jx3hEils92v9Ovf+fRmYMUOjw506cvKymrUbp+An27DhRgfwh6tyhvLp1rcgRP/iDzVtOafS47ZoybZcuXIwzx7BU964VNfCLFmYMSKLQ4ToOH7moBk2HKyoq1hzBB0KzBaht6zLq3LG86tYuLD+upuJvxMcnac68/Ro9brsWLz2k5GQ+7m3VpmVpDRvSlm0U+EsUOlzXjp0RatFmtC5d5gGovpA5c0Y1bVxCnTuVV7MmJZQ5s3uP0kLaioiI1tiJOzRm3Hbt3hNpjuFgjRsW06Sxnc0Y+B0KHf7WT9vPqHX7sZS6dFSnViF17lhe7duWVWi2AHMM3JYft57WmPE7NHHKTl24wAq8k9WvV1TjR3Z09bnISB0UOtyQH7eeVpuO4ziqKA1lCc6k7vdX0hOPVlfRImHmGEh1CQnJmjN/n8aO36GFiw8qKYkfB05Sv15RTRzdSZkyZTBHwB9Q6HDDWKlLGwULhKh/vzvVp2cVVuPgM6dOX9HAbzdq2Iif+MXNAShzuFkUOtyUrdvOqF3nYfVNZAAAIABJREFU8VymSQXV78yvxx+urraty3DoPRzj0uV4DR2xVd8M3qRTp6+YY6SDls1LafSw9mYMXBeFDjft4KEotWg7VqfP8GF/szJm9FPrlqX1zyfuUrWqec0x4BgJCcmaOGWnvhy4Qbt2nzPHSCMd2pXVkEGtuZsVN41Ch1ty7Pgltek4TocOXzBH+BOh2QLUq0dlPdq/ugrkDzHHgKMtXHxQX3y9QStXHzVHSEUP97tDH7zb2IyBG0Khwy2LiIhWw2bDdew4Dx/+K8WKhunR/neqZ/fKCg7OZI4Bq/y0/Yw++3K9ps/cwzPtUtnrr9yrf/3jbjMGbhiFDrfs7fdW6uPP1poxJBUvll0vPltHnTqU49IJXOfosUv6atAGjRq7XdGcIXtbsoVk1g+D26pxw2LmCLgpFDrctKSkFD361GxNnLzTHHlekcKheu7p2urWpSI3OsD1IiNj9NFna/X9sB8VH59kjvE3ypbJobEjOqpYUR5ThNtHocNNuXwlXj0fnKplK46YI08rWCBEzw6orR7dK8nfn8cMwFtOnrqsd95fpbETdnAp9gbd37mCPv7gPmVhKwZSCYUON+zM2atq22kcxwb9Rt48WfXMgLvVu0cVjuWC5x08FKU33l6uGbP3miP8T1CQvwZ+3kLt25Y1R8BtodDhhuzbf15tO43XyVPcACFJuXIFa8CTd+uhB6txJA9g+Gn7Gb3+9nItW37YHHlahbK5NHJYOxUvlt0cAbeNQoe/tW7DCXXpPpETIiSFhQbo6QG11P/BOxQU5G+OAfzGqjXH9OobS7X1p9PmyJNKlcyh2dPuV+5cWcwRcNsodLiu2XP36cGHZ7DhWVLP7pX15mv1FB4eZI4AXMfsufv09nsr2K4hqWiRUM2Z3l358/E8SqQuCh3+0oRJO/XIk7Pk9e+QKpXy6JMP7tOdd+QzRwBuwsgx2/Tq60t18VKcOfKUokVCNWNyNxUulM0cAbeMQoc/RZn75fLqay/fq769q8mPJ5AAqSIyMkavvblUY8bvMEeeki9vVs2d0V1Fi/DIEqQOCh3+gDLH5VUgra1Zd1xPDpirg4eizJFn5MoVrDnTuqtUyXBzBNw0Ch1+x+tljsurQPqJj0/S51+t10efrVVcnDf36YaHB2n21G4qVzanOQJuCoUOv/JymePyKuA7h49c0FP/mqeVq4+aI08ICw3QjCndVLlibnME3DAKHSR5u8xxeRVwhklTdumlfy9WRES0OXK9kKyZNX1SV91RjasDuDUUOni2zOXLm1VDvmmtOrUKmSMAPnLxUpxef3uZho34yRy5XpbgTJoyoYvuqlHAHAF/i0LncV4tc107V9CH7zVRtpDM5giAA6xee0wP9p+hsxFXzZGrBQX5a/bUbqzU4aZR6DzMi2Uue/ZAff5xM7VpWdocAXCYCxfj9NSAuZo5x1tnw4ZmC9C8mQ9wowRuCoXOo7xY5ho1KKZvvmypXLmCzREABxs/8Wc9++JCXb7ineMHc+YM1rIFvVWwACdK4MZQ6DzIa2UuKMhfb7/eQA89WM0cAbDE0WOX9NBjM7Rh40lz5FpFi4Rq4eye/BKKG0Kh85g58/brgT5TPFPmqlXNq6GD2/A0dsAFkpNT9OkX6/Teh6uVmJhsjl2pbJkcmjezh8JCA8wR8DsUOg/ZvOWUmrUZrYQE938QZszop+eerq3n/lVbGTPyYDnATX7afka9+03T4SMXzZErVauaV3Ond1dgoL85An5FofOIQ4cvqH6T4Z44FDt3riwaO6IDpz0ALhYdnaBX3liqocO3miNXalCvqCaO6SR//wzmCJBEofOE8+djdG/jYTp+4rI5cp2aNfJrzLAOypmTPSeAFyxackj9H5+pqKhYc+Q6bVqW1rAhbZUhA1cd8EdUfZeLjU1Uu87jPVHmHu1/p+ZOf4AyB3hI44bFtHZ5X1WtnMccuc6M2Xv15IC5ZgxIYoXO1ZKSUtTlgUlavPSQOXKVwEB/ffNVS7VrXcYcAfCI+PgkPfLkbE2dvtscuc6Ap+7SG6/WM2N4HIXOxR5+YpYmTNppxq5SpHCoJozupDKlc5gjAB40aPAmvfL6UiUnu/tH2+cfN1PvHpXNGB5GoXOpjz9bq7ffW2nGrtK4YTEN/a6tQrJyfBeA/7dm3XF16znZ1TeBZcjgpznTu+vumpz7il9Q6Fxo2ow96tN/uhm7hp+f9OqL9+iZAbXMEQBI+uVBxF0emKjdeyLNkWuEhQZo2cI+Klok1BzBgyh0LrN2/XG1aj9WSUnu/LKGhQVq1ND2qlu7kDkCgN+JiUlUn/7TNX/hAXPkGiWKZ9fSBb2VLYQrFV7HXa4usnPXOXXuNsm1Za5okTCtWNSHMgfghgQF+Wv8qI565YW65sg1DhyM0gO9p7h+zyD+Hit0LnHq9BXd23iYIiKizZErVK2SV1PHd1H27IHmCAD+1uKlh9Sz7zRFRyeYI1d4tP+dev8/jcwYHsIKnQskJCSr4/0TXFvmGjcspnkzulPmANyyRg2KafnC3q491/mb7zZr/MSfzRgeQqFzgWdfXKCdu86ZsSv06FZJE0Z34gxDALetVMlwLVvY27UPIX5iwFyt23DCjOERFDrLTZy8U8NHbTNjV3jpuTr66rPmHHMDINWEhQZo9vTuqndPEXNkvcTEZN3fY5IOH7lojuAB7KGz2M87I9Sg6QjFxyeZI6tlyOCnb75sqS6dypsjAEgVCQnJ6v3QNM2Zt98cWa9E8exavqi3smbhzlcvYYXOUleuxqtrj0muK3NBQf6aMq4zZQ5AmsqUKYNGDW2vzh3d91lz4GCUevWdzp2vHkOhs1Tfh2fo+InLZmy1HDmCNH9WD9WvV9QcAUCqy5DBT4O/bqXHHq5ujqy3ZNkhvffhajOGi1HoLPTZl+u1YNFBM7Za7lxZtHB2D1WumNscAUCa8fOT3nu7oV576R5zZL0PP1mjZSuOmDFcij10ltm46aTuazVKbvqq5c6VRfNmdlfxYtnNEQCkm++H/ahnXlhoxlYLDw/S2uV9lSd3FnMEl2GFziIREdHq1nuKq8pcjhxBlDkAjtCvTzUN+66tMmZ0z53158/HqHe/aeyn8wAKnSWSklLUrfcUnTvnnocH58gRpLnTKXMAnKNdmzIaPqSdqx6XtG7DCb3/Efvp3I5CZ4nX3lyqTZtPmrG1rpW50qVymCMA8KlWLUppyKDWZmy1Dz5mP53bUegsMH/hAQ38dpMZW4syB8DpOrQrq88+amrGVuv7yAydOXvVjOESFDqHO33mih56dKYZW4syB8AWfXpW0QfvNjZja13bT+emfdj4fxQ6h3vo0Zm6fCXejK1EmQNgm4f73aFXX3TPI03WbTih/37Mfjo3otA52DffbdaqNcfM2EqUOQC2evZftfTU4zXM2Fr//Wi11q4/bsawHM+hc6hDhy/o7nu/V1yc/Ud7UeYAuMGzLy7UkKE/mrGVcufKojXLHlTOnMHmCJZihc6BkpNT9GD/6a4oc8HBmTRj0v2UOQDW++j9JurauYIZW+lsxFX989n5ZgyLUegc6KNP12rrtjNmbJ0MGfw0Zlh7VSifyxwBgJUGfdFC7duWNWMrzZ67T5On7jJjWIpLrg6zY2eE6jUepqQk+78sA79ooe5dK5oxAFgtKSlFvfpN0+y5+8yRdcLCArVx1UPKlYtLr7aj0DlIQkKyBjw3XydOXjZH1unUvqx6dKtsxgDgComJKXrptUXadyDKHFnnzqp59drL95oxLEOhAwAAsBx76AAAACxHoQMAALAchQ4AAMByFDoAAADLUegAAAAsR6EDAACwHIUOAADAchQ6AAAAy1HoAAAALEehAwAAsByFDgAAwHIUOgAAAMtR6AAAACxHoQMAALAchQ4AAMByFDoAAADLUegAAAAsR6EDAACwHIUOAADAchQ6AAAAy1HoAAAALEehAwAAsByFDgAAwHIUOgAAAMtR6AAAACxHoQMAALAchQ4AAMByFDoAAADLUegAAAAsR6EDAACwHIUOAADAchQ6AAAAy1HoAAAALEehAwAAsByFDgAAwHIUOgAAAMtR6AAAACxHoQMAALAchQ4AAMByFDoAAADLUegAAAAsR6EDAACwHIUOAADAchQ6AAAAy1HoAAAALEehAwAAsByFDgAAwHIUOgAAAMtR6AAAACxHoQMAALAchQ4AAMByFDoAAADLUegAAAAsR6EDAACwHIUOAADAchQ6AAAAy1HoAAAALOcvSQ89NlOTpuwyZ44QFhqgw3v/acbWWLb8sNp1mWDGjjF6WHu1bF7KjB1t3oIDur/nZDNGGhs1tL1atbDje2Xu/P3q1muKGTvG1Ald1KBeUTNGOjp56rLKVx1kxjfN3z+DfhjcRm1aljZHcJG9+yLVvssEnTh52RzdtC8/baae3Sub8W1jhQ4AgFuUmJisXn2nafD3W8wRXGLzllNq0mJUqpS5tEShAwDgNj3/8iK99e4KM4blliw7pJbtx+ripThz5DgUOgAAUsEnn6/TY0/NUXJyijmChSZP3aXO3ScpNjbRHDkShQ4AgFQydsIOdes1RXFxSeYIFhn8/Rb1e3SmkpLsKecUOgAAUtH8hQfUpuM4Xbjo/Mt0+KPX31qm519eZMaOR6EDACCVrd94Qk1ajNTpM1fMERwqMTFZjz01R59/vcEcWYFCBwBAGti3/7waNRupg4eizBEcJiYmUZ27T9LYCTvMkTUodAAApJETJy+rUfOR+mn7GXMEh7hwMU4t24/V0uWHzZFVKHQAAKShqKhYNW8zRitWHTVH8LHTZ66oSYuR2vLjKXNkHQodAABpLDo6QR26TtDkqc48lcmLDh6KUqNmI7Vv/3lzZCUKHQAA6SAxMVn9Hp3JqRIO8NP2M2rUfKTjT3+4GRQ6AADS0fMvL9Kb73CqhK8sWXZIzduMUVRUrDmyGoUOAIB09ukXnCrhC9dOf4iOTjBH1qPQAQDgA5wqkb5sPP3hZlDoAADwEU6VSB9vvrPCytMfbgaFDgAAH+JUibSTnJyix56ao0+/WGeOXIdCBwCAj3GqROqLi0tSt15TrD794WZQ6AAAcABOlUg9Fy7GqU3HcZq/8IA5ci0KHQAADnHtVIklyw6ZI9yga6c/rN94why5GoUOAAAHiY5OUOfukzhV4ha47fSHm0GhAwDAYZKSUjhV4ia58fSHm0GhAwDAoZ5/eZHe+M9yM4Zhxaqjrjz94WZQ6AAAcLDPvlzPqRLXMWP2XnXoOsGVpz/cDAodAAAOd+1UiZiYRHPkaYO/36JefacpMTHZHHkOhQ4AAAvMX3hALduP5VSJ/3n7vZWuP/3hZlDoAACwxJYfT3n+VIlrpz98/Nlac+RpFDoAACzi5VMlvHb6w82g0AEAYBkvnipx+Uq8505/uBkUOgAALOSlUyUiIqLVtNUoz53+cDModAAAWMoLp0ocPBSlRs1HaOeuc+YIv0GhAwDAYm4+VeLa6Q9Hj10yRzD4S5Kfn5+ZO4eT35sLZMjA329qq1A+l8JCA83YejlyBJmRYzn6M02Ss9+dN7jxs+/5lxfpxIlLevPf9c2RlVasOqr7e072/AODb5S/JKWkOPjp005+by7Ak8dT31v/rq9GDYqZMdKRoz/TJDn73XmDWz/7Pv96g85GROvLT5vJ39/ei3AzZu9V34dn8MDgm2DvVxsAAPzB2Ak71Ln7JGtPlRg28idOf7gFFDoAAFxm6fLDVp4q8e4HqzTg2flmjBtAoQMAwIVsOlUiJUX65zPz9MHHa8wRbhCFDgAAl7LhVIm4uCT16jtNw0dtM0e4CRQ6AABc7NqpEpu3nDJHPnft9IeZc/aaI9wkCh0AAC4XFRWrlu3HOupUCU5/SF0UOgAAPCA2NtExp0ocOXqR0x9SGYUOAACPcMKpEj/vjOD0hzRAoQMAwGOef3mRXnptiRmnuXUbTqhpq9E6dy7aHOE2UegAAPCgQYM3qc9D05WUlD6nZsyYvVdtOo7Tlavx5gipgEIHAIBHTZu5Rx3vn5Dm56VeO/0hPj7JHCGVUOgAAPCwZSuOqGmr0YqKijVHqeL9j1Zz+kM6oNABAOBx238+qwZNR6TqjQrXTn94/8PV5ghpgEIHAAB0+MgFNWg6XLt23/6jRBISkjn9IZ1R6AAAgCQpMjJGTVqM0qo1x8zRDbsanaAOXSdw+kM6o9ABAIBfXbkar3adx2v23H3m6G9FRESreevRWrn6qDlCGqPQAQCA30lMTNYDfabq+2E/mqO/dO30h207zpojpAMKHQAA+FPPvLBQb727woz/gNMffI9CBwAA/tInn69T/8dnKTn5zx9AzOkPzuAvSX5+fmbuGDGxiXrP4lueDx+5YEaO4uSvva34KwXgNhMn71RUVIxGDW2vwED/X/N5Cw6oVz8eGOwE/pKUkvLnrdsJ4uKS9N+P7C10Tufkr72t+CsF4EaLlhxSszZjNH1SV4VmC9CY8Tv0xD/n8JnnEP9fswHAJZy+8uzsd+cNGTLwVbgVW386rSYtRqll81L69It15hg3IK2+9yh0AFzH6SvPzn533vBX+8Hw9/bui9TefZFmjBuUVt97jt9Dh7SVVr8peNm/31qmTz639zfXMSM6KDRbgBlbxemfac5+d97AZx/cxvF76JC20uo3BS/7eWeEGVklwQWbm53+mebsd+cNfPbBbXhsCQAAgOUodAAAAJaj0AEAAFiOQgcAAGA5Ch0AAIDlKHQAAACWo9ABAABYjkIHAABgOQodAACA5Sh0AAAAlqPQAQAAWI5CBwAAYDkKHQAAgOUodAAAAJaj0AH4HT8/PzOyjtP/DM5+d97g9O+RwoWymRFu0H2Ni5uRo6TV9x6FDsDvpKSkmJF1nP5ncPa7gxPcUTWfZk3tpqAgf3OEvxAY6K8p4zurZfPS5shR0urziUIHAIAD1a1dSPNn9VBYWKA5giE0W4BmT+2mhvWLmSPPoNABADwnrVZJUsu1t1e5Ym4tnd9LhQpyCfav5MmdRQvn9NCdd+QzR55CoQMAwMGKFQ3T0vm9VLZMDnPkecWKhmnxvF4qXYq/GwodAAAOlzNnsBbO6aka1fObI8+qXDG3Fs/tqYIFQsyRJ1HoAACwQEjWzJo1pZtaNCtpjjznnjqFNXfmAwoPDzJHnkWhAwDAEgEBGTV6WAf16FbJHHlG6xalNWV8F2UJzmSOPI1CBwCARfz8pK8+a65XXqhrjlyvd4/KGvFDO2XKRH0x8TcCAICFnnu6tgZ/3Upp9Jxax3npuTr6/ONmnvnz3iyeWAgAgKW6dCqv7NkD9UCfqYqPTzLHrvHZR03Vp2cVM8ZvsEIHAIDFmjQqrllTuilbSGZzZD1//wwa8UM7ytwNoNABAGC5mjXya/G8XsqdK4s5slZwcCZNGd9FbVo6+ygvp6DQAQDgAqVKhmvpgl4qWSLcHFkne/ZAzZ3RXffWLWyO8BcodAAAuESB/CFaPK+nqlbJa46sUSB/iBbP7akqlfKYI1wHhQ4AABcJzRageTO6q/69RcyR45UqGa7F83qqeLHs5gh/g0IHAIDLBAb6a/K4Lurcsbw5cqw7quXTwjk9lTdPVnOEG+AvSX481MWz+Nqnvi6dyqtYUXt/uwx2wdPXnf597ex35w2O/x5JhbeXMaOfvhvYSvnyZNUXAzeYY0dpUK+oxgzvoKAgnqZ2q/wlKSUlxczhEXztU1/XThXUqEExM0Y6cvr3tbPfnTc4/nskFd/eW6/XV5EioXrmhYXmyBE6tCurwV+3kr8/Fw1vB397AAC4XL8+1TR6WHvHlab+fe/Q99+0cdz7spHj1zbDQgN0eO8/zdgay5YfVrsuE8wYAIB01bJ5KU2b2FWdu09UTEyiOU53b7xWTwOevMuMcYuoxAAAeETd2oU0f1YP5cgRZI7SjZ+fNPCLFpS5VEahA+A6jt/wbgZId47/HknDt1e5Ym4tmtNTRYuEmaN0MWZ4B3XvWtGMcZsodABcx/Eb3s0A6c7x3yNp/PaKFQ3Tojk9VKlCbnOUZrJmyax5Mx9Q86YlzRFSAYUOAAAPypkzWPNnPaA6tQqZo1R37f/r7poFzBFSCYUOAACPCg7OpGkTu6pd6zLmKNUULpRNi+f2VIXyucwRUhGFDgAAD8uUKYOGDWmrvr2rmqPbVr5cTi2e20tFCoeaI6QyCh0AANAnH9ynN16rZ8a37K4aBTR/Vg/lyhVsjpAGKHQAAECSNODJuzT461bKkOH2brNt2qSEZky+XyFZM5sjpBEKHQAA+FWXTuU1ZVxnBQRkNEc3pFuXiho7osMt/+9xayh0AADgd+rXK6p5Mx5QWFigObqup/95twZ92eK2V/hw8yh0AADgD6pVzaul83spf74Qc/SnPni3sf798r1mjHRCoQMAAH+qWNEwLV3QS2XL5DBHv8qY0U/ff9NaD/e7wxwhHVHoAADAX8qTO4sWzumpGtXzmyMFBvpr4phO6ti+nDlCOqPQAQCA6wrJmlmzpnRTi2b/f2xXaLYAzZ7aTQ3rF/vNK+ErFDoAAPC3AgIyavSwDurRrdL/Vu166M478pkvg4/4mwEA2M7Pz9l32Dn73XmD0+/C9HPocoufn/TVZ811/nyMwsODzDFuQFp9PlHoACCdbf85Qhn9HfoT+zYULhTKEU8eQZm7dSkpKWaUKih0AFwnrT4wU8trby41I1d47unaeuWFumbsSMnJzv4eSUk2E+D63PcrIgAAgMdQ6AAAACxHoQMAALAchQ4AAMByFDoAAADLUegAAAAs5y+l3UPuUoWT35sLOP3hmjb691vL9Mnn68zYeq++dI9q3VXQjB3J0Z9pLmbTX7vTP/uc+mBhOJe/5PBnNjn5vbmA05/FZKOfd0aYkStERsaYkWM5+jPNxWz6a3f6Zx/PocPN4ncAAAAAy1HoAAAALEehAwAAsByFDgAAwHIUOgAAAMtR6AAAACxHoQMAALAchQ4AAMByFDoAAADLUegAAAAsR6EDAACwHIUOAADAchQ6AAAAy1HoAAAALEehAwAAsByFDgAAwHIUOgAAAMtR6AAAACxHoQMAALAchQ4AAMByFDoAAADLUegAAAAsR6EDAACwHIUOAADAchQ6AAAAy1HoAAAALEehAwAAsByFDgAAwHIUOgAAAMtR6AAAACznL0ltWpVRieLh5swRggL9zcgqRYuG6YVn65ixY5QulcOMHK9kieyO/jt1q9KlnPkZ8WdKlQzne8QH6tQqZEaOFRIS4OjvkXJlcpoRblCVynkc/bWtXCmPGaUKv5SUlBQzBAAAgD245AoAAGA5Ch0AAIDlKHQAAACWo9ABAABYjkIHAABgOQodAACA5Sh0AAAAlqPQAQAAWI5CBwAAYDkKHQAAgOUodAAAAJaj0AEAAFiOQgcAAGA5Ch0AAIDlKHQAAACWo9ABAABYjkIHAABgOQodAACA5Sh0AAAAlqPQAQAAWI5CBwAAYDkKHQAAgOUodAAAAJaj0AEAAFiOQgcAAGA5Ch0AAIDlKHQAAACWo9ABAABYjkIHAABgOQodAACA5Sh0AAAAlqPQAQAAWI5CBwAAYDkKHQAAgOUodAAAAJaj0AEAAFiOQgcAAGA5Ch0AAIDlKHQAAACWo9ABAABYjkIHAABgOQodAACA5Sh0AAAAlqPQAQAAWI5CBwAAYDkKHQAAgOUodAAAAJaj0AEAAFiOQgcAAGA5Ch0AAIDlKHQAAACWo9ABAABYjkIHAABgOQodAACA5Sh0AAAAlqPQAQAAWI5CBwAAYDkKHQAAgOUodAAAAJaj0AEAAFjO3wzgHGPG79CEyTvN2EohWTLpzX/XV/Fi2c0RADjegkUHNXDwJjO2kp+kt/5dX5Uq5jZHsJhfSkpKihnCGZKTU9Sk5Sht3nLKHFkpJGtmzZ7eXZX5EAFgkSnTdqvvIzPM2FovPFtHLz1Xx4xhOQqdwx0/cVl1G/ygCxfjzJGVQrJm1vRJXXVHtXzmCAAcZ9acferVb5qSk93xo/KuGgU0d0Z3ZcjgZ45gOfbQOVzBAiH69utWZmyty1fi1brDOK3feMIcAYCjLFt+WL0fck+Zy549UCOHtqPMuRSFzgJNm5RQvz7VzNhaV6MT1LbTeEodAMdauPiguvSYrKQkd5Q5SRo+pJ1y58pixnAJCp0l3nmzgcqVzWnG1oqNTVTbTuO1cvVRcwQAPjV77j7d33Oy4uOTzJG1nnu6tu6tW9iM4SLsobPI/gPnVafBUMXFuedDJnPmjJo8rrPuqcMHDQDfmzBppx55cpbc9JORfXPewAqdRUqWCNeH7zUxY6vFxyep4/0TtXT5YXMEAOlq5JhtevgJd5U59s15B4XOMr0eqKxOHcqZsdXi45PUufskSh0Anxn47SY99a95Zmw99s15B4XOQl9/1kJVKuUxY6slJiarc/dJmr/wgDkCgDT1349W6+V/LzFj6z0zoBb75jyEPXSWOnX6imrV+0EXLsSaI6tlzOinMcM7qGmTEuYIAFLdS68t0SCXnADxW+yb8x5W6CyVL29WjR7W3nX/WJOSUtS99xTNnLPXHAFAqklKSlHfR2a4ssyxb86bKHQWq1OrkN55s4EZWy8pKUW9+03X19+474MWgO9duRqvdp3Ha8q03ebIev7+GTR+ZCf2zXkQl1xd4KHHZmrSlF1m7AqdO5bX1581V+bMGc0RANy0k6cuq32XCdqzN9IcucJ3A1upc8fyZgwPoNC5QFxckho0Ha6du86ZI1eoVjWvJozqpFy5gs0RANywHTsj1L7LeEVERJsjV3hmQC299tI9ZgyPoNC5xLHjl3RPo2Guu0nimrx5smr86I6uu7sXQPpYvPSQejw4VTExiebIFdq0LK3h37eTH9vmPIs9dC5RqGA2TRjVybWXJk+fuaL7Wo7StBl7zBEAXNewkT+pU7eJri1zVavk1XeDWlPmPI5C5yJSUybEAAAgAElEQVQ1a+TXd4NambFrxMUlqU//6XrznRWuepI7gLSRkiK99uZSDXh2vms/M/LnC9HksZ0VEODOX+Zx47jk6kIffrJG7/x3lRm7SpNGxTX0uzbKmiWzOQIAXb4Sr54PTtWyFUfMkWsEB2fS0vm9VKZ0DnMED6LQuZSb73y9plTJcE0a21lFCoeaIwAetmdvpLo8MElHjl40R66RIYOfJo/rrAb1ipojeBSXXF1q0BctVadWITN2lX37z6te42FateaYOQLgUdNm7lG9JsNdXeYk6YtPmlHm8DsUOpfKlCmDxo7sqNKl3L0Uf+FinNp2Gqdvh2w2RwA8JDExWc+8sFB9Hpqu2Fh33vxwzSMP3ake3SqZMTyOS64ud+LkZd3TaJjOn48xR67zwP2V9PnHTeXvz+8pgJecOXtV3XpN0ZYfT5kj16lfr6imjOvMsV74AwqdB/y49bSatx3j+t9apV/u9B03oqPCw4PMEQAXWr/xhLr3nqLISPf/0lq6VA4tXdBLWYIzmSOAS65eUK1qXo0b0UGZMrn/y71h40nVvOd7LVpyyBwBcJHExGS9/d5KNW8zxhNlrljRMM2ccj9lDn+JFToPWbDooB7oM0UJCcnmyJX69ammt1+vr2A+AAFXOXAwSg/2n65tO86aI1cqXCibFs7pqTy5s5gj4FcUOo9ZsOiguvWarKQkb3zZixYJ1Q/fttEd1fKZIwAWGjL0R7325lLXnvpgyp8vRAvn9FCB/CHmCPgdCp0HzZqzT70fmuaZUpcxo5+ef7q2nhlQixsmAEtFRETr0adma/FS72ynyJ8vRHNndOdZm7ghFDqPmjVnn3r1m6bkZO98+StXzK2h37VVieLZzREAB5s7f78e/+ccRUXFmiPXyp0rixbO6UGZww2j0HnYlGm79dBjMz1V6oKC/PXOmw3Vt3dVcwTAYa5cjdeLryzWqLHbzZGr5c6VRfNmdlfxYvzyiRtHofO4KdN2q9+jM1x7cPVfqXdPEQ0Z1Fq5cgWbIwAOsOXHU+r90HQdO37JHLlajhxBWji7B2UON41CB42b+LMefXK2Gbte9uyBGvh5CzVvWtIcAfCRK1fj9dY7K/TdD1s894tmjhxBmju9u+tP+EHaoNBBkjRs5E8a8Ox8M/aENi1L67/vNla+vFnNEYB0NHX6br302hKdPnPFHLleWFigFsx6gDKHW0ahw6+8XOqCgzPp+Wdq68lHa3AnLJDOjp+4rMf/MVsrVh01R56QLSSz5s54QBXK5zJHwA2j0OF3Bn+/Rc+/vMiMPaNkiXB9/nFT1alVyBwBSGWJicn6/Kv1+vDTtZ44mvDPZAvJrBlTuqlq5TzmCLgpFDr8gddLnSR16lBO77z5f+3dd1SVV9oF8E3n0juIoiggoKAoxYIGe40NC7bYW5wUJ5o4yZc6cSZmMknGTMpo7CW2qDEmUdGoo9hr7A27KKBIF5Dy/WHiJMfERrnnnLt/a7lmZT83GVkLuPue933PacOd2Ykqye69V/GnF9fibHKGODIZ9nZW+H71QJY5qhAsdPS7Pvl8D958Z4sYmxRHB2u8NrkFxoyMhIWFmTgmoieQkXEbr7+9GV8tPSqOTIq9nRVWf52AqEhfcUT0RFjo6A+x1N0VXNcdn0/rgsjGPD6MqDwWLzuK197cZFIbBP8eOzsrrFzaD01jqosjoifGQkcPNGvuQUz6ywaT2z7g9wzqH45332oFNzeDOCKiB1i/IRl//ftWHDueLo5MjpubASuX9EVEQx9xRFQuLHT0UOs3JGPoqNUme9Pyr7k422DCC00xdmQkDAZLcUxEv3Lw0HW88c5mJO24LI5Mkn8tF6z+OoHHeVGlYKGjR3L4aBr69F+OtPQ8cWSSvL3s8fJLzTF0cENYWXGbE6JfO5ucgXembMWaH06LI5Nmb2eFGZ8/ja6dg8QRUbmx0NEju5qSg979l+HkqZviyGTV9HPC5Emx6N83jA9OkMlLS8/D36Zuw8LFR1BSwreWP/Lqy7GYPClWjInKhYWOHktObhGeGb4KW7ZeFEcmLTDADf83uQV6dg+BGXsdmZjsnCJ8NG0nps/cj9u3eWvGo+jcMRBffvE0HOytxRHRE2Gho8dWUlKGFyeuw8LFR8SRyQur54nXX30KnToEiCMi7RQVleA/M/fjo2m7kJlp2k+uPonAADcs/6oPavu7iCOix8ZCR0/so2m78M7ftnJF6ndERfrijVdbIq5lLXFEpLzsnCLMnncQX0zfh9Q03ldbHg721pg9ozs6tKsjjogeCwsdPbHrqblo32UhLl/JFkf0s6Yx1fHeu23RKIJbFJD6UtPy8NkXezFn/iHk5BaJYyqHt1+Pw4Tnm4gx0SNjoaMncu78LXSLX4KrKTniiH5Hi+Z+eHZMFDp3DIS5OZc0SS1nzmbg4092YfnK47hzp1QcUwUZNzoSU6e0FWOiR8JCR4/t+Ikb6N5nCW7cyBdH9BC1ajpj7KhIDB7YAE6OvBma5LZj1xVM+3Q31m9IFkdUSfr2rofpn3blBz96bCx09Fh2772KPv2X83JLOTnYW2PQgHCMHdUYdWq7imMioykrA75bexrTPt2DfftTxDFVgW5d6mLBnJ5iTPRALHT0yPbsTUH3Pkt4YkQF69QhAM+OieIDFGRURUUl+GrpUfz78z1IPndLHFMVa9u6NhbPj4e1tYU4IvpdLHT0SLbvvIz4hGUoLCwRR1RBQkM88OyYKCT0qQ8bG/4Sp6px7Hg65i86jGUrjuHWLW49IhOWOnocLHT0UFyZq1rOTjbo1SME/fuFoWlMdXFMVG6ZWYVYuvwoFi0+gsNH08QxSYSljh4VCx09UNKOy+g7cDl3fzcS/1rOSOgbhgH9wuBfiwd605MrLS3Dpi0XsHDxYfyw7iyKirjarooO7epg2aI+Ykz0Gyx09Ie4MieXmGhfDOgbhvheoXB2shHHRL/rwsVMzF90GEuWHUPKNW4zpCqu1NHDsNDR79qadAn9Bn3NMicha2sLdGofgIS+9dGhXQCsrMzFl5CJy8+/g5WrT2LR4iPYufuKOCZFsdTRg7DQ0X22bb+EvgNZ5lTg6mqL3j1DMaBfGCIbVxPHZEJu3MjH9+vOYu36M9iy9SJ/fjXVqUMAlizoLcZELHT0W8dP3EC7LguQn39HHJHk/Go4oX3bOujQLgBxLWvBYLAUX0KaOXIsDevWn8XaxGQcOHhNHJOm+sSHYuYX3cSYTBwLHd1z7Xounmo3F+npPAFCdTY2FmjRvCY6tKuDzh2DUNPPSXwJKejOnVJs234Ra9cnY13iWZ6jbMImT4rFqy/HijGZMBY6AgDk5BahTcf5OHM2QxyRBgID3NCxfR20bxuA2GZ+vO9OIZmZBVibeBbr1ifjx83nkZvHU1rorv982hX9+9YXYzJRLHQEAOjZdym2bL0oxqQhg8ESreP80aVTEJo3rcGjxyRz8VIW9u1Pwfadl7Fn71UcPZ4uvoTontVfJ/CUGQLAQkcAXnolEbPnHRJjMhFubgZER/oiOtIXUZG+aNyoGpwcrcWXUSUoKSnDkWNp2L3nCnbuvoLde67i2vVc8WVEf8jJ0RpbfxwG/1ou4ohMDAudiZu/6DBeeGmdGJMJMzMDguu6IzqyOqIifRET5Yvguu4wNzcTX0qPKTevCHv3pdwrb/v2pyCPDyBROQUGuGHLhiFwsOcHMVPGQmfCdu+9is7dv0JpKb8F6MEMBksEB7kjJNgDISEeCA32QEiwB2r6OcOMPe8+WdmFOHXqJk6duYHTZ27i1Om7fy5dzgJ/41JlaNemNpZ/1Zc/jyaMhc5EXU3JQWyr2cjMKhRHRI/Mzs4KdYPc7xa83xQ903iqNjUt7+eydgOnTt+8V95S0/LEl5IkbGws8OJzTfHPj3do92H2lYnN8dorLcSYTAQLnQkqKipBXPt5OHHyhjgiqhC/LnoBdVzh7maAq5sB7m4GuLvZwd3dAG8ve/Ffk8r5C5lIuZaD69dzce16LtLS8nAlJfveP1+7nsvNexUT28wPn03rDP9aLugWvwTbtl8SX6K8hXN64ekuQWJMJoCFzgQNH/MtVq0+KcZEVc7RwRru7ga4udnB3c0At59Ln4uzLWwNlrAzWMHw8//a2lrCzs4KBlsrGOwsYbC1hMFgdW9mMFgiL/8OCm4X43ZBMW7fvoPbBcUouF2MgsL//fPt2/97TUFBMXLzinDtWi6upebi2s8FLiubK9c6cXaywTtvtsKwZxrey2bPO4SXXkn81av0YG9nhc2JQ1A3yF0ckeZY6EzMp1/sxetvbxZjIiIt9ewWjA/eaw9PT7vf5JmZBQis/ymKi0t/k+vAv5YLkjYP40MSJoa7i5qQXXuu4o13WOaISH/eXvZYurA35s7scV+ZAwAXF1t0bB8gxlq4cDETI8Z8ywdwTAwLnYlITctD/8Ff8weciLRmZgaMGt4I+3aOfmhh699P31MWEjeew4f/2inGpDFecjUR8QnLsWnLeTHWhqeHHdJv8AxaIlNWN8gd0z/tikYRPuLod925Uwr/utO03QvQzAzY8P1gREX6iiPSEFfoTMDiZUe1LnNmZsC2TcPwwXvteMIBkQmytrbAqy/HYvvm4Y9c5gDAysocfXvXE2NtlJUBQ0etRk4uz/81BSx0mktNy8Mrr24UY610aBcAH28HjB7RGAd2jUGf+FDxJUSkqahIX+z87whMnhQLK6vHf0sbkBAmRlq5mpKDCZPWizFp6PG/+0kpI8d+q/2ns19vReDhYYeZX3TD998M4NmGRBpzczPgw/fbY+MPgxFQx1UcP7Im0dURXt9LjLWyYtUJLFl+TIxJMyx0Gpu74Cck7bgsxlrx8rRHpw6BYozYZn7YkzQSb7zaEra2luKYiBRlb2eFyZNicWT/OIwc1kgcP5Fnx0aJkXYmvpKIS5ezxZg0wociNHXxUhaaxc1GvqY3+/7izdeewksvNhXj37iemosPPtqJ+Yt+wp07+u05RWQKLC3NMXxIBCZPbA4Pj/u3ISmP4uJShEZ8jvR0vR+sahpTHevWDBJj0gRX6DQ1evwa7cucg701xoxqLMb38fF2wIfvt8eBXWPwzMAGsLDg6dVEKundKxT7d47GB++1q/AyB9wti2NHRoqxdnbtuYrZ8w6JMWmChU5D0z7bgz17U8RYO8OHNnysndD9ajjh3x93wv6dY9CvTz2YsdcRSa11nD92bBmBWf/phlo1ncVxhRoxNEKMtPT625tx5WqOGJMGeMlVM2fOZqB5q9naX1q0sDDDsYPPwsfbQRw9sjNnM/C3qdvwzZpT4oiIjCiioQ+mvN0aLZr7iaNKNeHl9Zg7/ycx1k6bVrWxcmlfMSbFcYVOMyPGfKt9mQOAgQnh5SpzABAU6Ia5M3tg++bh6Nzx/gcriKhq1antijkzumNL4pAqL3MAMOG5JmKkpU1bzuPrlSfEmBTHQqeRL2bsw5FjaWKspT+/UHG/eOvX88Ti+fH478ahaNOqtjgmokrm5WmPD99vjz1JI9GrR4g4rjL+tVzQ4+lgMdbS5Nc3IiPjthiTwnjJVRMZGbfRIGo6cvP03nMOABL61sf0T7uKcYXZuy8Fb7yzGbv2XBVHRFSB/Gs547lnY/DMwAawsbEQx0Zx8tRNNIubZRLnXg8b0hD/+qCjGJOiWOg0MXr8d1i+4rgYa8fc3AwHdo2Bf63KvUEaALYmXcKUqVtN4gEToqoU0dAHL/4pBj26BcPcXL6nk0zl9ykAJG0ejrB6nmJMCmKh08CevSno8PRCMdbSoP7h+GxaZzGuVBs3nceUqdtw6Kfr4oiIHkObVrXx4nMxiGtZSxxJ5dz5W4iOnYmSEv3fHhtF+GDz+iFiTApioVNcaWkZYlrMwtnkDHGkHXNzMxzZPw7VfR3FUZXYmnQJM2cfwHdrz6C0lD82RI/CwsIM8T1DMfHFZggJdhfH0npuwlosXHxEjLX02bTOGNQ/XIxJMSx0ivt8+j689uYmMdaSLPd7XLuei1lzD2Lewp+031me6EnZ2VlhyKAGeH58jNE+hJXH5SvZaNx0hknsGuDmZsBPe8fC0eHR9/Uk+bDQKSwzqxBhjb4wiQchbGwscGjPWFTzKd9WJRWpqKgEq9ecwozZB7B3H++zIwIADw87jB3ZGGNGRcLZyUYcK2Xi5A2YNfegGGtp3OhITJ3SVoxJISx0CjOlXzYTnm+Ct1+PE2NpHDuejv98uR/LVx5HQUGxOCbSXm1/Fzw/PgaD+odL88RqeV1PzUVEzAyT+ZnetXWkUpfF6bdY6BR16vRNNIubbRL3crm42OLI/nFKXA7IzCrEgkWHMWvuAVy4mCWOibRiY2OBrp2D8MzABmj1lL+Wx+n948Md+Ps/ksRYS506BGDJgt5iTIpgoVNUlx5fYceuK2KspffebYNnx0SJsdTKyoANP57DjFn7sXHTeXFMpLSIhj4YPCAcfXvXU/6y6sMUFpYgstkMkzn/dO23A9GsSQ0xJgWw0Clo/YZkJAxeIcZa8qvhhCP7x4mxUi5czMTMOQex8KvDyMwqFMdESnB3N6Bf7/oYOrihyV2W+2bNKQwbtVqMtRTR0AdbErmNiYpY6BQU23oOjh1PF2MtzZnR3ahHAVWkoqISbPjxHFZ9exLr1iebxMMspDZzczO0b1sHgwaEo0vHQFhamu5pkaZ0VWT+7J7o3rWuGJPkWOgUY0qfFJs3rYEfVg8UYy0UFpYg8cdkrFp9EusTk5GXf0d8CZHRBAa4YfDAcAxKCIenp504NkknT91E06dmibGWAgPcsHvbSFhYaHhTpMZY6BRSVgbEtJiJM2f130TYysoc+3eOQU0/J3GkncLCEqzf+HO525CMfJY7MgIHe2vE9wzBoAHhaBJdXRwTgJdeScTseYfEWEsf/6MDhg+NEGOSGAudQr5eeQKjnl0jxlp687Wn8NKLTcVYewUFxb8pd7dvm8Z2CWQc3l726NwxEJ06BKJ1nL82241UlszMAkTETDeJe2F9vB1w8vB4MSaJsdApoqwMaNRkuklshRES7I7tm0eY/HJ/QUEx1iXeLXeJP7LcUcUIq+eJTh0D0aVjIBo3qiaO6SHmLvgJEyatF2Mt/XNqe4wa3kiMSVIsdIowpdW5zeuHoFGEjxibtPz8O1i/4Zdyd85kNjql8rOyMkds85ro0jEQT3cJgm819Y7hkk18wnJs2qL/dkQ+3g44emCcST8MoxIWOkU0i5uNEydviLF2xo6KxPt/4/EzD1JQUIzde69ia9IlbE26iAMHr6GkhD/G9D8uLrZo37YOunQMRPt2deBgL/+m3Cq5cSMfUc2/NIlLr5/+qzMGDwgXY5IQC50CEjeeQ79BX4uxdvxqOGHfjtG8j+cx5eYVYeeuK9iadBFbt13C4aOp4E+16ant74Iune7eD9e8qZ/J37JQ2b5fewaDhq0SY+0E1HHF3u2jYG7O7yfZsdApwFT2P1r/3SA+XVcBMrMKkbT97urd1qSLOHnqpvgSUpy5uRnC63shJro6mkRXR0x0dZN4Ilw2I8etwYpVJ8RYOzO/6IY+8aFiTJJhoZPcoZ+uo1WH+WKsnRFDI/DRPzqIMVWAGzfy716e3X53Be/c+VviS0hyLs42iIr0vVfeoiN9YWdnJb6Mqlh2ThGim3+J1LQ8caSV0BAP7PzvCDEmybDQSW7w8FX47oczYqyVGtUdsTtpFOz5BlUlrl3PxdZtF7Hpvxfw0+HrXMGTUN0gd0Q1rnavvNWv5ym+hCSxbfsldItfIsbaWbOyP1rG1hRjkggLncSup+YipMHnYqyd1V8nIK5lLTGmKlJYWIITp27g6LE0HDuejmPH03D0eDoyMm6LL6UK5u1lj9AQD4QE3/1TL8QToaEecHTgQwwqmTh5A2bNPSjGWundKxSz/tNNjEkiLHQSe/+f2/HeB9vFWCvPj4/Gu2+1FmOSwPXUXBw7no4jvyp6p89koLi4VHwpPYSHhx1Cfy5tvxS4+vU84exkI76UFFRQUIymT83Sep9QS0tzJJ94nt+zEmOhk1RZGRAc/hnS0vW9N6NRhA82/vAMn8ZTSHFxKS5fycb5C7dw/kLmr/7cwoWLWSZ/bJmrq+19xS2snhdcXW3Fl5JmDh1ORdtO87XeQujdt1rj+fHRYkySYKGT1LrEZPR/ZoUYa8PZyQa7to1ENR8HcUQKu56ai4uXspB87hYuXLxb9lJScnAr8zayswvv/skpEv81pXRqH4B69Tzh7WUPby8HeHvbw9PDDl5eDnBy5KVSU/bPj3diytRtYqyNgDqu2L9ztBiTJCzFgOQwd4HeB0B/Nq0Ly5yGfLwd4OPt8NDtZ7JzipCT80vB+/l/f/5zOSUbH/5rF2Rdt23Y0AevvhwrxkSY9Odm2LjpHHbtuSqOtJB87haSdlxGi+Z+4ogkwEInoZs3b2NdYrIYa2Pc6Eg83SVIjMmEODlaw8nRGtV97z+GatGSI9KWOQDYuOkcCx39odkzuiO29RzculUgjrTw1ZIjLHSS4gFtEvpmzUkx0kZEA29MeZsPQdAf27hJ7jMy9x+4hqxs/Y98oifjW80R82b2FGNtfPvdaRQVlYgxSYCFTkLLVxwXIy04O9lg8YLePOiZHujHTefESDrbki6JEdE9T7WoiVcmNhdjLeTmFSFxo/w/o6aI76ySSbmWo+39F3Nn9uB9c/RAh4+mKfHQxMbNfEOjB3vtlRZoFecvxlpYuVr/485UxEInmeUr9fxBmfBcE7TW9JcbVZyk7WqsfO3blyJGRPeZP6snAuq4irHyflh3FrdvF4sxGRkLnWR+WKvfMV8tY2virdfjxJjoPkk71Ch0x06ka3vTO1UcJ0drrFjST7uTPwoKirEu8awYk5Gx0EkkO6cIu/fqdbm1Vk1nfDU/HmYyP7ZI0ti7X42Vr7IyYPvOy2JMdB//Ws5YNC8e5uZ6/RL8fp1+iw+qY6GTyIaNem1VYm9nhZVL9ft0SpXj4qUspKfni7G0VFlNJON7qkVNfPxBRzFWWtJ2fqCRDQudRBJ/1OtG6wVz9Lx/hCqHagVJlfv9SA5DBzfA6BGNxVhZ11NzcTY5Q4zJiFjoJLJBo0L34fvt0aZVbTEm+kNnzqj15nDuQiZ4cCI9jqlT2qJlbE0xVlbSDq7SyYSFThLJ524hI+O2GCvp9b+0xMhhjcSY6IEOH00TI6nl59/BmbM3xZjoD1lYmGHRvHiEBLuLIyWptqquOxY6SezZp8fDEONGR2LSn5uJMdFDHTmWKkbSO6JYCSXjc3K0xqplCfDxVn9PTt5HJxcWOkns1WBfq8EDwjF1SlsxJnqo1LQ8pR6I+MXps2pdJiY5VPNxwJqV/eHsZCOOlHI9NRdXruaIMRkJC50k9ii+XUn3rnXx7487izHRI1F1pev0GV5ypScTFOiG1V8nwM7OShwp5fiJdDEiI2Ghk0BpaRmOn7whxspoHeePOV/24F5z9MRULUaqFlGSQ0RDH6xY0hcGg6U4UsaJU+q+d+mGhU4CFy5morRUzcflYqJ9sWRBb1hYsM3Rk7t0OUuMlHDu/C1lf3ZJDs2a1MDKpf1gY2MhjpRwgit00mChk8D5C5lipISIBt5YsUTdX0Qkj9OKbVnyi9LSMly+ki3GRI+lWZMaWLaoD2xt1VupO8kVOmmw0ElAxc0Zw+t7Yc2qATwFgiqEytt/nOGDEVQB4lrWwtKFvZX7gMwHg+TBQieBq4o9JRTRwJtljipMaWkZrqao9TPwa6re/0fyiWtZC8sW9YGVlTpvzfn5d5CXf0eMyQjU+a7RWFZ2gRhJ65eVORdntR+3J3mcTc5Q+j40Ve//IznFtayFxfN7i7HUdNkUX3UsdBLIzikSIyk1ia6OtWsGcmWOKpSq98/9goWOKlq7NrXxw+qBymxpcpOFTgosdBLIySkUI+m0jvPHmpX94WDPMkcVS6UV6t9z6RILHVW85k1r4IdvBsDV1VYcSefWLRY6GbDQSaC4uFSMpNKvTz2sWtYP1tZq3axLarh0We2nRFPT88SIqEJENPTBum8HobqvoziSSm6eGleZdMdCJwF7iVe9JjzfBDM+e1qMiSpMalquGCnl1q0C6T+UkbqC67pj68ZhiGjgLY6kYbBV49Kw7ljoJOAg4T1pdnZWWLqwN95+PU4cEVWotDS1V7iKi0t5DxFVKnd3A9atGYRuXeqKIynI+B5miljoJCDbAc21/V2wJXEIOrYPEEdEFS5V8UIH6PE1kNxsbS2xYE5PvPFqS+mOWZT9krCpYKGTQGCAmxgZTc/uwUjaPBx1g9zFEVGlSE1V+5IroMfXQGqYOKEZ1qwcABcXeR6W8KvhJEZkBCx0EggP8xKjKmcwWOKTjzph7pc9YK/Io/Kkh7T0fDFSTna2/E+qkz5aNPfD9s3DEdvMTxxVuUYRPmJERsJCJwFjF7qG4d7YunEYhgxqII6IKl1RUYkYKSeLhY6qWHVfR3y3agD++lYro54sERNVXYzISIz3XUD3ONhbG+WTlqWlOf7ycix+XPcMggLluexLpqOgoFiMlJSVpfZeeqQmMzPghfEx2Jw4FAF1XMVxlejaOUiMyEhY6CQxekRjMapU9UI9sGXDUPxlUiwsLfltQMahy8pWVpYeXwepKayeJ7ZvHo6RwxqJo0pVzccBT7WoKcZkJHwnl0TP7sFVcmOpra0l/vpWK+zYMgJh9TzFMVGV0mVlK1Px0y5Ifba2lvjw/fb4Zlm/KrviUtUFkh6MhU4in3zUSYwqVNfOQTiwazReGB8jjoiMQpeVLV2+DlJfqzh/7N0+Cp9/0gXeXvbiuMLU9HPC+LFRYkxGxEInkdZx/hiYECbG5RbR0Afr1gzCorm94FuN+wWRPHTZkLewUI97AUkfAxPCcHD3GEyeFAuDwVIcl4uNjQUWzYuHHXdEkAoLnWQ+/6QLunQKFHZYUSkAAAc4SURBVOMnElbPE9M/7YotiUPQNIZPIpF8dDkyq6BA/Sd1ST92dlZ49eVYHNg1BqOGV9zl0QWzeyG8vnF3Z6D7sdBJ6Kt58ejft74YPxKDwRIJfetjw/eDkbR5OBKe8L9DRI+OK3Qks2o+Dvjn1PY4ffRPmPBcE7i7G8SXPBIbGwvMnt4dHdrVEUckAbOysrIyMSQ57N2Xgvc+2I5NW86Lo9/w9rJHTFR19OoRgs4dAyt8eZ2osqxYdQIjx60RY+XENvPD998MEGMiaa3+7hQ2/ngee/ZdxanTN8Xxb9jYWGDo4IZ46cWm8PF2EMckCb7zSyw6yhcrl/bF8RM3sP9gCq6m5KCsDDDYWsLHxwHVfR0RXt9LqiNgiB5HAVe2iIyix9PB6PF0MAAgO6cIh4+kIi0tDzcz8pGRcRulZYCtjQVq+7uiRXM/eHjYCf8Fkg0LnQLqhXqgXqiHGBORJFhMSWVOjtZo0bzqN7enisV76IjIaAoL9XiYoFCTEy+ISF0sdERkNLoc/UVEZGwsdERkNM7ONmJERERPgIWOiKicbGx5OzIRGRcLHREZja2NHkVIl6+DiNTFQkdERmPDIkREVCFY6IiIyonFlIiMjYWOiKicbG0txIiIqEqx0BGR0ejylCtX6IjI2FjoiMhodHmYQJdiSkTqYqEjIqPRpQi5OPE8ZSIyLhY6IjIaZ2c9ipAuxZSI1MVCR0RG4+ykRxHSpZgSkbpY6IjIaGxtLWFtrf4ToroUUyJSFwsdERmVu5tBjJRjb28tRkREVYqFjoiMSodCp8PXQERqY6EjIqPy8nIQI+V4edmLERFRlWKhIyKj8tagDOnwNRCR2ljoiMioVC9DTo7WsLXVY4NkIlIXCx0RGZXqlyt1uGRMROpjoSMio1J9hU71vz8R6YGFjoiMKijIXYyUUtPPWYyIiKocCx0RGZXqhahmTbX//kSkBxY6IjIqF2cbODmquzFv3UA3MSIiqnIsdERkdCpfdlX5705E+mChIyKjqxuobilS/ZIxEemBhY6IjE7V+9A8Pe3g4mwjxkREVY6FjoiMTtX70Lg6R0SyYKEjIqMLD/MSIyWo+vcmIv2w0BGR0QUFusPOzkqMpdcgzFuMiIiMgoWOiIzOzAwIDfEQY+mF1+cKHRHJgYWOiKSg2uVLMzMgjIWOiCTBQkdEUlBttatObVcYDJZiTERkFCx0RCQF1e5Hi4mqLkZEREbDQkdEUggP84KtrTorXi1i/cSIiMhoWOiISAq2tpaIbFRNjKUVHekrRkRERsNCR0TSUKUkubraIkjh48qISD8sdEQkjShFCl2zJjVgZiamRETGw0JHRNJo0VyN+9KaxNQQIyIio2KhIyJpuLjYIraZ/KWuc4cAMSIiMioWOiKSSrs2tcVIKn41nFA3iPfPEZFcWOiISCpt29QRI6m0lbxwEpFpYqEjIqk0CPOCbzVHMZZGu9ZyF04iMk0sdEQknQ7t5CxNDvbWaNuaK3REJB8WOiKSTu9eoWIkhfbt6vD8ViKSEgsdEUmnZWxNeHnai7HR9e4pZ9EkImKhIyIpxfcMESOjcrC3RiduV0JEkmKhIyIpybYa1q1rXVha8lcmEcmJv52ISErRUb4ICZZnvzdZ7+sjIgJY6IhIYmNGRoqRUdQNcpd+w2MiMm0sdEQkrQH9wqR4qnTcaDmKJRHRH2GhIyJpGQyWSOhbX4yrlIuLLQb0CxNjIiKpsNARkdReGB8jRlVqUH85VgmJiB6EhY6IpFantqvRVshsbCww4bmmYkxEJB0WOiKS3isTm8PCwkyMK92zo6Pg6WknxkRE0mGhIyLp1fZ3Qb/eVXsvnZOjNV6a0EyMiYikxEJHREqY8nZrONhbi3Gl+fMLTeHkWHX/f0RE5cFCR0RKcHc3YOKEqrmfLSjQDX8aFy3GRETSYqEjImX8aVw0gutW/ukR773bFtbWFmJMRCQtFjoiUoa1tQU++kcHMa5QvXqE8FQIIlIOCx0RKSW2mR/e+r+nxLhCBAa44YtPuogxEZH0WOiISDl/fqEp+sSHinG5ODlaY8mCeNjachNhIlIPCx0RKemTDzshJtpXjJ+IvZ0V5s3qicAAN3FERKQEs7KysjIxJCJSQV7+HfTqtxR79qaIo0dmb2eFVcsSKqwcEhEZA1foiEhZ9nZWWLm0H3r3erLLr77VHLFyWT+WOSJSHlfoiEgLm/97AS+8tA6Xr2SLo/tYWJjhuXHRmDwpFnZ2VuKYiEg5LHREpI2iohKs+f405sw/hKQdl8UxfKs54plBDTB0cAP4VnMUx0REymKhIyIt3bpVgEOHr+PosXT4VnNAg3BvBAXyoQci0hMLHREREZHi+FAEERERkeJY6IiIiIgUx0JHREREpDgWOiIiIiLFsdARERERKY6FjoiIiEhxLHREREREimOhIyIiIlIcCx0RERGR4ljoiIiIiBTHQkdERESkuP8HeWRmnsyFuegAAAAASUVORK5CYII=;" vertex="1" parent="1">
          <mxGeometry x="321.07" y="1008.5" width="37.87" height="43" as="geometry" />
        </mxCell>
        <mxCell id="nSW95RDYFiEPkef_lx06-22" value="kafka-ui" style="shape=image;verticalLabelPosition=bottom;labelBackgroundColor=default;verticalAlign=top;aspect=fixed;imageAspect=0;image=data:image/png,iVBORw0KGgoAAAANSUhEUgAAAnQAAALJCAYAAAA9Pb5kAAAACXBIWXMAAA7EAAAOxAGVKw4bAAAACnRFWHRsb2dpY2FsWAAwZeNEqwAAABB0RVh0bG9naWNhbFkAODQuNDMzNkKHE3YAAAAPdEVYdHNjcmVlbgBIRE1JLUEtMS8Nn4UAACAASURBVHhe7N11dFVX3sbxJxCIQEgI7u7eAi3S4sXdCsUKpd4Zpq5Tm8rUFVpKi7u7u2spUNwdQggal/ePDn3b3ZYiSe7Z53w/a81as57fnTUXEm6e7LPP2X4pKSkpAgCXiYlJ1OkzV3Q24qpCsgYob54sCg8PMl8GAK7gbwYAYKv4+CTNmLVXQ0ds1eq1x8yx8ucLUa8eldXrgcrKny/EHAOAtfxYoQPgBlu3nVGfh6br8JEL5ugP/P0z6N+v3KunHqspPz9zCgD2odABsFpKivTFwA16+90VSkxMNsfX1aBeUQ3+upVy5Qo2RwBgFQodAKv95/2V+ujTtWZ8w0qWCNfc6d0pdQCsRqEDYK3nXlqk737YYsY3rWSJcE2d0EWFCmYzRwBghQxmAAA2+PSLdalS5iRp/4Hz6tB1gmJiEs0RAFiBQgfAOouWHNJb764w49uyb/95PfX0XDMGACtQ6ABYZf+B8+r78HSlxWaRSVN26dMv1pkxADgehQ6AVf7x9DxduhxvxqnmvQ9Xa+u2M2YMAI5GoQNgjdHjtmvNuuNmnKri45M04Jl5Sk5OgyVAAEgjFDoAVoiKitWrbyw14zSxddsZffPdZjMGAMei0AGwwpvvLldUVKwZp5n/frRaFy/FmTEAOBKFDoDjHTl6USNGbTPjNHXxUpwGfrvJjAHAkSh0ABzv/Q9X+2RP2zeDN+nM2atmDACOQ6ED4GhHjl7U+Ek/m3G6uHgpjseYALAChQ6Aow0avMknq3PXjBi9TdHRCWYMAI5CoQPgWDExiT5bnbsmOjpBU2fsNmMAcBQKHQDHmjJ9V7re2fpXfhi+1YwAwFEodAAca8y4HWbkE5u3nNK2HWfNGAAcg0IHwJF274nU6rXHzNhnxozbbkYA4BgUOgCO5LR9a5On7VJiYrIZA4AjUOgAONK4Cc643HpNRES0lq04YsYA4AgUOgCOs3L1UR05etGMfW7y1F1mBACOQKED4DiTpzmzOM2cvVdXrsabMQD4HIUOgOMsXnLIjBzhytV4LVvOZVcAzkOhA+Aoe/dF6tjxS2bsGKvWHDUjAPA5Ch0AR1nk0NW5a5z+/gB4E4UOgKM4vTDtP3DekTdsAPA2Ch0Ax4iPT7LikqYN7xGAt1DoADjG+o0nFB+fZMaO4/RVRADeQ6ED4Bir1jjnqK/r2bT5pBkBgE9R6AA4xqrVdlzKPHb8EvvoADgKhQ6AI6SkSJu22LPyxT46AE5CoQPgCNt/Pqu4OOfvn7tm1Wo7Lg8D8AYKHQBHsOVy6zUb2UcHwEEodAAcYe/+SDNytAMHzys6OsGMAcAnKHQAHGH7jrNm5GgpKdL+g1FmDAA+QaED4HMpKdLOXRFm7Hj79tm1qgjAvSh0AHxu3/5IxcQkmrHj2baqCMC9KHQAfG7vvvNmZIVtFDoADkGhA+Bz+yy7IeKa7T+fMSMA8AkKHQCfs3WFLjIyRpevxJsxAKQ7Ch0Anzt6zM5jtJKTU3To8AUzBoB0R6ED4HO2PYPut45ypisAB6DQAfCpCxfjFBERbcbWsHV1EYC7UOgA+JTthcjm1UUA7kGhA+BTtl+y3GfpDR0A3IVCB8CnzkZcNSOrXLwYa0YAkO4odAB86sxZuwvdGcsLKQB3oNAB8CnbL7lGRcUqMTHZjAEgXVHoAPiU7St0iYnJOnHyshkDQLqi0AHwqbNnr5iRdc5aXkoB2I9CB8Cn3LAHzfZVRgD2o9AB8KmLF+PMyDoXL3GnKwDfotAB8JnY2ETFxyeZsXXi4uz/MwCwG4UOgM9cvGT/6pzEs+gA+B6FDoDPuKUIueGyMQC7UegA+IxbitAF9tAB8DEKHQCfiY1LNCMruaWYArAXhQ6Az1y5Em9GVnLDjR0A7EahA+AzSUkpZmSlmBh3rDQCsBeFDgBuU5xLLh0DsBeFDoDPUIQAIHVQ6AD4jFtuinDLnwOAvSh0AHCb4mIpdAB8i0IHwGc4MgsAUgeFDoDPBARkNCMAwC2g0AEAAFjO3wzgTMuWH9aGTSeVlJyioEB/5c6dRfnzhah0qXDlzxdivhxAOgoI5KMUdluz7rhOn76iyPPROn8+RskpUkjWzGpYv5jKl8tpvhwOxKeQg+3ZG6kPPlmj+QsO6MrVv36ifmi2ANWonl/t2pRV29ZlFJI1s/kSwJECA9zxEeSWPwe8IzIyRjPn7NW8Bfu1fOWR6zwce6kKFcymzh3L6+l/3q2sWfj54lR+KSkp7nhUu8sMHb5V/3p+gRnfkHZtyqhfn2q6p05hcwQ4yqw5+9TjwalmbJ06tQpp9rRuZgw4zsrVR/XD8K2aOn23OfpbRQqHaujgNrqjWj5zBAfg10oHevu9lfr4s7VmfMOmzdijaTP2qETx7Hri0Rrq27uq+RIAqSiAFTo4WGRkjIaO2KpRY7fr8JEL5viGHTl6UQ2bjdSIH9qpTcvS5hg+xk0RDvPRp2tvq8z91oGDUXr6+QUqXfFrfTlwo65GJ5gvAXwq0CV7zwIDuVsXzhMfn6TPv96gand9q/+8v/K2ytxv9X9sprZuO2PG8DEKnYPs2Rup9z5cZca37WzEVb325lJVqzlYk6fuMseAz4RmCzAjK7FCB6cZN/FnVa/9nV5/a5kuXf7rPdi3Ii4uSf0fm6mkJHZsOQmFzkGeenpumv4DORtxVf0enal2ncfryNGL5hhId6Gh7ih0bvlzwH5r1h3XvY2G6dEnZ+vosUvmONXs239ew0f9ZMbwIQqdQ+zcdU4bNp404zSxbMUR1aw7RF9/s0nJyWlXIIG/ExoaaEZWCsvmjj8H7JWQkKxX31iqFm3HaNuOs+Y4TXz6xTozgg9R6BwivX/TiYtL0iuvL1GTlqPS9Lc44HrccsmVFTr40t59karXZJi+GrTRHKWpY8cvacWqo2YMH6HQOcTkab7Z27Z5yynVqPOdJk7eaY6ANBcY6K/Mme2/ocAtK42wS0qKNGjwJt3TaJh27jpnjtPF3Pn7zQg+QqFzgOMnLuvcuWgzTjdxcUnq//gsvf7WMi7BIt25YXXLLSuNsMep01fUttM4vfTaEsXFJZnjdLP5x/TZKoS/R6FzgC1bT5mRT3z+9QZ16DpBl6+k7h1RwPWEumD/GSt0SE+r1hxT3YZDHXG5c8fPEWYEH6HQOcCePb5ZKv8zy1Yc0T0Nfbd8D+/JkzuLGVkntwv+DLDDJ5+vU5uO4xQZGWOOfCI6OkFRUbFmDB+g0DnAxUtxZuRTh49cUMNmIzRzzl5zBKQ6N5ShwoVCzQhIVbGxieree4reeneF47bGnD5zxYzgAxQ6B7jiwEucsbGJ6vngNL3x9nJzBKQq21foMmfOqDAX7AOEc0VEROu+lqM0Z54zb0CIPO+M1UKvo9A5gNNW6H7rs6/Wq//js9L0gcfwNtsLne3vH862Z2+k6jYcmm7PlrsVly8792eYl1Do8LcmTt6prj0mKT7ed3dSwb1sv+Rq+/uHc/20/YzuazlKZ85eNUeO4u9PlXACvgoOkC0ksxk5zqIlh9S203hFRyeYI+C2FMgXYkZWYYUOaWHFqqNq3maMo6/gXBPGXd6OQKFzgJAQO/bfrF1/XK07jtNVSh1SUbFi2c3IKtwQgdQ2b8EBtek4zppfoMPCKHROQKFzAJseSrp5yym16TiOZ9Uh1RQqmE0ZMviZsTVKl8phRsAtW7TkkHr2nWrGjsYKnTNQ6Bwgf367Ljlt3nJK7TqPZ6UOqSJDBj8VsOzfwG+VKhluRsAtWbTkkLr1mqyEhGRz5Gi5cgWbEXyAQucAJYrb9wPh2krdlaus1OH2lSpp7yoXl1yRGhYuPqhO3SZaV+aKFQ0zI/gIhc4BbP0HsXnLKbXtxEodbl/pUvb9UiP9srpYqGA2MwZuyqIlh9S99xQztkLZMjnNCD5CoXOAPLmzKDDQ34ytcG2ljlKH22HrKlfxYtmt3v8H37P1Mus1ZUrbu7ruNhQ6h6hYIbcZWYNSh9tl640FlSra++8Wvrdi1VErL7P+Fit0zkGhc4gad+Y3I6ts3nJKXbpPUmKivR9M8B1bi1FlS983fG/7z2fVvZedl1l/qywrdI5BoXMI2wudJK1ee0yPPjXbjIG/lSd3FivvlKtUMY8ZAX/r8JELrripLHPmjFZfXXIbCp1DVHdBoZOkSVN26e33Vpox8LcqVbCvHNm6sgjfiYyMUdtO4xUVFWuOrFOnViGO/XIQvhIOUbhQNuXNk9WMrfTxZ2s1aux2Mwauy7bLl7lyBXPsF25KXFySOnabqCNHL5ojK9W7p4gZwYcodA7SuGExM7LWP56ep3UbTpgx8JdqVLdrlbocm8Fxk/o/NlNbfzptxtai0DkLhc5BGjcqbkbWSk5O0f09J+vEycvmCPhTtm07qHV3ITMC/tL7H63WjNl7zdhawcGZVLVKXjOGD1HoHOS+RsVd9UyrCxdi1anbRMXGJpoj4A/y5M5i1UN63XAjE9LH9Fl79P6Hq83Yao0bFJOfe35cuQKFzkGCgzPp7poFzNhqu3afU79HZ5ox8Kfq1i5sRo7k5yfdWS2fGQN/sGNnhPo/NsuMrdeyeSkzgo9R6BymeVP3/SOZPXefPvl8nRkDf2DLProK5XIpe/ZAMwZ+58zZq+rQZYLi45PMkdX8/TOoBYXOcSh0DtOhXVkzcoW33l2hZSuOmDHwO7YUujqWrCTCt7p0n6SzEVfN2HotmpZUSNbMZgwfo9A5TIH8Ia677HpNr75TdfjIBTMGflWpQm7lzxdixo5zTx0KHa7vpdeW6KftZ8zYFTq0L2dGcAAKnQN16lDejFzh0uV4de4+STEx3CSBv+b0RyFkypRB9zr8PcK3li0/rEGDN5mxKwQG+qtp4xJmDAeg0DlQ+zbuvOwqSfv2n9djHA+G63D68xjvqVNE2UK43IQ/FxkZo74uvhGsTavSCgryN2M4AF8VB8qRI0j3NS6uBYsOmiNXmDZzj0aO2aae3SubI3jMxUtxOn8+RpGR0bpwMU4R567qxMkrypDRT8lJKebLHcHphRO+9fATs3T+fIwZuwaf285FoXOo3j2quLbQSdILryzWvXWLqEjhUHMEFzh2/JIOHb6gQ4cv6PiJS4o4d1XnI2MUeT5Gkeejdf58rLWbxePikrRw8UHlypVFeXJnUb687jiyD7dv4LebtHjpITN2jWJFw9g/6mB+KSkpzvw12ONSUqSylb/WmbN2/tC7EZUr5tbieb2UKRNX/m20d1/kr6XtyNGL2n/gvA4dvqD9B86bL3W98PAg5c4VrPz5sql8uZwqUzqHypXJqXLlcilLcCbz5XChXbvP6d7Gw5SQkGyOXOPt1xvoqcdrmDEcgkLnYP95f6U++nStGbvKk4/V0H/eaGDGcIiTpy5r795I7dkXqb37zmvf/kgdOBjFkW43oVDBbCpbJqcqlMulMmV+KXply+RUYCAXSNwiNjZRtesP1cFDUebINTJm9NO+HU8qPDzIHMEhKHQOduLkZVWoNsiMXWfaxK6qfy93DfpKUlKKDh2O0t5957V3X6T2/K/A7dsXqctX4s2XIxX4+UlFi4SpXNlfyl35srlUtmxOlS4ZrsyZM5ovh8M999IifffDFjN2lU4dymnIoNZmDAeh0DlclwcmuXovnSTly5tV61c9xJ2D6eTwkQtateaYlq88ou07zmj3nkjzJfCh6nfm1901C6hmjQKqW6sQKyIOt27DCTVrPdqMXWfW1G6qW7uQGcNBKHQOt3L1UbXuMM6MXadzx/L6bmArM0YqOHzkglauPqrVa45p1ZqjOn6Cy6U2KV4su+6uWUB331VQte4qqFIlw82XwEdiYxNVo84QHTt+yRy5SrmyObV2eV8zhsNQ6CzQoOkI/bj1tBm7zuhh7TnwORUcPBSlVf8rb6vXHGO/m8uEhwfp7poFdFfNgqpVs6CqVsnDZVofefHVxfrmu81m7DrfftVSXTtXMGM4DIXOAjNm71WvvtPM2HXCwgK1afVDypkz2BzhOg4cjPplBW7tMa1afVSnTl8xXwIXCwjIqDuq5tNdNQuo1l0FdfddBRWaLcB8GVLZlh9PqWGzkWbsOnnzZNWOLY/K35+nETgdhc4S1WsP8cTjIJrdV0LjRnY0Y/zGvv3ntXrNMa383wrc6TMUOPxezRr51bJ5abVpWVrFioaZY9ym+Pgk1az7vSfOpv7vO430yEN3mjEciEJniRGjt+kfT88zY1fi0usfbd12RtOm79bUGbt15OhFcwz8pTKlc6hVi9Jq1byUqlXNa45xC159Y6m+GrTRjF0nLDRAu356gqO+LEGhs0RSUoqq1PjGExvaC+QP0Y/rH/b8vqAdOyM0ZdouTZ2+W4cOu38lAGkvf74QtWhWUq1alFbd2oW4jHYLvHKpVZJefr6unn+mthnDoSh0Fhk+apv++Yw3VumeGVBLr710jxm73oGDURo/6WdNmbbbE5fY4TthoQG6r0kJtWxeSo0bFudEixuQkiLVrDtE+/a7/99mYKC/dv/0uMLCAs0RHIpCZxEvrdL5+2fQpjX9VbSI+896PXT4giZM+llTZ+zmmXDwiaAgf7VuWVrdu1ZSvXuKyM/PfAUk6fthP+qZFxaasSt59Zdqm1HoLDNq7HY9OWCuGbtSvXuKaPqkrmbsCkeOXtTEyTs1dcZu/bwzwhwDPlOwQIi6da2kB+6vqKJFuKHimgsX41Sl+je6eCnOHLlOWFigfv7xMVZtLUOhs1DVmt/q8BFvbIwfNbS9WrVwxw0Sx45f0qQpOzV1+m5t23HWHAOOU+uugnqgWyW1a1NGWbN4+ySXZ19cqCFDfzRjV+LOVjtR6Cw0cfJO9X98lhm7UpHCofpp4yNmbI3k5BTNmbdfg7/frBWrjppjwArBwZnUpmVpdb+/ku6pU9hzl2T37ovU3ff+oORk9/+4LFwomzavfViZMnHDjG0odJaqXf8H7dx1zoxd6a3X6+sfj9c0Y0e7cDFOw0Zu1fdDf3T9sUDwlsKFsv3vkmwlFS6UzRy7UtNWo7V+4wkzdqUfvm2jDu3KmjEsQKGz1JJlh9Sh60QzdqWQrJm1fctjCgt1/tPvd++J1NffbNTEKTsVG5tojgFXqVOrkLrfX1FtW7v3kuz0WXvUu990M3alKpXyaPmi3mYMS1DoLNa203gtX3nEjF3pwd5V9ekH95mxIyQmJmvm7L0a/P0WrV1/3BwDrheSNbP69Kqixx+poXx5s5pjq1WoNsgz5yHPntZNdWoVMmNYgkJnsZ27zql2/R/M2LXWr+ynMqVzmLHPREbG6IfhP+qH4Vs5PxXQL48b6ti+nP711N0qW8Y5/1Zv1dffbNIrry8xY1dq07K0RvzQzoxhEQqd5fo/PksTJ+80Y1dyyjmv23ac1dffbNTU6bsVH59kjgFIalCvqP75RE3Vr1fUHFkhNjZRZasM1IULsebIdTJnzqgt6x5WwQIh5ggWodBZ7mzEVVWrOVhXoxPMkSutWNxHlSvmNuM0l5CQrKnTd+vb7zdr85ZT5hjAX6hUIbf+8URNtW9b1qqjxj75fJ3eeneFGbvSi8/V0YvP1jFjWIZC5wLffLdZL7662IxdqUmj4po4ppMZp5nExGSNGrNdH366xjP7aIC0UCB/iB5/pIZ696zs+BsoLl6KU6U7BunS5Xhz5DoF8odoy7qHFRDg7bOz3YBC5xL1mwzX1m1nzNiV0mOVLiXll+f9vffhKh06fMEcA7hF2UIyq2/vanrskerKkzuLOXaEd/67Sh9+ssaMXWnk0HZq3aK0GcNCFDqX2LX7nOo0GOqJB182rF9MU8Z3NuNUM3POXr3731Xatdsbz/kDfCFTpgzq3KG8/vWPu1WqZLg59pmoqFhVuGOQoj2wjcXNxyt6kT0bGnBd5crm1BOPVjdjV1qy7JA2bT5pxrdt8dJDqn/fCPV8cBplDkhjCQnJGjN+h2rUGaI+/ac7ZiX80y/WeaLMSdKH7zU2I1iMFToXiYlJ1F33DNHRY+4/maBFs5IaM7yDGd+SjZtO6rU3l2rdBm88CR5woowZ/dSrRxW99Fwd5c7lm0ux58/HqHy1QZ54KPiz/6qlV1+8x4xhMVboXCQoyF9DBrXxxDmLc+bt1/4D5834pvy0/Yw63j9RTVqOoswBPpaUlKKhw7eqSo1v9fZ7K31yQ8L3w370RJkrVjRMzz9d24xhOQqdy9SskV/PDKhlxq706RfrzeiG7Nt/Xj0fnKZ6jYdr8dJD5hiAD8XEJOrjz9aqSo1v9NWgjen2rMf4+CR9+/0WM3alIYNaK3Nm7mp1GwqdC730XF1VrZzHjF1n3MQdN3VCw+EjF/XwE7NUs+4QzZyz1xwDcJCoqFi9+sZSVbtrsEaP257mN3xNmLxT585Fm7HrPPV4Dd15Rz4zhguwh86lDhyMUp0GQ11/+eAfj9fUW6/XN+PfOX3mit7/cLVGjd2uxMRkcwzAAmXL5NDrr9RT86YlzVGqqF57yG1v43C6ShVya+mCXlY94Bk3jkLnYj8M36qnn19gxq6SLSSz9u986k8vH8THJ+mzL9frky/Wub7YAl5x5x359M6bDXV3zQLm6JYtXX5Y7btMMGNXCQry17oV/VSkcKg5gktQ012sb++qatWilBm7yqXL8Zo6fbcZa/HSQ6pZ93u9+8EqyhzgIpu3nFKz1qPVqdtE7dkbaY5vyVeDNpqR6wz8vAVlzuVYoXO5K1fjVbPO9zp5yr3HVtW6q6DmzuguSTp+4rJeeGWRZs/dZ7wKgNtkzOinxx+prpeeq6vg4Ezm+IbsP3Be1WsPMWNX6d61ogZ+0cKM4TKs0Llc1iyZNWpoO2XM6N5nmaxdf1y790Tqw0/WqHrt7yhzgEckJaXoy4EbVaPOEM2ac2v/7keN3W5GrlKsaJg+er+JGcOFWKHziM++Wq833l5uxq6RLSRAly7HmTEAD2lYv5i++KSZChYIMUd/KiVFKldloE6fufG75W0SEJBRyxf2UdkyOcwRXIgVOo8Y8ORdql+vqBm7BmUOwJJlh1Sjznf69It1N3RH+8rVR11b5iTpg3ebUOY8hELnIUO/baN8ebOaMQC4RkxMot58Z4XuvvcHrd94/RNgxk/82Yxco22rMurdo7IZw8W45OoxP249rcYtRiopiS87APfr1qWi3nmzgcLDg36Xx8Ymqni5LxUdnfC73A2KFQ3T6qUP3vKNIrAThc6D3L6fDnYKDPRXjvAg5QgPUlhYoAID/RUclElBQZkUGOSv4CB/BQVlUnBQpt/M/BUUnElBgf4KCPBXTEyCYmITFRubqJjo3/z32ETFxiYoJibxl//EJvySxyQqJiZBp89c1dmIq6784Q4pLDRAb73eQL0e+P8Vq8lTd6nfozN/8yp3CAry17IFvVWmNJdavYZC51Ed75/IOaZIc0UKh6pY0TCFhwcpPHuQcuQI/rW05cgRrOzZA5UjPPiGN7Gnh8NHLujs2WidibiiiIhonTn7S9mLiLiqc+eidfrMFZ2NiKb8Waj23QX17detVKhgNnXtMVnzFx4wX2K97wa2UueO5c0YHkCh86hLl+N1b6OhOnzkojkCbkpQkL9KlQhXqVI5VLpkuEqXyqHSpXKoZIlwBQT88QQPt4iKitWuPee0Z8857d4bqT37IrVnz7mbOl8Y6S8ka2a9959G+tdz85WQ8Pc3TtjkoQer8YgSD6PQedj+A+dVr/FwXWWlATcgMNBfVSvnUdkyOX8tbaVKhvP0ecOly/Havfuc9uw7pz17I7Vnb6R27zmnY8cvmS8FUs1dNQpozvTurn7mKK6PQudxi5YcUqduE80YUPFi2VWzen7VqJ5f1e/Mr4rlc/PD4jZcvhKvjZtOaP3Gk1q/8YQ2bz6py1fizZcBN61A/hCtXvqgwsICzRE8hEIHffDxGr37wSozhoeEZM2sO+/IpxrVC6jGnflV4878yp6dHw5pKTk5RTt3n9OGjSe0fuMJrd9wQoePXDBfBlxXYOAvN0HwvDlQ6CBJ6v/4LE2cvNOM4VJhoQFq0riE6tYurOp35FOF8rnMl8AHzp2L1toNx7Vx40mt23hcGzaeNF8C/M6E0Z10X+PiZgwPotBB0i+rBR3vn6ilyw+bI7iAn59UtUpeNWlUXE0aFtedd+RThgxcPnW6uLgkLV95RPMW7Nf8hQd04uRl8yXwsCGDWqtTh3JmDI+i0OFXcXFJat1xLKsCLpE9e6Aa1i/2a4nLkeP3D1aFfbb/fFbz5u/XvIUHtHnLKXMMD/nkg/vUt3dVM4aHUejwO1euxqtZq9HasTPCHMECv12Fq34nq3BuFhkZo7kL9mv+ggNasuwQd6t7yCsv1NVzT9c2Y3gchQ5/EBUVq8YtRurAwShzBAeqUD6XOncsr66dKnBWr0clJCRr5eojmjv/gOYv3K+jx3hEils92v9Ovf+fRmYMUOjw506cvKymrUbp+An27DhRgfwh6tyhvLp1rcgRP/iDzVtOafS47ZoybZcuXIwzx7BU964VNfCLFmYMSKLQ4ToOH7moBk2HKyoq1hzBB0KzBaht6zLq3LG86tYuLD+upuJvxMcnac68/Ro9brsWLz2k5GQ+7m3VpmVpDRvSlm0U+EsUOlzXjp0RatFmtC5d5gGovpA5c0Y1bVxCnTuVV7MmJZQ5s3uP0kLaioiI1tiJOzRm3Hbt3hNpjuFgjRsW06Sxnc0Y+B0KHf7WT9vPqHX7sZS6dFSnViF17lhe7duWVWi2AHMM3JYft57WmPE7NHHKTl24wAq8k9WvV1TjR3Z09bnISB0UOtyQH7eeVpuO4ziqKA1lCc6k7vdX0hOPVlfRImHmGEh1CQnJmjN/n8aO36GFiw8qKYkfB05Sv15RTRzdSZkyZTBHwB9Q6HDDWKlLGwULhKh/vzvVp2cVVuPgM6dOX9HAbzdq2Iif+MXNAShzuFkUOtyUrdvOqF3nYfVNZAAAIABJREFU8VymSQXV78yvxx+urraty3DoPRzj0uV4DR2xVd8M3qRTp6+YY6SDls1LafSw9mYMXBeFDjft4KEotWg7VqfP8GF/szJm9FPrlqX1zyfuUrWqec0x4BgJCcmaOGWnvhy4Qbt2nzPHSCMd2pXVkEGtuZsVN41Ch1ty7Pgltek4TocOXzBH+BOh2QLUq0dlPdq/ugrkDzHHgKMtXHxQX3y9QStXHzVHSEUP97tDH7zb2IyBG0Khwy2LiIhWw2bDdew4Dx/+K8WKhunR/neqZ/fKCg7OZI4Bq/y0/Yw++3K9ps/cwzPtUtnrr9yrf/3jbjMGbhiFDrfs7fdW6uPP1poxJBUvll0vPltHnTqU49IJXOfosUv6atAGjRq7XdGcIXtbsoVk1g+D26pxw2LmCLgpFDrctKSkFD361GxNnLzTHHlekcKheu7p2urWpSI3OsD1IiNj9NFna/X9sB8VH59kjvE3ypbJobEjOqpYUR5ThNtHocNNuXwlXj0fnKplK46YI08rWCBEzw6orR7dK8nfn8cMwFtOnrqsd95fpbETdnAp9gbd37mCPv7gPmVhKwZSCYUON+zM2atq22kcxwb9Rt48WfXMgLvVu0cVjuWC5x08FKU33l6uGbP3miP8T1CQvwZ+3kLt25Y1R8BtodDhhuzbf15tO43XyVPcACFJuXIFa8CTd+uhB6txJA9g+Gn7Gb3+9nItW37YHHlahbK5NHJYOxUvlt0cAbeNQoe/tW7DCXXpPpETIiSFhQbo6QG11P/BOxQU5G+OAfzGqjXH9OobS7X1p9PmyJNKlcyh2dPuV+5cWcwRcNsodLiu2XP36cGHZ7DhWVLP7pX15mv1FB4eZI4AXMfsufv09nsr2K4hqWiRUM2Z3l358/E8SqQuCh3+0oRJO/XIk7Pk9e+QKpXy6JMP7tOdd+QzRwBuwsgx2/Tq60t18VKcOfKUokVCNWNyNxUulM0cAbeMQoc/RZn75fLqay/fq769q8mPJ5AAqSIyMkavvblUY8bvMEeeki9vVs2d0V1Fi/DIEqQOCh3+gDLH5VUgra1Zd1xPDpirg4eizJFn5MoVrDnTuqtUyXBzBNw0Ch1+x+tljsurQPqJj0/S51+t10efrVVcnDf36YaHB2n21G4qVzanOQJuCoUOv/JymePyKuA7h49c0FP/mqeVq4+aI08ICw3QjCndVLlibnME3DAKHSR5u8xxeRVwhklTdumlfy9WRES0OXK9kKyZNX1SV91RjasDuDUUOni2zOXLm1VDvmmtOrUKmSMAPnLxUpxef3uZho34yRy5XpbgTJoyoYvuqlHAHAF/i0LncV4tc107V9CH7zVRtpDM5giAA6xee0wP9p+hsxFXzZGrBQX5a/bUbqzU4aZR6DzMi2Uue/ZAff5xM7VpWdocAXCYCxfj9NSAuZo5x1tnw4ZmC9C8mQ9wowRuCoXOo7xY5ho1KKZvvmypXLmCzREABxs/8Wc9++JCXb7ineMHc+YM1rIFvVWwACdK4MZQ6DzIa2UuKMhfb7/eQA89WM0cAbDE0WOX9NBjM7Rh40lz5FpFi4Rq4eye/BKKG0Kh85g58/brgT5TPFPmqlXNq6GD2/A0dsAFkpNT9OkX6/Teh6uVmJhsjl2pbJkcmjezh8JCA8wR8DsUOg/ZvOWUmrUZrYQE938QZszop+eerq3n/lVbGTPyYDnATX7afka9+03T4SMXzZErVauaV3Ond1dgoL85An5FofOIQ4cvqH6T4Z44FDt3riwaO6IDpz0ALhYdnaBX3liqocO3miNXalCvqCaO6SR//wzmCJBEofOE8+djdG/jYTp+4rI5cp2aNfJrzLAOypmTPSeAFyxackj9H5+pqKhYc+Q6bVqW1rAhbZUhA1cd8EdUfZeLjU1Uu87jPVHmHu1/p+ZOf4AyB3hI44bFtHZ5X1WtnMccuc6M2Xv15IC5ZgxIYoXO1ZKSUtTlgUlavPSQOXKVwEB/ffNVS7VrXcYcAfCI+PgkPfLkbE2dvtscuc6Ap+7SG6/WM2N4HIXOxR5+YpYmTNppxq5SpHCoJozupDKlc5gjAB40aPAmvfL6UiUnu/tH2+cfN1PvHpXNGB5GoXOpjz9bq7ffW2nGrtK4YTEN/a6tQrJyfBeA/7dm3XF16znZ1TeBZcjgpznTu+vumpz7il9Q6Fxo2ow96tN/uhm7hp+f9OqL9+iZAbXMEQBI+uVBxF0emKjdeyLNkWuEhQZo2cI+Klok1BzBgyh0LrN2/XG1aj9WSUnu/LKGhQVq1ND2qlu7kDkCgN+JiUlUn/7TNX/hAXPkGiWKZ9fSBb2VLYQrFV7HXa4usnPXOXXuNsm1Za5okTCtWNSHMgfghgQF+Wv8qI565YW65sg1DhyM0gO9p7h+zyD+Hit0LnHq9BXd23iYIiKizZErVK2SV1PHd1H27IHmCAD+1uKlh9Sz7zRFRyeYI1d4tP+dev8/jcwYHsIKnQskJCSr4/0TXFvmGjcspnkzulPmANyyRg2KafnC3q491/mb7zZr/MSfzRgeQqFzgWdfXKCdu86ZsSv06FZJE0Z34gxDALetVMlwLVvY27UPIX5iwFyt23DCjOERFDrLTZy8U8NHbTNjV3jpuTr66rPmHHMDINWEhQZo9vTuqndPEXNkvcTEZN3fY5IOH7lojuAB7KGz2M87I9Sg6QjFxyeZI6tlyOCnb75sqS6dypsjAEgVCQnJ6v3QNM2Zt98cWa9E8exavqi3smbhzlcvYYXOUleuxqtrj0muK3NBQf6aMq4zZQ5AmsqUKYNGDW2vzh3d91lz4GCUevWdzp2vHkOhs1Tfh2fo+InLZmy1HDmCNH9WD9WvV9QcAUCqy5DBT4O/bqXHHq5ujqy3ZNkhvffhajOGi1HoLPTZl+u1YNFBM7Za7lxZtHB2D1WumNscAUCa8fOT3nu7oV576R5zZL0PP1mjZSuOmDFcij10ltm46aTuazVKbvqq5c6VRfNmdlfxYtnNEQCkm++H/ahnXlhoxlYLDw/S2uV9lSd3FnMEl2GFziIREdHq1nuKq8pcjhxBlDkAjtCvTzUN+66tMmZ0z53158/HqHe/aeyn8wAKnSWSklLUrfcUnTvnnocH58gRpLnTKXMAnKNdmzIaPqSdqx6XtG7DCb3/Efvp3I5CZ4nX3lyqTZtPmrG1rpW50qVymCMA8KlWLUppyKDWZmy1Dz5mP53bUegsMH/hAQ38dpMZW4syB8DpOrQrq88+amrGVuv7yAydOXvVjOESFDqHO33mih56dKYZW4syB8AWfXpW0QfvNjZja13bT+emfdj4fxQ6h3vo0Zm6fCXejK1EmQNgm4f73aFXX3TPI03WbTih/37Mfjo3otA52DffbdaqNcfM2EqUOQC2evZftfTU4zXM2Fr//Wi11q4/bsawHM+hc6hDhy/o7nu/V1yc/Ud7UeYAuMGzLy7UkKE/mrGVcufKojXLHlTOnMHmCJZihc6BkpNT9GD/6a4oc8HBmTRj0v2UOQDW++j9JurauYIZW+lsxFX989n5ZgyLUegc6KNP12rrtjNmbJ0MGfw0Zlh7VSifyxwBgJUGfdFC7duWNWMrzZ67T5On7jJjWIpLrg6zY2eE6jUepqQk+78sA79ooe5dK5oxAFgtKSlFvfpN0+y5+8yRdcLCArVx1UPKlYtLr7aj0DlIQkKyBjw3XydOXjZH1unUvqx6dKtsxgDgComJKXrptUXadyDKHFnnzqp59drL95oxLEOhAwAAsBx76AAAACxHoQMAALAchQ4AAMByFDoAAADLUegAAAAsR6EDAACwHIUOAADAchQ6AAAAy1HoAAAALEehAwAAsByFDgAAwHIUOgAAAMtR6AAAACxHoQMAALAchQ4AAMByFDoAAADLUegAAAAsR6EDAACwHIUOAADAchQ6AAAAy1HoAAAALEehAwAAsByFDgAAwHIUOgAAAMtR6AAAACxHoQMAALAchQ4AAMByFDoAAADLUegAAAAsR6EDAACwHIUOAADAchQ6AAAAy1HoAAAALEehAwAAsByFDgAAwHIUOgAAAMtR6AAAACxHoQMAALAchQ4AAMByFDoAAADLUegAAAAsR6EDAACwHIUOAADAchQ6AAAAy1HoAAAALEehAwAAsByFDgAAwHIUOgAAAMtR6AAAACxHoQMAALAchQ4AAMByFDoAAADLUegAAAAsR6EDAACwHIUOAADAchQ6AAAAy1HoAAAALOcvSQ89NlOTpuwyZ44QFhqgw3v/acbWWLb8sNp1mWDGjjF6WHu1bF7KjB1t3oIDur/nZDNGGhs1tL1atbDje2Xu/P3q1muKGTvG1Ald1KBeUTNGOjp56rLKVx1kxjfN3z+DfhjcRm1aljZHcJG9+yLVvssEnTh52RzdtC8/baae3Sub8W1jhQ4AgFuUmJisXn2nafD3W8wRXGLzllNq0mJUqpS5tEShAwDgNj3/8iK99e4KM4blliw7pJbtx+ripThz5DgUOgAAUsEnn6/TY0/NUXJyijmChSZP3aXO3ScpNjbRHDkShQ4AgFQydsIOdes1RXFxSeYIFhn8/Rb1e3SmkpLsKecUOgAAUtH8hQfUpuM4Xbjo/Mt0+KPX31qm519eZMaOR6EDACCVrd94Qk1ajNTpM1fMERwqMTFZjz01R59/vcEcWYFCBwBAGti3/7waNRupg4eizBEcJiYmUZ27T9LYCTvMkTUodAAApJETJy+rUfOR+mn7GXMEh7hwMU4t24/V0uWHzZFVKHQAAKShqKhYNW8zRitWHTVH8LHTZ66oSYuR2vLjKXNkHQodAABpLDo6QR26TtDkqc48lcmLDh6KUqNmI7Vv/3lzZCUKHQAA6SAxMVn9Hp3JqRIO8NP2M2rUfKTjT3+4GRQ6AADS0fMvL9Kb73CqhK8sWXZIzduMUVRUrDmyGoUOAIB09ukXnCrhC9dOf4iOTjBH1qPQAQDgA5wqkb5sPP3hZlDoAADwEU6VSB9vvrPCytMfbgaFDgAAH+JUibSTnJyix56ao0+/WGeOXIdCBwCAj3GqROqLi0tSt15TrD794WZQ6AAAcABOlUg9Fy7GqU3HcZq/8IA5ci0KHQAADnHtVIklyw6ZI9yga6c/rN94why5GoUOAAAHiY5OUOfukzhV4ha47fSHm0GhAwDAYZKSUjhV4ia58fSHm0GhAwDAoZ5/eZHe+M9yM4Zhxaqjrjz94WZQ6AAAcLDPvlzPqRLXMWP2XnXoOsGVpz/cDAodAAAOd+1UiZiYRHPkaYO/36JefacpMTHZHHkOhQ4AAAvMX3hALduP5VSJ/3n7vZWuP/3hZlDoAACwxJYfT3n+VIlrpz98/Nlac+RpFDoAACzi5VMlvHb6w82g0AEAYBkvnipx+Uq8505/uBkUOgAALOSlUyUiIqLVtNUoz53+cDModAAAWMoLp0ocPBSlRs1HaOeuc+YIv0GhAwDAYm4+VeLa6Q9Hj10yRzD4S5Kfn5+ZO4eT35sLZMjA329qq1A+l8JCA83YejlyBJmRYzn6M02Ss9+dN7jxs+/5lxfpxIlLevPf9c2RlVasOqr7e072/AODb5S/JKWkOPjp005+by7Ak8dT31v/rq9GDYqZMdKRoz/TJDn73XmDWz/7Pv96g85GROvLT5vJ39/ei3AzZu9V34dn8MDgm2DvVxsAAPzB2Ak71Ln7JGtPlRg28idOf7gFFDoAAFxm6fLDVp4q8e4HqzTg2flmjBtAoQMAwIVsOlUiJUX65zPz9MHHa8wRbhCFDgAAl7LhVIm4uCT16jtNw0dtM0e4CRQ6AABc7NqpEpu3nDJHPnft9IeZc/aaI9wkCh0AAC4XFRWrlu3HOupUCU5/SF0UOgAAPCA2NtExp0ocOXqR0x9SGYUOAACPcMKpEj/vjOD0hzRAoQMAwGOef3mRXnptiRmnuXUbTqhpq9E6dy7aHOE2UegAAPCgQYM3qc9D05WUlD6nZsyYvVdtOo7Tlavx5gipgEIHAIBHTZu5Rx3vn5Dm56VeO/0hPj7JHCGVUOgAAPCwZSuOqGmr0YqKijVHqeL9j1Zz+kM6oNABAOBx238+qwZNR6TqjQrXTn94/8PV5ghpgEIHAAB0+MgFNWg6XLt23/6jRBISkjn9IZ1R6AAAgCQpMjJGTVqM0qo1x8zRDbsanaAOXSdw+kM6o9ABAIBfXbkar3adx2v23H3m6G9FRESreevRWrn6qDlCGqPQAQCA30lMTNYDfabq+2E/mqO/dO30h207zpojpAMKHQAA+FPPvLBQb727woz/gNMffI9CBwAA/tInn69T/8dnKTn5zx9AzOkPzuAvSX5+fmbuGDGxiXrP4lueDx+5YEaO4uSvva34KwXgNhMn71RUVIxGDW2vwED/X/N5Cw6oVz8eGOwE/pKUkvLnrdsJ4uKS9N+P7C10Tufkr72t+CsF4EaLlhxSszZjNH1SV4VmC9CY8Tv0xD/n8JnnEP9fswHAJZy+8uzsd+cNGTLwVbgVW386rSYtRqll81L69It15hg3IK2+9yh0AFzH6SvPzn533vBX+8Hw9/bui9TefZFmjBuUVt97jt9Dh7SVVr8peNm/31qmTz639zfXMSM6KDRbgBlbxemfac5+d97AZx/cxvF76JC20uo3BS/7eWeEGVklwQWbm53+mebsd+cNfPbBbXhsCQAAgOUodAAAAJaj0AEAAFiOQgcAAGA5Ch0AAIDlKHQAAACWo9ABAABYjkIHAABgOQodAACA5Sh0AAAAlqPQAQAAWI5CBwAAYDkKHQAAgOUodAAAAJaj0AH4HT8/PzOyjtP/DM5+d97g9O+RwoWymRFu0H2Ni5uRo6TV9x6FDsDvpKSkmJF1nP5ncPa7gxPcUTWfZk3tpqAgf3OEvxAY6K8p4zurZfPS5shR0urziUIHAIAD1a1dSPNn9VBYWKA5giE0W4BmT+2mhvWLmSPPoNABADwnrVZJUsu1t1e5Ym4tnd9LhQpyCfav5MmdRQvn9NCdd+QzR55CoQMAwMGKFQ3T0vm9VLZMDnPkecWKhmnxvF4qXYq/GwodAAAOlzNnsBbO6aka1fObI8+qXDG3Fs/tqYIFQsyRJ1HoAACwQEjWzJo1pZtaNCtpjjznnjqFNXfmAwoPDzJHnkWhAwDAEgEBGTV6WAf16FbJHHlG6xalNWV8F2UJzmSOPI1CBwCARfz8pK8+a65XXqhrjlyvd4/KGvFDO2XKRH0x8TcCAICFnnu6tgZ/3Upp9Jxax3npuTr6/ONmnvnz3iyeWAgAgKW6dCqv7NkD9UCfqYqPTzLHrvHZR03Vp2cVM8ZvsEIHAIDFmjQqrllTuilbSGZzZD1//wwa8UM7ytwNoNABAGC5mjXya/G8XsqdK4s5slZwcCZNGd9FbVo6+ygvp6DQAQDgAqVKhmvpgl4qWSLcHFkne/ZAzZ3RXffWLWyO8BcodAAAuESB/CFaPK+nqlbJa46sUSB/iBbP7akqlfKYI1wHhQ4AABcJzRageTO6q/69RcyR45UqGa7F83qqeLHs5gh/g0IHAIDLBAb6a/K4Lurcsbw5cqw7quXTwjk9lTdPVnOEG+AvSX481MWz+Nqnvi6dyqtYUXt/uwx2wdPXnf597ex35w2O/x5JhbeXMaOfvhvYSvnyZNUXAzeYY0dpUK+oxgzvoKAgnqZ2q/wlKSUlxczhEXztU1/XThXUqEExM0Y6cvr3tbPfnTc4/nskFd/eW6/XV5EioXrmhYXmyBE6tCurwV+3kr8/Fw1vB397AAC4XL8+1TR6WHvHlab+fe/Q99+0cdz7spHj1zbDQgN0eO8/zdgay5YfVrsuE8wYAIB01bJ5KU2b2FWdu09UTEyiOU53b7xWTwOevMuMcYuoxAAAeETd2oU0f1YP5cgRZI7SjZ+fNPCLFpS5VEahA+A6jt/wbgZId47/HknDt1e5Ym4tmtNTRYuEmaN0MWZ4B3XvWtGMcZsodABcx/Eb3s0A6c7x3yNp/PaKFQ3Tojk9VKlCbnOUZrJmyax5Mx9Q86YlzRFSAYUOAAAPypkzWPNnPaA6tQqZo1R37f/r7poFzBFSCYUOAACPCg7OpGkTu6pd6zLmKNUULpRNi+f2VIXyucwRUhGFDgAAD8uUKYOGDWmrvr2rmqPbVr5cTi2e20tFCoeaI6QyCh0AANAnH9ynN16rZ8a37K4aBTR/Vg/lyhVsjpAGKHQAAECSNODJuzT461bKkOH2brNt2qSEZky+XyFZM5sjpBEKHQAA+FWXTuU1ZVxnBQRkNEc3pFuXiho7osMt/+9xayh0AADgd+rXK6p5Mx5QWFigObqup/95twZ92eK2V/hw8yh0AADgD6pVzaul83spf74Qc/SnPni3sf798r1mjHRCoQMAAH+qWNEwLV3QS2XL5DBHv8qY0U/ff9NaD/e7wxwhHVHoAADAX8qTO4sWzumpGtXzmyMFBvpr4phO6ti+nDlCOqPQAQCA6wrJmlmzpnRTi2b/f2xXaLYAzZ7aTQ3rF/vNK+ErFDoAAPC3AgIyavSwDurRrdL/Vu166M478pkvg4/4mwEA2M7Pz9l32Dn73XmD0+/C9HPocoufn/TVZ811/nyMwsODzDFuQFp9PlHoACCdbf85Qhn9HfoT+zYULhTKEU8eQZm7dSkpKWaUKih0AFwnrT4wU8trby41I1d47unaeuWFumbsSMnJzv4eSUk2E+D63PcrIgAAgMdQ6AAAACxHoQMAALAchQ4AAMByFDoAAADLUegAAAAs5y+l3UPuUoWT35sLOP3hmjb691vL9Mnn68zYeq++dI9q3VXQjB3J0Z9pLmbTX7vTP/uc+mBhOJe/5PBnNjn5vbmA05/FZKOfd0aYkStERsaYkWM5+jPNxWz6a3f6Zx/PocPN4ncAAAAAy1HoAAAALEehAwAAsByFDgAAwHIUOgAAAMtR6AAAACxHoQMAALAchQ4AAMByFDoAAADLUegAAAAsR6EDAACwHIUOAADAchQ6AAAAy1HoAAAALEehAwAAsByFDgAAwHIUOgAAAMtR6AAAACxHoQMAALAchQ4AAMByFDoAAADLUegAAAAsR6EDAACwHIUOAADAchQ6AAAAy1HoAAAALEehAwAAsByFDgAAwHIUOgAAAMtR6AAAACznL0ltWpVRieLh5swRggL9zcgqRYuG6YVn65ixY5QulcOMHK9kieyO/jt1q9KlnPkZ8WdKlQzne8QH6tQqZEaOFRIS4OjvkXJlcpoRblCVynkc/bWtXCmPGaUKv5SUlBQzBAAAgD245AoAAGA5Ch0AAIDlKHQAAACWo9ABAABYjkIHAABgOQodAACA5Sh0AAAAlqPQAQAAWI5CBwAAYDkKHQAAgOUodAAAAJaj0AEAAFiOQgcAAGA5Ch0AAIDlKHQAAACWo9ABAABYjkIHAABgOQodAACA5Sh0AAAAlqPQAQAAWI5CBwAAYDkKHQAAgOUodAAAAJaj0AEAAFiOQgcAAGA5Ch0AAIDlKHQAAACWo9ABAABYjkIHAABgOQodAACA5Sh0AAAAlqPQAQAAWI5CBwAAYDkKHQAAgOUodAAAAJaj0AEAAFiOQgcAAGA5Ch0AAIDlKHQAAACWo9ABAABYjkIHAABgOQodAACA5Sh0AAAAlqPQAQAAWI5CBwAAYDkKHQAAgOUodAAAAJaj0AEAAFiOQgcAAGA5Ch0AAIDlKHQAAACWo9ABAABYjkIHAABgOQodAACA5Sh0AAAAlqPQAQAAWI5CBwAAYDkKHQAAgOUodAAAAJaj0AEAAFjO3wzgHGPG79CEyTvN2EohWTLpzX/XV/Fi2c0RADjegkUHNXDwJjO2kp+kt/5dX5Uq5jZHsJhfSkpKihnCGZKTU9Sk5Sht3nLKHFkpJGtmzZ7eXZX5EAFgkSnTdqvvIzPM2FovPFtHLz1Xx4xhOQqdwx0/cVl1G/ygCxfjzJGVQrJm1vRJXXVHtXzmCAAcZ9acferVb5qSk93xo/KuGgU0d0Z3ZcjgZ45gOfbQOVzBAiH69utWZmyty1fi1brDOK3feMIcAYCjLFt+WL0fck+Zy549UCOHtqPMuRSFzgJNm5RQvz7VzNhaV6MT1LbTeEodAMdauPiguvSYrKQkd5Q5SRo+pJ1y58pixnAJCp0l3nmzgcqVzWnG1oqNTVTbTuO1cvVRcwQAPjV77j7d33Oy4uOTzJG1nnu6tu6tW9iM4SLsobPI/gPnVafBUMXFuedDJnPmjJo8rrPuqcMHDQDfmzBppx55cpbc9JORfXPewAqdRUqWCNeH7zUxY6vFxyep4/0TtXT5YXMEAOlq5JhtevgJd5U59s15B4XOMr0eqKxOHcqZsdXi45PUufskSh0Anxn47SY99a95Zmw99s15B4XOQl9/1kJVKuUxY6slJiarc/dJmr/wgDkCgDT1349W6+V/LzFj6z0zoBb75jyEPXSWOnX6imrV+0EXLsSaI6tlzOinMcM7qGmTEuYIAFLdS68t0SCXnADxW+yb8x5W6CyVL29WjR7W3nX/WJOSUtS99xTNnLPXHAFAqklKSlHfR2a4ssyxb86bKHQWq1OrkN55s4EZWy8pKUW9+03X19+474MWgO9duRqvdp3Ha8q03ebIev7+GTR+ZCf2zXkQl1xd4KHHZmrSlF1m7AqdO5bX1581V+bMGc0RANy0k6cuq32XCdqzN9IcucJ3A1upc8fyZgwPoNC5QFxckho0Ha6du86ZI1eoVjWvJozqpFy5gs0RANywHTsj1L7LeEVERJsjV3hmQC299tI9ZgyPoNC5xLHjl3RPo2Guu0nimrx5smr86I6uu7sXQPpYvPSQejw4VTExiebIFdq0LK3h37eTH9vmPIs9dC5RqGA2TRjVybWXJk+fuaL7Wo7StBl7zBEAXNewkT+pU7eJri1zVavk1XeDWlPmPI5C5yJSUybEAAAgAElEQVQ1a+TXd4NambFrxMUlqU//6XrznRWuepI7gLSRkiK99uZSDXh2vms/M/LnC9HksZ0VEODOX+Zx47jk6kIffrJG7/x3lRm7SpNGxTX0uzbKmiWzOQIAXb4Sr54PTtWyFUfMkWsEB2fS0vm9VKZ0DnMED6LQuZSb73y9plTJcE0a21lFCoeaIwAetmdvpLo8MElHjl40R66RIYOfJo/rrAb1ipojeBSXXF1q0BctVadWITN2lX37z6te42FateaYOQLgUdNm7lG9JsNdXeYk6YtPmlHm8DsUOpfKlCmDxo7sqNKl3L0Uf+FinNp2Gqdvh2w2RwA8JDExWc+8sFB9Hpqu2Fh33vxwzSMP3ake3SqZMTyOS64ud+LkZd3TaJjOn48xR67zwP2V9PnHTeXvz+8pgJecOXtV3XpN0ZYfT5kj16lfr6imjOvMsV74AwqdB/y49bSatx3j+t9apV/u9B03oqPCw4PMEQAXWr/xhLr3nqLISPf/0lq6VA4tXdBLWYIzmSOAS65eUK1qXo0b0UGZMrn/y71h40nVvOd7LVpyyBwBcJHExGS9/d5KNW8zxhNlrljRMM2ccj9lDn+JFToPWbDooB7oM0UJCcnmyJX69ammt1+vr2A+AAFXOXAwSg/2n65tO86aI1cqXCibFs7pqTy5s5gj4FcUOo9ZsOiguvWarKQkb3zZixYJ1Q/fttEd1fKZIwAWGjL0R7325lLXnvpgyp8vRAvn9FCB/CHmCPgdCp0HzZqzT70fmuaZUpcxo5+ef7q2nhlQixsmAEtFRETr0adma/FS72ynyJ8vRHNndOdZm7ghFDqPmjVnn3r1m6bkZO98+StXzK2h37VVieLZzREAB5s7f78e/+ccRUXFmiPXyp0rixbO6UGZww2j0HnYlGm79dBjMz1V6oKC/PXOmw3Vt3dVcwTAYa5cjdeLryzWqLHbzZGr5c6VRfNmdlfxYvzyiRtHofO4KdN2q9+jM1x7cPVfqXdPEQ0Z1Fq5cgWbIwAOsOXHU+r90HQdO37JHLlajhxBWji7B2UON41CB42b+LMefXK2Gbte9uyBGvh5CzVvWtIcAfCRK1fj9dY7K/TdD1s894tmjhxBmju9u+tP+EHaoNBBkjRs5E8a8Ox8M/aENi1L67/vNla+vFnNEYB0NHX6br302hKdPnPFHLleWFigFsx6gDKHW0ahw6+8XOqCgzPp+Wdq68lHa3AnLJDOjp+4rMf/MVsrVh01R56QLSSz5s54QBXK5zJHwA2j0OF3Bn+/Rc+/vMiMPaNkiXB9/nFT1alVyBwBSGWJicn6/Kv1+vDTtZ44mvDPZAvJrBlTuqlq5TzmCLgpFDr8gddLnSR16lBO77z5f+3dd1SVV9oF8E3n0juIoiggoKAoxYIGe40NC7bYW5wUJ5o4yZc6cSZmMknGTMpo7CW2qDEmUdGoo9hr7A27KKBIF5Dy/WHiJMfERrnnnLt/a7lmZT83GVkLuPue933PacOd2Ykqye69V/GnF9fibHKGODIZ9nZW+H71QJY5qhAsdPS7Pvl8D958Z4sYmxRHB2u8NrkFxoyMhIWFmTgmoieQkXEbr7+9GV8tPSqOTIq9nRVWf52AqEhfcUT0RFjo6A+x1N0VXNcdn0/rgsjGPD6MqDwWLzuK197cZFIbBP8eOzsrrFzaD01jqosjoifGQkcPNGvuQUz6ywaT2z7g9wzqH45332oFNzeDOCKiB1i/IRl//ftWHDueLo5MjpubASuX9EVEQx9xRFQuLHT0UOs3JGPoqNUme9Pyr7k422DCC00xdmQkDAZLcUxEv3Lw0HW88c5mJO24LI5Mkn8tF6z+OoHHeVGlYKGjR3L4aBr69F+OtPQ8cWSSvL3s8fJLzTF0cENYWXGbE6JfO5ucgXembMWaH06LI5Nmb2eFGZ8/ja6dg8QRUbmx0NEju5qSg979l+HkqZviyGTV9HPC5Emx6N83jA9OkMlLS8/D36Zuw8LFR1BSwreWP/Lqy7GYPClWjInKhYWOHktObhGeGb4KW7ZeFEcmLTDADf83uQV6dg+BGXsdmZjsnCJ8NG0nps/cj9u3eWvGo+jcMRBffvE0HOytxRHRE2Gho8dWUlKGFyeuw8LFR8SRyQur54nXX30KnToEiCMi7RQVleA/M/fjo2m7kJlp2k+uPonAADcs/6oPavu7iCOix8ZCR0/so2m78M7ftnJF6ndERfrijVdbIq5lLXFEpLzsnCLMnncQX0zfh9Q03ldbHg721pg9ozs6tKsjjogeCwsdPbHrqblo32UhLl/JFkf0s6Yx1fHeu23RKIJbFJD6UtPy8NkXezFn/iHk5BaJYyqHt1+Pw4Tnm4gx0SNjoaMncu78LXSLX4KrKTniiH5Hi+Z+eHZMFDp3DIS5OZc0SS1nzmbg4092YfnK47hzp1QcUwUZNzoSU6e0FWOiR8JCR4/t+Ikb6N5nCW7cyBdH9BC1ajpj7KhIDB7YAE6OvBma5LZj1xVM+3Q31m9IFkdUSfr2rofpn3blBz96bCx09Fh2772KPv2X83JLOTnYW2PQgHCMHdUYdWq7imMioykrA75bexrTPt2DfftTxDFVgW5d6mLBnJ5iTPRALHT0yPbsTUH3Pkt4YkQF69QhAM+OieIDFGRURUUl+GrpUfz78z1IPndLHFMVa9u6NhbPj4e1tYU4IvpdLHT0SLbvvIz4hGUoLCwRR1RBQkM88OyYKCT0qQ8bG/4Sp6px7Hg65i86jGUrjuHWLW49IhOWOnocLHT0UFyZq1rOTjbo1SME/fuFoWlMdXFMVG6ZWYVYuvwoFi0+gsNH08QxSYSljh4VCx09UNKOy+g7cDl3fzcS/1rOSOgbhgH9wuBfiwd605MrLS3Dpi0XsHDxYfyw7iyKirjarooO7epg2aI+Ykz0Gyx09Ie4MieXmGhfDOgbhvheoXB2shHHRL/rwsVMzF90GEuWHUPKNW4zpCqu1NHDsNDR79qadAn9Bn3NMicha2sLdGofgIS+9dGhXQCsrMzFl5CJy8+/g5WrT2LR4iPYufuKOCZFsdTRg7DQ0X22bb+EvgNZ5lTg6mqL3j1DMaBfGCIbVxPHZEJu3MjH9+vOYu36M9iy9SJ/fjXVqUMAlizoLcZELHT0W8dP3EC7LguQn39HHJHk/Go4oX3bOujQLgBxLWvBYLAUX0KaOXIsDevWn8XaxGQcOHhNHJOm+sSHYuYX3cSYTBwLHd1z7Xounmo3F+npPAFCdTY2FmjRvCY6tKuDzh2DUNPPSXwJKejOnVJs234Ra9cnY13iWZ6jbMImT4rFqy/HijGZMBY6AgDk5BahTcf5OHM2QxyRBgID3NCxfR20bxuA2GZ+vO9OIZmZBVibeBbr1ifjx83nkZvHU1rorv982hX9+9YXYzJRLHQEAOjZdym2bL0oxqQhg8ESreP80aVTEJo3rcGjxyRz8VIW9u1Pwfadl7Fn71UcPZ4uvoTontVfJ/CUGQLAQkcAXnolEbPnHRJjMhFubgZER/oiOtIXUZG+aNyoGpwcrcWXUSUoKSnDkWNp2L3nCnbuvoLde67i2vVc8WVEf8jJ0RpbfxwG/1ou4ohMDAudiZu/6DBeeGmdGJMJMzMDguu6IzqyOqIifRET5Yvguu4wNzcTX0qPKTevCHv3pdwrb/v2pyCPDyBROQUGuGHLhiFwsOcHMVPGQmfCdu+9is7dv0JpKb8F6MEMBksEB7kjJNgDISEeCA32QEiwB2r6OcOMPe8+WdmFOHXqJk6duYHTZ27i1Om7fy5dzgJ/41JlaNemNpZ/1Zc/jyaMhc5EXU3JQWyr2cjMKhRHRI/Mzs4KdYPc7xa83xQ903iqNjUt7+eydgOnTt+8V95S0/LEl5IkbGws8OJzTfHPj3do92H2lYnN8dorLcSYTAQLnQkqKipBXPt5OHHyhjgiqhC/LnoBdVzh7maAq5sB7m4GuLvZwd3dAG8ve/Ffk8r5C5lIuZaD69dzce16LtLS8nAlJfveP1+7nsvNexUT28wPn03rDP9aLugWvwTbtl8SX6K8hXN64ekuQWJMJoCFzgQNH/MtVq0+KcZEVc7RwRru7ga4udnB3c0At59Ln4uzLWwNlrAzWMHw8//a2lrCzs4KBlsrGOwsYbC1hMFgdW9mMFgiL/8OCm4X43ZBMW7fvoPbBcUouF2MgsL//fPt2/97TUFBMXLzinDtWi6upebi2s8FLiubK9c6cXaywTtvtsKwZxrey2bPO4SXXkn81av0YG9nhc2JQ1A3yF0ckeZY6EzMp1/sxetvbxZjIiIt9ewWjA/eaw9PT7vf5JmZBQis/ymKi0t/k+vAv5YLkjYP40MSJoa7i5qQXXuu4o13WOaISH/eXvZYurA35s7scV+ZAwAXF1t0bB8gxlq4cDETI8Z8ywdwTAwLnYlITctD/8Ff8weciLRmZgaMGt4I+3aOfmhh699P31MWEjeew4f/2inGpDFecjUR8QnLsWnLeTHWhqeHHdJv8AxaIlNWN8gd0z/tikYRPuLod925Uwr/utO03QvQzAzY8P1gREX6iiPSEFfoTMDiZUe1LnNmZsC2TcPwwXvteMIBkQmytrbAqy/HYvvm4Y9c5gDAysocfXvXE2NtlJUBQ0etRk4uz/81BSx0mktNy8Mrr24UY610aBcAH28HjB7RGAd2jUGf+FDxJUSkqahIX+z87whMnhQLK6vHf0sbkBAmRlq5mpKDCZPWizFp6PG/+0kpI8d+q/2ns19vReDhYYeZX3TD998M4NmGRBpzczPgw/fbY+MPgxFQx1UcP7Im0dURXt9LjLWyYtUJLFl+TIxJMyx0Gpu74Cck7bgsxlrx8rRHpw6BYozYZn7YkzQSb7zaEra2luKYiBRlb2eFyZNicWT/OIwc1kgcP5Fnx0aJkXYmvpKIS5ezxZg0wociNHXxUhaaxc1GvqY3+/7izdeewksvNhXj37iemosPPtqJ+Yt+wp07+u05RWQKLC3NMXxIBCZPbA4Pj/u3ISmP4uJShEZ8jvR0vR+sahpTHevWDBJj0gRX6DQ1evwa7cucg701xoxqLMb38fF2wIfvt8eBXWPwzMAGsLDg6dVEKundKxT7d47GB++1q/AyB9wti2NHRoqxdnbtuYrZ8w6JMWmChU5D0z7bgz17U8RYO8OHNnysndD9ajjh3x93wv6dY9CvTz2YsdcRSa11nD92bBmBWf/phlo1ncVxhRoxNEKMtPT625tx5WqOGJMGeMlVM2fOZqB5q9naX1q0sDDDsYPPwsfbQRw9sjNnM/C3qdvwzZpT4oiIjCiioQ+mvN0aLZr7iaNKNeHl9Zg7/ycx1k6bVrWxcmlfMSbFcYVOMyPGfKt9mQOAgQnh5SpzABAU6Ia5M3tg++bh6Nzx/gcriKhq1antijkzumNL4pAqL3MAMOG5JmKkpU1bzuPrlSfEmBTHQqeRL2bsw5FjaWKspT+/UHG/eOvX88Ti+fH478ahaNOqtjgmokrm5WmPD99vjz1JI9GrR4g4rjL+tVzQ4+lgMdbS5Nc3IiPjthiTwnjJVRMZGbfRIGo6cvP03nMOABL61sf0T7uKcYXZuy8Fb7yzGbv2XBVHRFSB/Gs547lnY/DMwAawsbEQx0Zx8tRNNIubZRLnXg8b0hD/+qCjGJOiWOg0MXr8d1i+4rgYa8fc3AwHdo2Bf63KvUEaALYmXcKUqVtN4gEToqoU0dAHL/4pBj26BcPcXL6nk0zl9ykAJG0ejrB6nmJMCmKh08CevSno8PRCMdbSoP7h+GxaZzGuVBs3nceUqdtw6Kfr4oiIHkObVrXx4nMxiGtZSxxJ5dz5W4iOnYmSEv3fHhtF+GDz+iFiTApioVNcaWkZYlrMwtnkDHGkHXNzMxzZPw7VfR3FUZXYmnQJM2cfwHdrz6C0lD82RI/CwsIM8T1DMfHFZggJdhfH0npuwlosXHxEjLX02bTOGNQ/XIxJMSx0ivt8+j689uYmMdaSLPd7XLuei1lzD2Lewp+031me6EnZ2VlhyKAGeH58jNE+hJXH5SvZaNx0hknsGuDmZsBPe8fC0eHR9/Uk+bDQKSwzqxBhjb4wiQchbGwscGjPWFTzKd9WJRWpqKgEq9ecwozZB7B3H++zIwIADw87jB3ZGGNGRcLZyUYcK2Xi5A2YNfegGGtp3OhITJ3SVoxJISx0CjOlXzYTnm+Ct1+PE2NpHDuejv98uR/LVx5HQUGxOCbSXm1/Fzw/PgaD+odL88RqeV1PzUVEzAyT+ZnetXWkUpfF6bdY6BR16vRNNIubbRL3crm42OLI/nFKXA7IzCrEgkWHMWvuAVy4mCWOibRiY2OBrp2D8MzABmj1lL+Wx+n948Md+Ps/ksRYS506BGDJgt5iTIpgoVNUlx5fYceuK2KspffebYNnx0SJsdTKyoANP57DjFn7sXHTeXFMpLSIhj4YPCAcfXvXU/6y6sMUFpYgstkMkzn/dO23A9GsSQ0xJgWw0Clo/YZkJAxeIcZa8qvhhCP7x4mxUi5czMTMOQex8KvDyMwqFMdESnB3N6Bf7/oYOrihyV2W+2bNKQwbtVqMtRTR0AdbErmNiYpY6BQU23oOjh1PF2MtzZnR3ahHAVWkoqISbPjxHFZ9exLr1iebxMMspDZzczO0b1sHgwaEo0vHQFhamu5pkaZ0VWT+7J7o3rWuGJPkWOgUY0qfFJs3rYEfVg8UYy0UFpYg8cdkrFp9EusTk5GXf0d8CZHRBAa4YfDAcAxKCIenp504NkknT91E06dmibGWAgPcsHvbSFhYaHhTpMZY6BRSVgbEtJiJM2f130TYysoc+3eOQU0/J3GkncLCEqzf+HO525CMfJY7MgIHe2vE9wzBoAHhaBJdXRwTgJdeScTseYfEWEsf/6MDhg+NEGOSGAudQr5eeQKjnl0jxlp687Wn8NKLTcVYewUFxb8pd7dvm8Z2CWQc3l726NwxEJ06BKJ1nL82241UlszMAkTETDeJe2F9vB1w8vB4MSaJsdApoqwMaNRkuklshRES7I7tm0eY/HJ/QUEx1iXeLXeJP7LcUcUIq+eJTh0D0aVjIBo3qiaO6SHmLvgJEyatF2Mt/XNqe4wa3kiMSVIsdIowpdW5zeuHoFGEjxibtPz8O1i/4Zdyd85kNjql8rOyMkds85ro0jEQT3cJgm819Y7hkk18wnJs2qL/dkQ+3g44emCcST8MoxIWOkU0i5uNEydviLF2xo6KxPt/4/EzD1JQUIzde69ia9IlbE26iAMHr6GkhD/G9D8uLrZo37YOunQMRPt2deBgL/+m3Cq5cSMfUc2/NIlLr5/+qzMGDwgXY5IQC50CEjeeQ79BX4uxdvxqOGHfjtG8j+cx5eYVYeeuK9iadBFbt13C4aOp4E+16ant74Iune7eD9e8qZ/J37JQ2b5fewaDhq0SY+0E1HHF3u2jYG7O7yfZsdApwFT2P1r/3SA+XVcBMrMKkbT97urd1qSLOHnqpvgSUpy5uRnC63shJro6mkRXR0x0dZN4Ilw2I8etwYpVJ8RYOzO/6IY+8aFiTJJhoZPcoZ+uo1WH+WKsnRFDI/DRPzqIMVWAGzfy716e3X53Be/c+VviS0hyLs42iIr0vVfeoiN9YWdnJb6Mqlh2ThGim3+J1LQ8caSV0BAP7PzvCDEmybDQSW7w8FX47oczYqyVGtUdsTtpFOz5BlUlrl3PxdZtF7Hpvxfw0+HrXMGTUN0gd0Q1rnavvNWv5ym+hCSxbfsldItfIsbaWbOyP1rG1hRjkggLncSup+YipMHnYqyd1V8nIK5lLTGmKlJYWIITp27g6LE0HDuejmPH03D0eDoyMm6LL6UK5u1lj9AQD4QE3/1TL8QToaEecHTgQwwqmTh5A2bNPSjGWundKxSz/tNNjEkiLHQSe/+f2/HeB9vFWCvPj4/Gu2+1FmOSwPXUXBw7no4jvyp6p89koLi4VHwpPYSHhx1Cfy5tvxS4+vU84exkI76UFFRQUIymT83Sep9QS0tzJJ94nt+zEmOhk1RZGRAc/hnS0vW9N6NRhA82/vAMn8ZTSHFxKS5fycb5C7dw/kLmr/7cwoWLWSZ/bJmrq+19xS2snhdcXW3Fl5JmDh1ORdtO87XeQujdt1rj+fHRYkySYKGT1LrEZPR/ZoUYa8PZyQa7to1ENR8HcUQKu56ai4uXspB87hYuXLxb9lJScnAr8zayswvv/skpEv81pXRqH4B69Tzh7WUPby8HeHvbw9PDDl5eDnBy5KVSU/bPj3diytRtYqyNgDqu2L9ztBiTJCzFgOQwd4HeB0B/Nq0Ly5yGfLwd4OPt8NDtZ7JzipCT80vB+/l/f/5zOSUbH/5rF2Rdt23Y0AevvhwrxkSY9Odm2LjpHHbtuSqOtJB87haSdlxGi+Z+4ogkwEInoZs3b2NdYrIYa2Pc6Eg83SVIjMmEODlaw8nRGtV97z+GatGSI9KWOQDYuOkcCx39odkzuiO29RzculUgjrTw1ZIjLHSS4gFtEvpmzUkx0kZEA29MeZsPQdAf27hJ7jMy9x+4hqxs/Y98oifjW80R82b2FGNtfPvdaRQVlYgxSYCFTkLLVxwXIy04O9lg8YLePOiZHujHTefESDrbki6JEdE9T7WoiVcmNhdjLeTmFSFxo/w/o6aI76ySSbmWo+39F3Nn9uB9c/RAh4+mKfHQxMbNfEOjB3vtlRZoFecvxlpYuVr/485UxEInmeUr9fxBmfBcE7TW9JcbVZyk7WqsfO3blyJGRPeZP6snAuq4irHyflh3FrdvF4sxGRkLnWR+WKvfMV8tY2virdfjxJjoPkk71Ch0x06ka3vTO1UcJ0drrFjST7uTPwoKirEu8awYk5Gx0EkkO6cIu/fqdbm1Vk1nfDU/HmYyP7ZI0ti7X42Vr7IyYPvOy2JMdB//Ws5YNC8e5uZ6/RL8fp1+iw+qY6GTyIaNem1VYm9nhZVL9ft0SpXj4qUspKfni7G0VFlNJON7qkVNfPxBRzFWWtJ2fqCRDQudRBJ/1OtG6wVz9Lx/hCqHagVJlfv9SA5DBzfA6BGNxVhZ11NzcTY5Q4zJiFjoJLJBo0L34fvt0aZVbTEm+kNnzqj15nDuQiZ4cCI9jqlT2qJlbE0xVlbSDq7SyYSFThLJ524hI+O2GCvp9b+0xMhhjcSY6IEOH00TI6nl59/BmbM3xZjoD1lYmGHRvHiEBLuLIyWptqquOxY6SezZp8fDEONGR2LSn5uJMdFDHTmWKkbSO6JYCSXjc3K0xqplCfDxVn9PTt5HJxcWOkns1WBfq8EDwjF1SlsxJnqo1LQ8pR6I+MXps2pdJiY5VPNxwJqV/eHsZCOOlHI9NRdXruaIMRkJC50k9ii+XUn3rnXx7487izHRI1F1pev0GV5ypScTFOiG1V8nwM7OShwp5fiJdDEiI2Ghk0BpaRmOn7whxspoHeePOV/24F5z9MRULUaqFlGSQ0RDH6xY0hcGg6U4UsaJU+q+d+mGhU4CFy5morRUzcflYqJ9sWRBb1hYsM3Rk7t0OUuMlHDu/C1lf3ZJDs2a1MDKpf1gY2MhjpRwgit00mChk8D5C5lipISIBt5YsUTdX0Qkj9OKbVnyi9LSMly+ki3GRI+lWZMaWLaoD2xt1VupO8kVOmmw0ElAxc0Zw+t7Yc2qATwFgiqEytt/nOGDEVQB4lrWwtKFvZX7gMwHg+TBQieBq4o9JRTRwJtljipMaWkZrqao9TPwa6re/0fyiWtZC8sW9YGVlTpvzfn5d5CXf0eMyQjU+a7RWFZ2gRhJ65eVORdntR+3J3mcTc5Q+j40Ve//IznFtayFxfN7i7HUdNkUX3UsdBLIzikSIyk1ia6OtWsGcmWOKpSq98/9goWOKlq7NrXxw+qBymxpcpOFTgosdBLIySkUI+m0jvPHmpX94WDPMkcVS6UV6t9z6RILHVW85k1r4IdvBsDV1VYcSefWLRY6GbDQSaC4uFSMpNKvTz2sWtYP1tZq3axLarh0We2nRFPT88SIqEJENPTBum8HobqvoziSSm6eGleZdMdCJwF7iVe9JjzfBDM+e1qMiSpMalquGCnl1q0C6T+UkbqC67pj68ZhiGjgLY6kYbBV49Kw7ljoJOAg4T1pdnZWWLqwN95+PU4cEVWotDS1V7iKi0t5DxFVKnd3A9atGYRuXeqKIynI+B5miljoJCDbAc21/V2wJXEIOrYPEEdEFS5V8UIH6PE1kNxsbS2xYE5PvPFqS+mOWZT9krCpYKGTQGCAmxgZTc/uwUjaPBx1g9zFEVGlSE1V+5IroMfXQGqYOKEZ1qwcABcXeR6W8KvhJEZkBCx0EggP8xKjKmcwWOKTjzph7pc9YK/Io/Kkh7T0fDFSTna2/E+qkz5aNPfD9s3DEdvMTxxVuUYRPmJERsJCJwFjF7qG4d7YunEYhgxqII6IKl1RUYkYKSeLhY6qWHVfR3y3agD++lYro54sERNVXYzISIz3XUD3ONhbG+WTlqWlOf7ycix+XPcMggLluexLpqOgoFiMlJSVpfZeeqQmMzPghfEx2Jw4FAF1XMVxlejaOUiMyEhY6CQxekRjMapU9UI9sGXDUPxlUiwsLfltQMahy8pWVpYeXwepKayeJ7ZvHo6RwxqJo0pVzccBT7WoKcZkJHwnl0TP7sFVcmOpra0l/vpWK+zYMgJh9TzFMVGV0mVlK1Px0y5Ifba2lvjw/fb4Zlm/KrviUtUFkh6MhU4in3zUSYwqVNfOQTiwazReGB8jjoiMQpeVLV2+DlJfqzh/7N0+Cp9/0gXeXvbiuMLU9HPC+LFRYkxGxEInkdZx/hiYECbG5RbR0Afr1gzCorm94FuN+wWRPHTZkLewUI97AUkfAxPCcHD3GEyeFAuDwVIcl4uNjQUWzYuHHXdEkAoLnWQ+/6QLunQKFHZYUSkAAAc4SURBVOMnElbPE9M/7YotiUPQNIZPIpF8dDkyq6BA/Sd1ST92dlZ49eVYHNg1BqOGV9zl0QWzeyG8vnF3Z6D7sdBJ6Kt58ejft74YPxKDwRIJfetjw/eDkbR5OBKe8L9DRI+OK3Qks2o+Dvjn1PY4ffRPmPBcE7i7G8SXPBIbGwvMnt4dHdrVEUckAbOysrIyMSQ57N2Xgvc+2I5NW86Lo9/w9rJHTFR19OoRgs4dAyt8eZ2osqxYdQIjx60RY+XENvPD998MEGMiaa3+7hQ2/ngee/ZdxanTN8Xxb9jYWGDo4IZ46cWm8PF2EMckCb7zSyw6yhcrl/bF8RM3sP9gCq6m5KCsDDDYWsLHxwHVfR0RXt9LqiNgiB5HAVe2iIyix9PB6PF0MAAgO6cIh4+kIi0tDzcz8pGRcRulZYCtjQVq+7uiRXM/eHjYCf8Fkg0LnQLqhXqgXqiHGBORJFhMSWVOjtZo0bzqN7enisV76IjIaAoL9XiYoFCTEy+ISF0sdERkNLoc/UVEZGwsdERkNM7ONmJERERPgIWOiKicbGx5OzIRGRcLHREZja2NHkVIl6+DiNTFQkdERmPDIkREVCFY6IiIyonFlIiMjYWOiKicbG0txIiIqEqx0BGR0ejylCtX6IjI2FjoiMhodHmYQJdiSkTqYqEjIqPRpQi5OPE8ZSIyLhY6IjIaZ2c9ipAuxZSI1MVCR0RG4+ykRxHSpZgSkbpY6IjIaGxtLWFtrf4ToroUUyJSFwsdERmVu5tBjJRjb28tRkREVYqFjoiMSodCp8PXQERqY6EjIqPy8nIQI+V4edmLERFRlWKhIyKj8tagDOnwNRCR2ljoiMioVC9DTo7WsLXVY4NkIlIXCx0RGZXqlyt1uGRMROpjoSMio1J9hU71vz8R6YGFjoiMKijIXYyUUtPPWYyIiKocCx0RGZXqhahmTbX//kSkBxY6IjIqF2cbODmquzFv3UA3MSIiqnIsdERkdCpfdlX5705E+mChIyKjqxuobilS/ZIxEemBhY6IjE7V+9A8Pe3g4mwjxkREVY6FjoiMTtX70Lg6R0SyYKEjIqMLD/MSIyWo+vcmIv2w0BGR0QUFusPOzkqMpdcgzFuMiIiMgoWOiIzOzAwIDfEQY+mF1+cKHRHJgYWOiKSg2uVLMzMgjIWOiCTBQkdEUlBttatObVcYDJZiTERkFCx0RCQF1e5Hi4mqLkZEREbDQkdEUggP84KtrTorXi1i/cSIiMhoWOiISAq2tpaIbFRNjKUVHekrRkRERsNCR0TSUKUkubraIkjh48qISD8sdEQkjShFCl2zJjVgZiamRETGw0JHRNJo0VyN+9KaxNQQIyIio2KhIyJpuLjYIraZ/KWuc4cAMSIiMioWOiKSSrs2tcVIKn41nFA3iPfPEZFcWOiISCpt29QRI6m0lbxwEpFpYqEjIqk0CPOCbzVHMZZGu9ZyF04iMk0sdEQknQ7t5CxNDvbWaNuaK3REJB8WOiKSTu9eoWIkhfbt6vD8ViKSEgsdEUmnZWxNeHnai7HR9e4pZ9EkImKhIyIpxfcMESOjcrC3RiduV0JEkmKhIyIpybYa1q1rXVha8lcmEcmJv52ISErRUb4ICZZnvzdZ7+sjIgJY6IhIYmNGRoqRUdQNcpd+w2MiMm0sdEQkrQH9wqR4qnTcaDmKJRHRH2GhIyJpGQyWSOhbX4yrlIuLLQb0CxNjIiKpsNARkdReGB8jRlVqUH85VgmJiB6EhY6IpFantqvRVshsbCww4bmmYkxEJB0WOiKS3isTm8PCwkyMK92zo6Pg6WknxkRE0mGhIyLp1fZ3Qb/eVXsvnZOjNV6a0EyMiYikxEJHREqY8nZrONhbi3Gl+fMLTeHkWHX/f0RE5cFCR0RKcHc3YOKEqrmfLSjQDX8aFy3GRETSYqEjImX8aVw0gutW/ukR773bFtbWFmJMRCQtFjoiUoa1tQU++kcHMa5QvXqE8FQIIlIOCx0RKSW2mR/e+r+nxLhCBAa44YtPuogxEZH0WOiISDl/fqEp+sSHinG5ODlaY8mCeNjachNhIlIPCx0RKemTDzshJtpXjJ+IvZ0V5s3qicAAN3FERKQEs7KysjIxJCJSQV7+HfTqtxR79qaIo0dmb2eFVcsSKqwcEhEZA1foiEhZ9nZWWLm0H3r3erLLr77VHLFyWT+WOSJSHlfoiEgLm/97AS+8tA6Xr2SLo/tYWJjhuXHRmDwpFnZ2VuKYiEg5LHREpI2iohKs+f405sw/hKQdl8UxfKs54plBDTB0cAP4VnMUx0REymKhIyIt3bpVgEOHr+PosXT4VnNAg3BvBAXyoQci0hMLHREREZHi+FAEERERkeJY6IiIiIgUx0JHREREpDgWOiIiIiLFsdARERERKY6FjoiIiEhxLHREREREimOhIyIiIlIcCx0RERGR4ljoiIiIiBTHQkdERESkuP8HeWRmnsyFuegAAAAASUVORK5CYII=;" vertex="1" parent="1">
          <mxGeometry x="170" y="1130" width="37.87" height="43" as="geometry" />
        </mxCell>
        <mxCell id="nSW95RDYFiEPkef_lx06-23" value="Kafka UI" style="aspect=fixed;sketch=0;html=1;dashed=0;whitespace=wrap;verticalLabelPosition=bottom;verticalAlign=top;fillColor=#2875E2;strokeColor=#ffffff;points=[[0.005,0.63,0],[0.1,0.2,0],[0.9,0.2,0],[0.5,0,0],[0.995,0.63,0],[0.72,0.99,0],[0.5,1,0],[0.28,0.99,0]];shape=mxgraph.kubernetes.icon2;prIcon=pod" vertex="1" parent="1">
          <mxGeometry x="370" y="1132" width="50" height="48" as="geometry" />
        </mxCell>
        <mxCell id="nSW95RDYFiEPkef_lx06-28" value="Brokers" style="aspect=fixed;sketch=0;html=1;dashed=0;whitespace=wrap;verticalLabelPosition=bottom;verticalAlign=top;fillColor=#2875E2;strokeColor=#ffffff;points=[[0.005,0.63,0],[0.1,0.2,0],[0.9,0.2,0],[0.5,0,0],[0.995,0.63,0],[0.72,0.99,0],[0.5,1,0],[0.28,0.99,0]];shape=mxgraph.kubernetes.icon2;prIcon=rs" vertex="1" parent="1">
          <mxGeometry x="260" y="840" width="50" height="48" as="geometry" />
        </mxCell>
        <mxCell id="nSW95RDYFiEPkef_lx06-29" value="Zookeepers" style="aspect=fixed;sketch=0;html=1;dashed=0;whitespace=wrap;verticalLabelPosition=bottom;verticalAlign=top;fillColor=#2875E2;strokeColor=#ffffff;points=[[0.005,0.63,0],[0.1,0.2,0],[0.9,0.2,0],[0.5,0,0],[0.995,0.63,0],[0.72,0.99,0],[0.5,1,0],[0.28,0.99,0]];shape=mxgraph.kubernetes.icon2;prIcon=rs" vertex="1" parent="1">
          <mxGeometry x="350" y="840" width="50" height="48" as="geometry" />
        </mxCell>
        <mxCell id="nSW95RDYFiEPkef_lx06-30" value="Schema&lt;div&gt;Registry&lt;/div&gt;" style="aspect=fixed;sketch=0;html=1;dashed=0;whitespace=wrap;verticalLabelPosition=bottom;verticalAlign=top;fillColor=#2875E2;strokeColor=#ffffff;points=[[0.005,0.63,0],[0.1,0.2,0],[0.9,0.2,0],[0.5,0,0],[0.995,0.63,0],[0.72,0.99,0],[0.5,1,0],[0.28,0.99,0]];shape=mxgraph.kubernetes.icon2;prIcon=rs" vertex="1" parent="1">
          <mxGeometry x="450" y="840" width="50" height="48" as="geometry" />
        </mxCell>
        <mxCell id="nSW95RDYFiEPkef_lx06-32" value="Kafka" style="aspect=fixed;sketch=0;html=1;dashed=0;whitespace=wrap;verticalLabelPosition=bottom;verticalAlign=top;fillColor=#2875E2;strokeColor=#ffffff;points=[[0.005,0.63,0],[0.1,0.2,0],[0.9,0.2,0],[0.5,0,0],[0.995,0.63,0],[0.72,0.99,0],[0.5,1,0],[0.28,0.99,0]];shape=mxgraph.kubernetes.icon2;prIcon=deploy" vertex="1" parent="1">
          <mxGeometry x="180" y="840" width="50" height="48" as="geometry" />
        </mxCell>
        <mxCell id="nSW95RDYFiEPkef_lx06-33" value="kafka-ui" style="aspect=fixed;sketch=0;html=1;dashed=0;whitespace=wrap;verticalLabelPosition=bottom;verticalAlign=top;fillColor=#2875E2;strokeColor=#ffffff;points=[[0.005,0.63,0],[0.1,0.2,0],[0.9,0.2,0],[0.5,0,0],[0.995,0.63,0],[0.72,0.99,0],[0.5,1,0],[0.28,0.99,0]];shape=mxgraph.kubernetes.icon2;prIcon=svc" vertex="1" parent="1">
          <mxGeometry x="271.07" y="1132" width="50" height="48" as="geometry" />
        </mxCell>
        <mxCell id="nSW95RDYFiEPkef_lx06-34" value="" style="sketch=0;outlineConnect=0;fontColor=#232F3E;gradientColor=none;fillColor=#232F3D;strokeColor=none;dashed=0;verticalLabelPosition=bottom;verticalAlign=top;align=center;html=1;fontSize=12;fontStyle=0;aspect=fixed;pointerEvents=1;shape=mxgraph.aws4.user;" vertex="1" parent="1">
          <mxGeometry x="-57.5" y="650" width="35" height="35" as="geometry" />
        </mxCell>
        <mxCell id="nSW95RDYFiEPkef_lx06-35" value="Web Browser" style="sketch=0;pointerEvents=1;shadow=0;dashed=0;html=1;strokeColor=none;fillColor=#434445;aspect=fixed;labelPosition=center;verticalLabelPosition=bottom;verticalAlign=top;align=center;outlineConnect=0;shape=mxgraph.vvd.web_browser;" vertex="1" parent="1">
          <mxGeometry x="-65" y="550" width="50" height="35.5" as="geometry" />
        </mxCell>
        <mxCell id="nSW95RDYFiEPkef_lx06-36" value="Shell" style="shape=image;verticalLabelPosition=bottom;labelBackgroundColor=default;verticalAlign=top;aspect=fixed;imageAspect=0;image=data:image/png,iVBORw0KGgoAAAANSUhEUgAAAIAAAACACAYAAADDPmHLAAAABHNCSVQICAgIfAhkiAAAAAlwSFlzAAAOxAAADsQBlSsOGwAADp1JREFUeJztXctv3MYZ/3EfWq27EqwaFWo4QNAchAgpYOXh2EV6KYoGRc65JVe3x6BATml6SYFcg5x7yh/QW5MUEVoVqJ00km0ZcgAJMZAHYMFOi0Tah7UWX9MDHxoOZ7gznCG1suYHELP78fuGQ37ffI8huQtYWFhYWFhYWFhYWFhYWFhYWFhYWFhYWFhYPLZwCujJ1og3Z4KMxfGDUG0Yb4TacmCVSSu99cYbb/zq7NmzV5vN5pV2u32+mjFbmIbnefeDIPjP/v7+X95///01AD6yxpCCNYAGgCaAmbfeeuvP58+f/8OlS5fw1FNPgRCCubk5DIfDie38/Lxw/2g0MkKX3a/Kl7SDwUCav9frlepHJKdKZ1vHcfDVV19hY2MD9+/ff+/dd9/9EwAXQBAbQoomYwxNAJ2rV6/+dmlp6b1XX30VnU4HzWYTe3t7CIIA+/v7CMMQ/X4fYRhiMBikLSEk0wJI2+FwmGlHo1HaOo6Ttg8fPkzbRqORaZvNZtoeHBxk2vF4nPvearVKtwcHBzk63T89jkajkaE3Gg2MRqNc6zhOqiD6/JPrQgjJtfT1pa9zcv1pfQRBgH6/j06ng263i4sXL+LevXu/uHDhwq1bt259TXmBzIynDaAFoLu4uHh1eXkZADAej+H7PgjhhhCLKQMhBL7vYzweAwCWl5exuLh4FUAXkX4zXp81gDaAM7Ozsy+dO3cOQRDUNGwL0yCEIAgCnDt3DrOzsy8BOINIv0IDaMQM3Waz2Ws2mwjDTLiwOGEIwxDNZhPNZrOHyAO0kdV5zgBaADr1DdGiRnQQ6VdoAEkS2KpxUBb1oYVIv8IQABytAVg8fqAX8zLEBHaF73Qgo2eeu59oCE888YSx0ViYwfb29iQWrl5Lx/vnnnvuVK0NEELgOE56zvTn48bt27dLy3INQObECCFYuXgxu6wUy+WkCUEYX0AZXlmatHwBhOda0I+s4lk+aaNROIe7d+8qj4NGaQ9ACIm2/I6oYcjOhIHkeDMEBwhDEDAXUVHZIn7RuMoYR/HhxVKshylrZKrQNgCAPwu5dH5HcvKOA4c+ZnzBHJEyZD1JER36F1jQqdAQ6ePJemId6BmAaKfjAITkZ7Jhtz9p5joAQpanhBEIUdITiGR5+cUkBR+rAVBfoib+2ul0cHh4KD+7TcRzijdz8ai8w3ToKNVXRlRswLKeYCpCQEyIGgCvv/46vvvuO/xrbS26rZkXTnkLIXLxsrPYcUDi3EEaNYeJMAzTGZ8kyWw+UDzcCgxA9sA5vvh7r9dDr9fDk08+iZs3b2JjfR2u500ejW6IANQUrqpsQ0ZAK5uWnTTrZWkqPHohoMDFA0Cr1cLly5fx82eewaeffoo7X3yR4zURIqRmjKJSqywPebxly8PpTAIZ/KjXw29efhkXV1awurqKBw8eJJ1ETb5zpbo/GU+hfAFdtQyUSczKLBSVmc26BlD6xg+dUCEOB4lRfPLJJ3j48GFOZnFxEa+99hpeeeUVzM3NpbMXhCAMw7SPkO6P6jdHSxQqQyugc3kllZ+Ti8+DPh/ZTTQOdkwy45SFfhJIx624vXPnDna2t/Hiiy/i+RdeQKuVPczTTz+NpaUlrK+v49q1a0clIyen0PUOuiUfCcMomZQZW4n+y8om49F9aIfrAVSSQN7MDMMQh66Lf1+7hg8++IC7XNloNHDlyhW8+eabGU8wcVZEB+d6ByVPwBk3CUOEzEaAdFZL9V3krWQ20dgKPIGMrkSopAyksffDD/j7xx/D8zwsLy9n7wewAzQxuxX6NVIBKM52QuTyA1nXfmwhIAzD/Mkzymq327h06RJeeP55zHQ6McuEUkbXCFQUVYMRTDzfGKznCcMQQRAceSLCzyu+/fZbwZHlUMnNoHa7jZVnn8Xly5cxOzvLlXddF3e//BIffvhhPXcESygV1AIN7Xa5mNB/GIbwfT9Vqu/7qZITmqyx0NB9cruSm0G/+/3vcabb5V6Qg4MDXL9+HVtbW/B9n69ERcWq8CqVh3GCNdFDpbtIquRM6/vwg6CUu676uYPSK4FJgsRTQLfbzRnH4eEhPvvsM2zeupVfFTRgBJW4/QLeMFY2b+NCQ4m5m2qKqD4JFCkLkatfX1/HjRs30htEXN4qZrdqAslk4TQS5XqeF332PAScEkyorKJb15OgIzsBRg0AODp51/Nw88YNfP755xg/esQKZ3hpupQSNeXTkpHlpZBRuOfB47wex1V2kbLi2+SloCNbAK0qgFcGAsDGxgauX78evZ9WoKwcvaRiZWN0BoyiknjtuS68WPmi8xP1MZEOvZheRT6gdTdQVAaurq6yzFGT7yRPj2m5Bzn4g8jTJG8hE0LguW6k9Fjh6aqailJPgBFUmgNMUmpy8HSpV+YECOdpopiuE/vDIEiVncRyU8pWMkboJXYmPYFWCEgeZpCZrSkHy2sgRHDX6ylPQis88P2svCFlFyV/qsYhA1NGoPc8QLJQAkkFiuiE4I9vvy174Iz8O++8E31gHgSh43lmsYR34RWNQDX5EypL1whKytHQfyKIUwFQTACO4rkTz4ZkdU0qzrMQPXDqOAjoMi2pxwXH4MlLK6NM3GePV+a4HFkZVJYD0ElTSpcciJb7oowgyd6T2jyXlwhmvLRbNpX8VVUeakLvZlAC6gREj4JDQM+5conKwHGcSPGeB9fzcvfEpWa3iqJqMILjetXM7DOBkspOyVQSyb7xI+rDp2Y8G4IAFIYIacVCIUSccCPQzgG4ZZkoceLQuXfZGJeY3GTxPQ9BEJR38ZD3DkYWfgr6kR6fAVR+L0BmBhEBPe4s30+cYyQznnbzvD5UFGs8RBRApNCqKgNVGFsK1ioDGXp6nzxW/EQlKiq2kgRwWioDReg/Fj4h7ufo1D6Wn5Dop838+AGJBNy3hWVjv0BeO/bzYLgyqMMIzLwZpGoEHLrSjE92sbRp9Q5l6EXjUUSRPvXfCwAyCxKZpQl6oYI2mDj+EUIQBgFc14XneUdlHnuwuB9e3yLeifIxXYpmgrcMHfHiWYUw91RwRASAzK+BpEvFTC1PCFGb8YZmd20hwuSNowrLQ6PrAISK2wRHSqdzBQKkD0EmkFK2CCVChJR8heVhUQVQZ3kIaIaA1AiSz4zLz8BxouyeKekmuXIVty/LKyVfwKvqxrnsIrrI5Sv2Lwu9N4PAsUpmRS+5ZxAEAYK4dFRRQI5eYewXodY8gXc8CZkiVJcEUhthPEH6nXrBgYbyyWeYDMxuXXkVZRhMCosMtQz0QgD4oYCQ6LHp9KERWlCiYijt9nnyTN8y/Up7h8egMtDOAXhGQL9YmaA2I5iG2H+CjED/7WAqF6CNgBopvwOZtQMOvarZXTpEiFBC2Ur9QDJcoqIcQHQgbpIXQ8W1FvGruP26QoQJZRdVAEp0BWiFAIf6zHtp4uiLYLZT+6qsDHRDRA4GjEB1Vle1IqifAxS4+8qMoKD/2ma3rLxqvwZcvgpK5wAJpGcNs095Bsgc4zSXhwWoPAcoMgLpfbY81KOXhLEkcOqNoO7yUFbeJL0E9AygKOYz+1VmTxl6bbNbV76G8lAF2jnARCOQ2KedFFZYHlbiHVTLQy5VzM+i+nUAyey/aF8lRvC4lIeG4z4NcwtBktl/0T5tD8Hjn+bykCtcT/KXoLL/CKw0KRQdRzVPKBiLbojgjaGypFAD+jkADUNJoZQRVFwZ5FBV7K/BCGq7FwDg2IyA109Vsb+2EDH1ZaAIOkYg2SdLV00WZXmlXbyuvKnyUBHV/U9w2fKw6spAtW8BbyXewVR5qACzOQALWx4W8qoYgY4XqDcHYGHLQ/7xJ/DyxmAq7tOo/a/iK00KRcd53MtDDdRjALY8FNNM8Gqg2hyAhiEjkJKZlvJQVl6VV9EIjjcHoGGgPFQ1DtU8QbaPKryDaAxVeoLac4CpLQ8NlZIqYzjO2J9AywBKD0qhMpgmI5DtV3p2y8qX6FcW2h7AhBEonVgF5aEUbxWxX+VYFcFIEmhisGWTQmkPUcCvq1iVfrVif0nDqCUJLGUEtjwU01R5S6L+JJDFCSgPZXmNhwgRDBqBUQMwlRQqGYGEDI9u3O2rjGOKKgPjHqAyIxDtm6bysO7YX1UVoLsSaMoIivZVZgQF/dc2u2XlJXEsK4Em3JP0rGH2SV9UHr1E6DAe+2ssDytNAk9FZSAxFpl+tUKEBiqvAk6FEZjwDrohoiRK/04gAPxzbc3QMCyOC8e/DmBxrCj1Y9HH8dcmFsXY2dkR7jP+hxG7u7sYDoeYm5vDaDTKtMPhEPPz89yWxy/byvbH0kXfJ7WDwSBH7/V63P08+qSWllNtef2VhQ0BpxzWAE45rAGccvAMwGZ4jye4em3wGHzfP3BdN/cDzxYnC2EYwnVd+L5/QJEzhsB6AAIg7Pf7W7u7u9YATjjCMMTu7i76/f4WgBAcL8B6gACAv7Oz89Hm5iaGwyFc17V1/wkDIQSe52E4HGJzcxM7OzsfAfAR6TejzCb1uQGgDaBz79694cLCwsL333+/NDMzg3a7jUePHgEAhsMhHMfBcDgEAIxGo0xL76f5TLaEEAwGAxBC0u8iuuh7VW0yzsFgUNiy4+a1Za/PeDzGN998g7W1NWxtbf1tdXX1rwB+ADACcIjIGwDI3lNoAjgDYAHATwFcWFlZ+eXy8vKvFxYWftbtdudhcSIwHo8He3t7X29vb//j9u3b1wDsAngAYA/AASJPACBrAA0AMwB6AH4MYBHATwCcBdBF5B0aMHcjysI8CKLZ7QEYA9gH8D8A/8WRB3BBeYAWI+zHgv2Y5gIYIvIMbURewhrA9CLJ4zxEM32AyAj6iPTqg/1zNKaDBiIlzyCa9WcAzMZbE0c5gzWC6UP6J6zx9ijeDhAp343pmdKOVaQTbw1E3qGNo5nfhF05PAkIcWQEXrz5OCoDCz0ATaeNgY79dvZPLwjVhsgq3dbyFhYWFhYWFhYWFhYWFhYWFqcZ/wdzfAynoYudrQAAAABJRU5ErkJggg==;" vertex="1" parent="1">
          <mxGeometry x="-69" y="730" width="58" height="58" as="geometry" />
        </mxCell>
        <mxCell id="nSW95RDYFiEPkef_lx06-39" value="Stats UI" style="aspect=fixed;sketch=0;html=1;dashed=0;whitespace=wrap;verticalLabelPosition=bottom;verticalAlign=top;fillColor=#2875E2;strokeColor=#ffffff;points=[[0.005,0.63,0],[0.1,0.2,0],[0.9,0.2,0],[0.5,0,0],[0.995,0.63,0],[0.72,0.99,0],[0.5,1,0],[0.28,0.99,0]];shape=mxgraph.kubernetes.icon2;prIcon=pod" vertex="1" parent="1">
          <mxGeometry x="140" y="540" width="50" height="48" as="geometry" />
        </mxCell>
        <mxCell id="nSW95RDYFiEPkef_lx06-48" style="edgeStyle=orthogonalEdgeStyle;rounded=0;orthogonalLoop=1;jettySize=auto;html=1;entryX=0.25;entryY=0;entryDx=0;entryDy=0;" edge="1" parent="1" source="nSW95RDYFiEPkef_lx06-40" target="nSW95RDYFiEPkef_lx06-31">
          <mxGeometry relative="1" as="geometry">
            <Array as="points">
              <mxPoint x="220" y="700" />
              <mxPoint x="250" y="700" />
            </Array>
          </mxGeometry>
        </mxCell>
        <mxCell id="nSW95RDYFiEPkef_lx06-41" value="" style="rounded=1;whiteSpace=wrap;html=1;arcSize=5;dashed=1;fillColor=none;" vertex="1" parent="1">
          <mxGeometry x="600" y="240" width="80" height="1160" as="geometry" />
        </mxCell>
        <mxCell id="nSW95RDYFiEPkef_lx06-76" style="edgeStyle=orthogonalEdgeStyle;rounded=0;orthogonalLoop=1;jettySize=auto;html=1;entryX=1;entryY=0.5;entryDx=0;entryDy=0;strokeColor=#66B2FF;strokeWidth=2;" edge="1" parent="1" source="nSW95RDYFiEPkef_lx06-42" target="nSW95RDYFiEPkef_lx06-31">
          <mxGeometry relative="1" as="geometry">
            <Array as="points">
              <mxPoint x="640" y="875" />
            </Array>
          </mxGeometry>
        </mxCell>
        <mxCell id="nSW95RDYFiEPkef_lx06-78" style="edgeStyle=orthogonalEdgeStyle;rounded=0;orthogonalLoop=1;jettySize=auto;html=1;entryX=1;entryY=0.5;entryDx=0;entryDy=0;strokeColor=#66B2FF;strokeWidth=2;" edge="1" parent="1" source="nSW95RDYFiEPkef_lx06-42" target="nSW95RDYFiEPkef_lx06-77">
          <mxGeometry relative="1" as="geometry">
            <Array as="points">
              <mxPoint x="640" y="545" />
            </Array>
          </mxGeometry>
        </mxCell>
        <mxCell id="nSW95RDYFiEPkef_lx06-42" value="ArgoCD" style="shape=image;verticalLabelPosition=bottom;labelBackgroundColor=default;verticalAlign=top;aspect=fixed;imageAspect=0;image=data:image/png,iVBORw0KGgoAAAANSUhEUgAAAgAAAAIACAQAAABecRxxAABKLElEQVR42u2dd7wVxfXAv4/eey8iSBFRQUFERUTF3nuLijVq7IktPxM1RqPGXqLG3kvsvWFDBRugIL0oSOfBg0d5/f7+eJT37t3ZOzO7O7N373zP55PIu7uzZ2Znzk49pwBH0qlLJ7amO93pTg+60512EneVs4yFLGEhS1jEIuYxjxLbWXGETYFtBRyhU59e9KEH3ehOD7aiC/VCSnkx85jHPOYyjRmssp1RR3CcAUgGbdmBvvSlH/3oGVqD92cp05jOdH7hJ5bbLgCHHs4A5DLNGchgBjOY/pbf5Cqm8iM/8iPTqLJdLA55nAHIRfqyF3sxlN4xfH8rGcvnfMlPVNpWxZGd+FUgh5ht2Yu9GEln24pIsJqxfMHH/GRbEYcfzgDkAu3YjwPZLycafjoL+YAP+JjVthVxeOEMQJypx64cyAEMpo5tVQJSwTe8x6vMtq2IozbOAMSTFhzIERxMq4jSr2I1ZaxjPaVpv9ShJQ1oShMaRvDcn3mNV5kSUa4cyjgDEDe6cBhHsndIzW89C1jI7yxkBYWspHDj/8rN1LemHe1oSzva0pEuoe0qmMmrPO/MQBxwBiA+dON4jmdooHdSxXxmMZtZzGYei1gZupZ16UwPetGffmzHNtTXTmkSz/ACi0PX0KGAMwBxoD3HciLDNUf6KebxM5P5mV+Ym9Glj5b6bMN27MxgBtNe4/5KPuFZXmO9Ua0dm3EGwC7NOIYTGaXRra5kKt/zPT8xhWLb2QBgKwYzmN0ZRmPFO4t4hv+6IYEjnyhgOI9TTEpRFvAil7MnTW1nQEgD9uCvfKCct684lUa2lXc4oqcrf2WmYvOYziOcxta2VVegHsP4B99TpZDLQm6nh23FHY6oqMMhvEuFQpP4jUc5gY62FQ9AR0bzMqukc1zOSwyzrbTDETZt+AtzpJtBMW9yIf1sKx0a9TiAxyiUzv83HEtd20o7HOGwM4+xXnqU/x8OiGQbjn3qczBPSPcG5nAODWyr7HAEoQ6HMVaywk/ienbOg5WZBhzF25IDoflcpLyq4HDEggacyVSpaj6FvyWouy9HF66RnApdwhU0s62uw6FCS65koUTlnskNDLCtrDUKGMEzlEqU0zIuSeiwyJE4WnEDRVmr9GoeZXgedPiz04kbWCK1InKGmxh0xJuW/D3rJFcVYziVJrZVjRUNGc0ECSMwlWOc0XTEk+b8X9aFrkJup7dtRWPLSD6SMALj2NW2og5HbRryF1ZkqbjfMtrNaGdlGO9mNQFVPEt324o6HNUUcDLzfCtsOc8zxLaaOcQQ3sy6hXgdN8T4RIQjb9ib730r6hrucvvbNRjIK1RmMQK/c4JtNR35zHa87VtBF3NVZG698oEBvJDVCHxEH9tqOvKR5txOme/X6WI34g+BbXk+ixHYwPXuILHDLCfyu++K9QVu20qI7MSHWfoBM9nPtpKOfKE/Y3yq4iLOc0dYImDfLHMtKR53wy1H1DTmFp+OfxF/dRt8IqOAE/nN1wQs5HDbSjqSzB5ME1a+Uh6mg20FE09jrmKNrxF4Wcs9qcORhWbc7zMZ9bJb6jNGV57y3SWwlKNsq+hIGvvzq7DCTWKkbfXyjmH86NsPeIzmtlV0JIXmPCr84qzgPHdCzQp1udD32NVsdrOtoiMJ7MpsQRWr4jHa2FYvr+nI0z6DgXJuCCGQmSOPqcv/US6oXtPZy7Z6DmAfoYFOkWJ8TrlSd8SK7nwuqFZl3OL2nsWGxtzi42FwNcfZVtCRixwnHGF+x3a2lXOkMYRJQhNQxd1ua5ZDhfrcI1ztv9aNK2NJfW4QDtdSfEdP2wo6coWufC2oRj8xMLKnbsXOgcJtO2CIjxfmVRxmWz1HLrAPSz0rUCX/iqgj2Z5/s2DziPVhetkughymMXcKt2tVcr1mCHZHnlDA1YLppEXsG9EzD8yYa1jLH20XRE6zt89JzbdpaVs9R1xpyquCavN+ZLv8DxEYnGttF0ZO05Y3hSZgRh7HYXD40FWwubSMv0TmiLqzT/yA420XSE5TwIVsEJRssTsr4EhnsKDbuJA9InzqPcLmn6LInS0MyI5MF84GXGNbOUecOJq1nhVlLJ0jfGodwXTjJrnDdrHkPM15UVi6LziHbY5qrhbMG98T8aLcdr7NP8Ua51YsBC4VOnAZ6zwHOOryoGfl2MApkT97rywGIMVBtosnEewhXBWY4/Z05jcNBF3EFYww8PTsBsCtBYRDe74QlPAqd6Qrf2nOJ56VYoqhE2SDshqAR20XUWJoyBOCMi5xh4Xykw784FkhPqCFIQ3aZDUAN9oupERxmWDPRSWX2FbNYZqtmeFZGR4xetTH38dtKf1sF1PCOIDVgrK+3QUdzye2Yb5nNfiHYT0e9TUAf7ddTAlkx82nLtLlOXcQK1/o7dn8K7jAuCb7+jT/Z903KRK6Cj0HvOWcvOQDvT2/ASUca0WbrwSV8b/O1WhkNOcDQamPoZlt5RzR0sdzTXgdoyzps6PHHsQNXGy7mBJOfZ4VmIBvaG1bOUd09PVs/sWRrQV35hzu43nu5XSh/+CD0iamPmV728WUB9ThXoEJmOj2ByaVnp7Nv4jdI3laGx6itMZz1vNvmnpe2YcnWEWKNbzKAbYLKY+4TmACfqKtbdUc4dPZ0330SnaJ5GkneR70mUgn4R2mdh84tnCRIKrABDcQSBptmOzxolcxOIJn9eA94dz+R7YLwlGLcwQHwb53ocaTRDPGe479ww8eVYdLKfZZ3KtyJ/xixhkCEzDO9cmSQkPGeLzg9RGE9OzFlz6NP0WK320XhiOD0wRbhL9wHgOSQAHPe677Hxj6c87JErk+RYp/2S4OhwenCHoBb7jdGLnPTR4vtoKjQ35KZ97N2vhTrHVuvmLK2YLpwEfdfszc5izP13p+yE85ghUSzd/8WQOHPBcL3tnNthVz6LO/pzuof4b6jIbc4xOiuqbMdmPKWHON4L25fZk5ygDPw5+Ph9qp6y1wJp4p5RFtOHKExy2eb67SBRXLRdowy+Nlvhvqef+TJKb9NslfbBeIIysFPOX57ooZZFs1hxp1+dDjRf5M89CeUF+4m9xLHrFdIA4p6gs2cc2P1EG8I3Tu8HiJy9kmtPTbee4tEMnzLqR4ztCEbzzf4Y+CkxyOGHKKxwvcEOIYfKjQr4yX3Oli0uYU7Znj+R5fdEuCucFA1me8vCr+EFr6o4VR5zJlLWfYLg6HMtsJYjb+2bZijuw093T3eVtIqRfwL4Vv/xf0sV0cDi32p9xzJWekbcUc2fDa+PtpSGPwxrws3fgXcbLrMuYwF3i+1SV0s62Yw49zPV7agpA24HZgnGTjr+R+WtouCkdAHvB8t+NoYFux8EjaF2og4zM8u5Yxgm9DSHtb3qOn1JUTOY/vbBeFJ+1oTQta0oxmNKM15awFSimkkEIWU2xbwVhRn888g8Pf6wKJxJMmTPOw2OHs+x/CcqlvfwlXx+oEWXv24zxu4xUmCoNibJEV/MAr3MxJ7Jik75w2nVnkUUpVHGpbMYcXXl22/4WS8l4SjSdFip/ZyXYhAFCPAZzL0/wieUrBS8r5hYc5jQG2M2OVYbX8Om6S5XSxrZgjnYM8KvvcUBw7HSm17FfOjTGILdOTSxijsEwpIwt4iUvZOU93M/zJs0w+ydPSiC3tPDprZQwLIeXRngtC6TKf4VbzX4eh3MTPoTb8dFnKs5zm49Y0qXiv/FxjWy1HTV7zeEVXhZDu2QJfMbXlLauOpLtzXZYwo2FKFZO4jX1iNdMRLS09dwaWsbNtxRyb+IPHC/o4hE6aTPMv4zJrqyn1OZr3pExU+LKMB9k7T8zAUM+ZgJ/dRGk86OAxQ7+K7oHTlWn+yxhhKdft+CdLrDT9mrKY+9gzccvJmVzumftwXcs4NHnR49WcGjjVMyWa/yS2tpLjDlwvuS5hRmZyScLPyhV4HhMuZ6htxRyHebyY1wOnerJE83+RJhby24MHQp7lD0cK+Veit8l2ZaVHrqe4OA92aekR729Z4K2/B3v6EqwtN1vo+LblAQnN7EkZL7CD8VIxxUmeeXaOXq1yv8crOTZgmnuwLktFL+ePxnNaj4sotN7Es0slT7KV8dIxwwse+S1hW9tq5S87e8R0Cdr938Gzq1dT1lrYCro/v1hv2vKygduF4dBzmTaeW4M/y4NJ0FhSx+N0XhFdA6XZw/MV15RVEUQU9Kc7b1pv0uqyiqsTOD4+xjOvp9lWKz/xCvpxXqAUm/NTlmpdaHze97ic6Ph7y6wEOtB41SOfK2hnW638ozXLMl7El4E2/9Tz9CRcUxYZPhrTmXesN+JgUsk9NDNaZtG/E68h4kO21co/Mqf/SgNOxzycpTIvNOzg6+Qc/vbXlHnsb7Tcosar51nBjrbVyi+29VgOCxZ594os1Xgp/Q3mrwUvWW+4YcqjVvZMREOBZxD4T2yrlV9kTostCNTV3E8QI36TrDJ69GMnz6hGuS3TEuRZYIDnbowjbKuVP+zlUfzHB0hvmyxLf0UMMZi782K50y+4rAn0juLFXR75m+UOB5mhgO8zCj9IB6wJk3wrbgl7G8tbQ56w3lCjlHsT0khaeC4XX25brfzg5IyCL2O7AOk961tlKznRWM468JX1Jhq1jE+ISxGvI+jLaWFbreRTn9kZBX9fgPQuzlJhzUWD2YF51punCZlDX2NlGh0FfOuRt+ttq5V8zsko9KIA2zB2psS3st5rLF/7KIQaz3VZxq7GyjU6hnvkbI3bEhQtDZibUehXaKfW1NOR+Bb5yFhU3yMSOvEnknWJcK39ikfObretVLK5MKPA52WEApHnSd9KOj0Un8IynJtlETKJUs5Zhko3Onp7uArbEPA0isOHJh5zrydpp3aybwVdaWykenkoDSr3pCrgyY04cLdHvswNG/OOSzMK+0fto5g9fZ1qVXKQoTxdYr0h2pNKRhsq5ajoyNqMXK2no221kkl9D+fXB2umVcBHvlXzRkN5OjtA7J4kSAUnm6o+EXGzR65usa1UMsk8hPG1dloX+FbLMYbcXZ+V580/RYoyjjRUf6KhNasy8rQmke5QLFOXGRkFrbtDryfFPlVyoaEu3KFSMYeSL6UcaK4aRcC1Hnm6zrZSyeP4jELW3f5bwKc+1bGSUUbys2tWz4P5I2ty2pVoc49j24UJd5NugQkZhazrmut838p4h5Hc9PFwZ5LPMo/25qpS6FznkaNwwtI7NrJ3RgF/pJlSR48x2xaZHGBXgTzNmWK9ycVNvsphD4JtPHZxznTxg8PkjYwCHqmZ0nM+lXCDkTPrBR65cZLicYP1KWxu9ciP7gqVI4NtMuL0jNVMaV/fKnilkdxcZ72pxVXMHbwKm06sz8jNx7aVSg6Z+6305o0bMt2n+n1nZOf/QZai+eaClLO72YoVIg9m5KYqp6c2Y0SLjD1732umdK1P5StlewN56RiDiL5xlrk5e6K+n4dh/49tpZLBRRkFe4xWOl09tm1ukb8byEkB71tvYnGXp81WrhDJdOG+2i0GhsHktGKdo7lP73GfajfNiKuqS0NrJkkW/eNddvGaX8r9E4/W2SOjUC/USmeg79h7HwM56eMxUeQkU4rY2mgNC4+JGXkZb1ul3Cf9zP5KTfffn/hUuWcN5MN//6GTmpKr4Ta9QoYMtK1UbtM646upF/7jEJ/qtsqIm8qzQmoc+SGnmq1mIdHEY5PZ/baVym3SJwBLtfyt1MmYR6gpJpw5d8wadNxJTVlCS9NVLRTuzcjJioQ4QrfExLTifE4rlRN9qtpsI1tQH7XepHJNctOvTn+PA95H2lYqdxmQUZg6G0XqMtWnopkI6DQoD33+BZUKdjJd3UIhM27gq7ZVyl3+nVaUk7RS+YNPNfvMSD4+s96cclHG5eRxmlMy8lHi3IPoUTfDBei5GqnUY6awilUx1EA+jrTelHJVzMVkCo8mHr4mc9/5qRUOTCvGVVr7qkb7VLC3DOSigJ+sN6RclamGXLOFS+Z8z5e2VcpN0g/u3q2RRh2f0B9VRkJ+H2O9GeWy5KLL0BEZuaiks22lco8mGX77dAKA+nW/XzOQC/f9DyYzjcVmCvOdZ0av/JNtpXKPo9OKcJxWKuJou5XsaCEXTlQlF7cEXZ+Ri09tq5R7vJhWhGdrpLG7T8V62Ugukh/uO2rJxT5Av4xcVNDBtlK5RfoAYK3WOXGx661KI84ahlhvPkkQvcPfdpmUkQudFazIie8668FpR37+xxrlNPpwmPC3l5hsIBeXGXhG8snFRbSXMv5ylG2Vcov0AcBwjTT+LfymVLCtgTx0ocz61zMJUkU/09UvMNtk5GKDcw4iT/20U1VzNI6HNvDxvP+KkVxcbb3pJEXuNF0BQ+D7jFwcblulTOI6BBhJq1r/fp6UchrH+oSauNtILk438pR8YDSNbaugTOZH5hDbKuUO96XZTh1v/V8Ivye6LkXV2M36dzNJcobZChgC/TPysChH3ZxY4NdaBTdRI4X+PnF3zewwf8h6o0mSfG60/oVD5hmU2J1vjOcQYCA9av37BY00zhVa2wVGZgDq5eTiVXwZnoOxA9/O+MuhtlVKJ54GIL2Y1LfsNuI04W/3UWEgDyNoZ+Ap+UPdOE6hZSHzqNlhGqnkIbVdKkzRSOEIYVeyOG16MSoesN5pTpq8Y7QOhkG9jLDhVVoO7SIkjj2AFgyr9e83NdI4TvjL0xQZyEMdt+0jdEbR3LYKilRkRAcs4A+2lapNHA3A3tSv9W91A9DIp6v1pJE8DHHHP0OnYQ5G280MYX9mvFYC4mgADqj1r8Uai3YHCM8NTDW0BDjKyFPyjdhNoWUl0wD0jdc8QBwNwP61/vUR6luAjhf+8pSVPDjCQWc7uF1+Z2rG3/4Zy1YXG/qkTZuoj5kaefhkq5YKQ1MwTSm1PmWWTOliujoG5k6PXMTocFP8bFHt7ZKpjGmU7IgHAJ+w0Ege9nShICJCxym8Xbzq7+30ta3WJuJnAGqP835mqXIK4vViUwOA3KumucIethVQ5muPXSdNeZduthWrJm4GoBsjav1bx5GSaAJuNW8YysWw4Ek4PMk907rGcyN7bz41ciA9K/EyAPW5N20J8CvlNPqxleCXt9hgJBd1jMQayE92ysFTgd4uwfswgYvtOzuzp0AvdqcXLWlE8ca/tGJ/eqZd9bVyuuIFOBMxAAD652hYy1ygPtto7Qy1yZf82fPvjbmHP3M/T7Lctoqm2Yp3fc7qbZGZGmm/LkirxNg+stOsz5UnWUxEcgyX1lT65qiKydzLIXb6NjaGAP34gYOl9kOpDwDqsbfgl8839zSiZntDz8lPtrGtgDKrPPYC1KSA7bmId5jNgeaVM28AGvO69MHO75RT30XY/TY1AEDLeYlDlt62FdBgvNRVXXiTkaZVM28Arqa/9LU/Kqe+r+DvKY+z2VHhegBRkns9APhW8roGPGh/WjBaurFBerRXSkPl9N8RpDXBWA5bSM1uONGV2Sara0jsoJC/A4I/TgXTPYCraSR97S+UKqe/i+DvJgcAsTrtlThisoFGiakK80+GTzyaNQBNOEvhavUBwFbC8EufGMujmwGIloZpAWNygUqFM6gm4lXXwKwBaKjw/UdjvVf0/S8xdAgYoI+xJ+UrrW0roIH8ENSwH4l47QSszVTlO4YI/v69xmBCl9w7r5ZrtLKtgAbyHzPDuUuWARD1AMYa1LqTwWflJ+pTw/ZxBkCZNSxSvKOAwYJfvlRKJxi5N0LNNXLxqPVUKiWvrGt2Ejm+BmAqqp6AegmsZyXjDOqde4dVco1cNAAbmGtbBW/iawDmKd8hOl75k0ZgcYcjXGJ6hCm+BmCB8h0iLyvqJwqCUGL0aflI/eBJWEDeALghABCmAVDfTxAEc+sN+cpWwZOwgM7JVgPE1wDMV76jn+Dvk43q7QxA1OxoWwEt5OcAXA8AgN+U7/DuAVQwzajeHYIn4fBl3+BJWMBNAiqi2gNoJtiCM8voqLwl2xl8Wn4ygEG2VdBgKettq+BFXA1AMasU7+gr6DqZHQCcmaNTVLnFRbYV0CClsa5lgLgaAPUZANE5cZPLLz25zuDT8pfTc/LIlewgwM0BoGMARIcozPUAuvCecwdqhLo8kYPbgWI5CxBXA6Aewce2ARjGD/Hw9J4X7ML9Oed34XfbCngRVwNQpHyHtwGo4Fcj+p7N5y4guFHO4a7Y1l5vFttWwIu4FuFq5Tu8m98i6UMY+jTkYR7JyTNquc0lvCWMAhlHZA+3uTkAdHoA3ouA6vsJVenK55wb+VMcXhzC12xtWwlpZHsAqofgAhFXH6TqPQDvc/hRj7uG8wodNe9dw68UUcJqNlBAI+rRkS50UvKalJusoZhi1rKaVjSlCa20v+TbM44jpb3u2kXWABjtASTFADSgreffo+0BHMSrisd/U0xlLN8yk9ks87yiDj0ZwCCGs1uifAuUMp7xzGQaM1iZ8Wtr+tKPfuzGbooGsBOfcRqv2M6eBKspz/ddIq2lnSOPUEy5myCdiyPMzVGUKrh7XsPTHCkwU97UYyR3MMe6I+6gMoObGSVtKBsxkhuZofSECkZH+J7DY6lUbnJvgVMaeQMwUDHl7QTpHBVZXk6mXLp6vs4x2o5CCtiTJ1hnvRnrSCEPaIdK35X7WSH9pEr+GNmbDo/pzgDIvtAeiinvKkhniGI6spyWJeDjJlnLffQK4XntuI7l1hu0iszjgsCzGY25iPmSz6uKtLcXDuOcAZCtPq0UUx4lSKd7JPkYRZlEHjZwM21CfGozrqfYesOWkVmcHtpotwFn8ZukCVCJOmGD96TykeAFZXkDoFp9jgrJkMgwgCKJHLwaypc/nY48Y715+8s6rg29CjflVimTW84hEZR5eLzsDIBsNVJdnThN8E2oG3oeOvFrVu3nMyrCUtyPudabuUjeimxdfgBfSTx/LUMjLPmgPOUMgGxFUt2g9CdBdQibBnybVfeXI49d05IXrDf1TNnA+ZHmui7/lJh5WaY8f2SOh5wBkK1MqlztmUr4u69vzdoIzjRUlucqLUJGL9OUV250OIBlWTUZH9tptLukSjLBG8FkDYD6/v2bPNMJ2xHjyCxfoBUMN1iaI2K0LvC+sU1LPSQW0+42+BZUuNkZALnqVK6c8r890/khVO1bZRn9zzV+HLhnTLYJPW10h1sbieW0Ywy/CTn+IVWaRocA8TwMpD4E8M6HfFR2GR7wHV3OZHemR1koHsxjH2YZfmYmt3K6hsnWZyUH8EWWax7RPqERJXL12p0GpCqkfITphnEkJ/v8+hujWBJtoQieu6+G96QwuZOrNQx2MNZwWJaA2625016RCHEGQJKwegDh5a4ud/n8uphRBg4ee7OAA1hu6dnwJH+x8txiDs7iYutk9reimR+mDaUE8TQAYfUAwtsFcKaPK+pSjmB25GUiZjrHGO2Cb+FtzrFWqZdyIIW+V/wndoFanQGQRP2Qsnc+wupMNecfPr9eyvfRF4kvY7nEwlNncyoVFnM9i1N9m9Q2XGBROy9i2NpiqBLQQNkERNsDuEjgbgTgGR4yUyi+PMgLhp+4gWM03LaEy/vc6/v7FTSxrGFt5Gp1rjk7VUB+I5Cqh5iHPVPJNlcsR0MWCfX8laa2C3UjraTPzYUjpjY8+dOQCb5aXm5bwVrcIlWyRo1WPHsAhFQI4eTuZB9/vxeyzkh5ZKfI6Fm493ncdoYBKOVs321jV8aqDxBD/1txNQCq31XvQGJhDAEKfL4ir/COuSLJyse8ZOhJ6/lTKOk0DGHT7gQe8fm1o+/irWli6BAsrgZAdf7WeyEsDAOwD9sLftnApYFS3olb+ZBZrGIu43mO0QLPxvJcHvLWJxH/DBjnrhXn8A5zWE8pa5jBIxwTYCvx//muBow2UiJyuDkA6RGm6qHO0z1TmRqCzo8LdbwrQKqHM8UjxSreZpdA2t5oYPQ/N9CXrA33UeKR6gqu1p5PudhH2ypB2HgbPCxVvnGZVYoAeQOwt2LKR3qmoh5gLJ2GrBJouEH7e90+i2eYlwJEGGzFysgNwDkByvNYXz9/CzUPUzXxPSN4UwB9w+UxZwBkK5mqZ5dDPVMJ3iE+XKjhvZop9mJm1tzPZAdtja+LuPn/FmDcfhVVWVIv40KtlK/11TguyHlzSpIz+DTkDcBxiikf5JlKVeB51+cF+ul2LDuxUCr/y+mtqXFHzw52eKK/uebPkk/QibPUmjU+KfbT1jlc3nIGQLaaqXYz9xekE8wpZx3hAOArrfTq8ql0CcxUiiFQEznHU3qyVrt67k+F5DPK2E8j/UciMVrh8mX8DEBcVwHaK14vWgtuF0iLHYVORZ/USu8ChbmNPtyiqfWjgfLszyuabtYa8Yj0mkx9ntAYBz/v89u+EZaICnJzOzE8MRAW8j0A1Rn2kYJ0VCMM1UY0u7xBK5ZdI35X+tpW+BxA8qNA0o22juylWZJXKD7n78pPqMMCYWqFMfnQyb0Xo5OA8SiYTMLqAQRzCyGq7l+zRiO1k+iqdH1drtbSOsWLgXIt5je+1LqvDpcp3nGFcjOo8tkG1ca4ryZvWtlWIJOkGADRqbRgBkC0KDVGK7WDlO84RPNA67uBci3mI83u6e4+m6m9acbByk/5wOe37aVTiY46NJe6zugQICkGIIoeQHs6CH75VCO1Ohoj0WZa02EwTquHkp1PNO87VOMeda9+31Am/C0OBqBlHPf4xdUAqE7eiXoA3QLoIFo8KtZyNtpaa0VigJbm5SGdg6xNlZbhA+ijcY96VMf1Pn4Z9PdVhEcryetcDwD1HoDoZPrWAXQQjRuna7gt1x3/6cY2jMJFyVRWaN65tVbO1evm58Jf+kdQHqqoDoOMEFcD0EhyvLSJVYK/bx1AB7EB0EFvbld3CBOFAfhF+04dR9cNlD8C8LPwl61i0P2W7Y26HgCg2gcoEvgR7BZgL6DICfg0rdSKtO7S9bkzRTvXYvSdnq/Sukt9I7fYM2NjDXMSNmprQIaIrwFQO2pTJWgq9QLMAojG7Hqe+PU89y7V1H0RJdr5FqFn+ABWatyzWsOp+yyfr2c0geJVCDIfFRnxNQBbKV4vqmS6e+oRhvjUqc6wQcsE6Hobrgp4Yj9MXdA6lj1H455in9gM9pufGwIooWqxRUd/9beAiHoAuktsnyvfkfJd2/ZHt+8gRq8jr5dzNH0tiQ2A/hHrsHAGQAlVAyAKE6E//9tK8HfdQ8YfK98xIYBHA/3mKkL/cPVXbFC+5+2QddTZvB0ubg5ACfsGQFQ2esdh4FXlvsNt2rrrTx+K0d9ctI4nFO/4XDOwa3wNQJ3ADt8iUiuuqM4BiMa8+gZAtLlId11hpaITkR/4n7buOtGV/CmnNMDd/1aKXZTSDjgmNgC2T9n3kHak5oYAQHg9gE7aC0AiA6DvaPoOham5Ys4KVBXCrkb1ArlY/dU3tlI6t/Kj5nPKNO+LnngcR8ogvgagrWKnTbxKvbOmBiIDoB9xroijJBe3qjjFZ1uLDMEdbtemIKCH/Zt5T/LKV/k/7aeIv/M6uzfDxBkAZdSKbCWLBb/oGgBRlzdIQ/iJw7OEtARYzVGak2BbaB3w/kyCdaKrOIE3JK57jD8EGL6IdQx7SKSKvFsyNwTYiOroXbRVdSfN54uWlII1rTHswnjfK8YxlLcCPSO4ll4EdVSxlmO4wXeDUiFncXagLUziDeR24idvwfUAlFE1AKLtJro9AFGPolfAfM1jNw5lnIelr+IbDmV3ZgZ8AkSx8y34YZYqrqcPD3muJyziWnoGDjgmHjaGvyyqhrwBMNoDiGG0ss2o2szJgr/3or3WLryoDADAu7xLB0YxhA50oh6LWM4PfMiyENIGaBDBqnNvxoaQyu+cz0Xszkh60IGWrGQZM/mYn0Oo+AU+h7/0tmKHReuArmkiI84GQLUHIJo5LmAPqdFnOlEaAIBlPO/ryjIIPUMLjb4F/U3V6VTwpaZzMX+6+AxT7BoAlY+ZmwPYSC/FY6RThKPHPbSeL9r7Hl5DiA7deQ8/4p9vP8cjS6RTiYIo3kcoxNkA1FMMvlHOT4Jf9AyAaBmubwQTbGETRYWLg1cdf8Qz7ZXCfSJmUPdvZIg4GwD16TvR9tHBWmv3MwULgXXYzWahSKFn8vzZVugjMS4ME/7ya6B9jMFRCfnqhgCbUbWbouW1BloNokJ4An53e0UiRXPl6MoyFLCn7YxlQRy1QN+ZSRg0VZjPKnUGYAuqobLFE0t63nUnCP6uF8PWHCMDBfAWE28DsBU9hb9F4SFJnp0VpmSDB7RVIt4GYKBiRZ7Pr4Jf9td6vsgL7h4BQ45FjbpLbTkOsJ0xX/zCrn1tVTOVnmyRWdXibQAaKU88ifoAA7XGr58KumP1OMpmsWShAUdElPK28Z3Nxs/spSwbAJWerL7jNS3MGoBVfKN4R1iDgAKtQcBi4etQDV9uksMjDEF1ku3MCWnr0z+ZqunGLSxUavEkq5pGzkip8IhbRDXSbQ9hSnpbbu4RpFYe4xnxjyILDZritxi41/bmPB+t77CqWVelEo7/YmtAXlQqDnV3klMFKRVpHZAdLtTsb7YLUkBfKiM0ACmNmH1m+MZHZ7uTl39QKF3d2Es5RAefMM6ZUkUnxfTvEqalM4UlDrW9hEa2i9KTxyJt/iktB5/RM9xH46URbItWQf6NrAwUyCZnGMAihQp3omLqBwpTelBL29uE6Z1puyA92IrSiA1Ail1tZ9KDd330fciybnMly/WHHNhsHRJtuZdlG7NdwTw+4WFu4Q4+8ui+PqyYdmPWCgp4odaU5yDhC5saw6NUT0be/FO8ZjuTGQyiykdfu9twt85SmmtYypfcz16xnV2JjLb0onPayHwAs9IKaIZyuq8KC3uklp7jhOldYLsI0xgY8fi/Wqp8dtzZwe/7/51l3c7w1OoLTqGHdUelsWSbjC+46sl28aSLam+imhOE6S2P1bGgOow10PxTpPgpVn2fw311tT1QezpDowrOs11k8eYfaQV2iuL9rYTj4EKtlYB6wonAFHfbLqwanG+o+adIcaHtzG6mse8Ye6HlqdoCj/muP9susrjTkfJaBaYaVAI+EFaIw7U0ukKYXkVszgX0YrVBA1Dks+/eLP/y1fNiy9oNzdBoQsx338aCMbWKbKlykZ0hrBAva+nTlMXCFOfFIOoc1Odbg80/RYpxER04UmOU76zH79aXav+ZodMZtossF7gordCGKd7fgvWCKlGqGSbEr3sdlVsvFe4y3PxTpPiX7UzTiSW+Gtofa/+cplGxm/iToVdasd2knMLLwkqhF3SqPjN9KtpFlsvrLAvNP0VlZIeOZN/JGF/9vre8AQh6Zuj0tGWNcobaG3rVY+QcIawWMzTXWw/1qWoVVk8HjjKw+cdb1lt0jVLgMb9e2zypHiQLn0sytDrStkq5wu1pBddD8f4GmzcaZcpITZ1e8G0KttyEDaPYUvNPkWJFgOCrwbg9i2YPWNKrJuk9lLUBwsrlGfukFd2flFMQV5CXNHXqwAqfCleoPFMRBruy0mLzT5FivpWYN9dm0Wp64DhGwWlNWZpWQaI95xn10xa1PlJOYVvh9tBy5f7EJo73rXRrNf0O6TPK6td/kyw33Nmuw71ZNCrVjgYVJmdn6BVfbwox5H9pjVY9ssoXwgryb22t/pOl4p1gsITOoMR646+WYoOmr1FazfASvYnesPksTasSxXjXec6pacWnPtMu3hK8yieIpD+N+NG36lVxp5H18fpWFv7EUs5fjWxw6cV3WXV5PhbHarpn7FB4x7ZKuUULNtQqPnWvbg19Von1d4j1zLL2nGK89hBDlm0Yb73JZ8qHkXtJOlFit+M465t/qrkqQzPbpxJyjtfTvq3qm0+vE1aT37ROBVQzlHVZKuFKzovse1iH81ljvbF7y6IIh0AdeEpCg3mxCcKZvgWohDa2Vco1TkorwmuUU+joM0o+O4BmR1KRtSp+H0lwjkF8bb2Z+8uYCBYG63EJqySevdA3OqBJdszQ7VXbKuUezdK+tOrbgfD5aswJdKT1dImT95U8y/YhlkcvnjVy3j+olHF/iK6t6nAsU6Seu8TKgqQ3t2Zod6RtlXKR9PneHZVT2NHHV8zpgXQ7U6oxVvFmKPsDduK5tDOS8ZYyngqhJ9CIP2Y4iBHJslCNbTDqsTBNuxUBhpx5zHFpxXivRhpvC6vMjIBuLc6UGAhUy89cxVaaT2nJObHv9ouM31jO0xz51mFPHmC59LPmxKbzD3BMhn7/sa1SbtI4beS3iibKaezhU23ODajfEcJTh97N4W/sSUPp1HtxHu+lrYXknpTyNhezo/SkaDuO5B7mKz3j+9hM/VXzSYaGsY0nHYcVUz/+w/m1/j2ap5TT+IIRgl8W0Yf1gfTbnbcVv3Eb+JbJzGQWs1iYEbS6DV3px7bsxG50Dlp4saKQr5jKLGYym6VpvzWmN73pTV92YzvlOvkOJ7HWdvZq0I9paXmYTV+MxvxNDkPSLKlOjLdRPt8O9ZWFdHpLTlF5SxkrmcNk5jCH362d6jMvxSxmNtP5jZXSAykvqeS62HnYuStDy7/bVimX+SmtMHVCJ30srECraBtYw+a8Zr1B5acUcpDt6plBk4zjWeV0s61ULnNxWnHqTAQO8VkLuC8EHQu4Oqfm6JMhk2Ljl7Ammc5Z4hdHIadom7aZZ5WWUyWxh6DykMIxDmOe9SaRT/JSDA78ejEhQ1PTZ0QTx0tpBarjgKuvzxf6s5D0bKkY+NSJvjwWu5F/NftlaDor9hPtsWdEWpHO0fL19rBPdTo+NF3/7Bukykk48lJMm7/XbFM8jibnOOndquM00ujic4Rnvvbx4Ezut948ki5TY+tZd3CGrhtCmGR2cHpasY7XSuUWn0p1T2i6NmGG9SaSZKmKgbNPES9laOu8AIdC5sl+nXg8rX18+lWG6NHvohCru5N0ecF2ZRTS22NHQxQnQvOS69MK9g2tVM72qViTQzuu0cEtCUYo8f3+P5Sh6+e2VUoOndIWAyu1zprV8T1Wc21o2k633kySKr/YrohCOnuc2jjUtlJJ4om0wtULyDXQ5+tcyqCQdM3N03u5IOHN1YRN5uTvL24BMEz6pY2wKtlOK507fKrXlJD8yX1mvaEkVU62XQ0FbO1xjsP5AAyZ9DlWvT5Acxb4VLA7QtH0Q+sNJamyq+1KKODJDE0XOhcgYZPu3Ue3D3CsTwWrZJ8QNH3LekNJqmxtuxJ60t9j/v9q20olkTfTCvkVzXTe86liC0LYupE9dIUTPYmX4w/x+15NK9tKJZFd0oq5SnP1fhtfTz5vBdbzWesNJakSRycpO3ts/77BtlJJJX10/YVmOv6bdYIG+37cekNJqnSxXQE9eD9Dy5Xu+x8VQzOsrd5aa4HvRN3MgO5CH7TeUJIqUcceUudgDy3/z7ZSSSZ9vDVF62wgdKXQp6IdGUjHu603lKRK3I7W1Gdaho7LQzxaFjlxPVYp5v+oqPXvAZq+fRdygc+vQeIGQZnpQskb4layf/IIRnIbxbbVSjbpe64Ltb8Lzwm/NCU0DqDhjda/lMmUqph9sNp49CIXa7iut0i8ClSOf6S58m7D9Zop/YkFgl8aBjodWBrgXoeYEqpsq1CLmzxcwv8zoKN5w+SiAVjE3Wl/OV8jaBhAEWcIq1QQAxC3jmpSWGdbgVoM8BgoTue/ttVSIxcNANyWFlqiLndrHrwYIzxeMjCAfq4HEA1xMgAFPOCxVnQF5bYVyw/OyBh76Yb6rM8XnuPN7wJod5710XIyJU6Hgc/y0O9j20rlD3UYn1b4y7WnAlt6moAgnmfOtN5UkilBjHK4dMwI/5GiIlCv0aHILhnhuR/XTqshN6f5CZgUKJrLKdabSjIlLAfuwXnBQ7tHbSuVbzya9gKqGBkgtZ7czWRWspwPOUNzc9Emjo28KeSnvGO7ym3Ea/ffmlieU0g0bTOcfM6NicPoQ6w3lWTKi7ZfLABNmOuh22W21dIjN1cBqinkurS/9OSftpUCYINtBRJKPFbYb/KISTgplBiTDkXqMDbNDleyl22lgN2sfyuTKTqBYcNmdw/nH5XsZlstXXK5BwBVnE1JWn6eiMEwwPUAosH+PoCmPOkxP/Qw42wrpktuGwCYwY1pf+nJLbaViklXNXnYL9c76ZPxt6Xu+K9N6jExrUNWxSGWdepuvbOcTLnc8ns9xDP06x8sa5X3DKQs7ZUso5NVjdpZbyrJFL2D3+G91cUeOsVlaVKTXB8CAPzEv9P+0p7HrAZlcHMA0WB3CPCgx2dllWWj5ACgAT9mWOaLLOpTx7Or6CSoBPXVGIRTPTU61aJGjhr0Z13aqylhsEV9SiJuCvkp+1l7n71Z7aFPcP/R1knCEABgGlel/aUhr3q4azCFGwREga1lwEa8TIuMvxa67n+cKPBwz/yatZmAhUa/jCuYbP3rbEIGWXqbD3tqE9c4hXlLZ5ZlvCRbO7RnG20YvYHTPMJTRy2mYyD2CfxedDjRU5dnLdUshw8HZUy+lVnaGmz2i1ztCWEnfjb4zHnsD3xsNJ82woL0YY2HJrNyyfV3PnFbxqtaSncLenxrtGEcvPGp9fm7kenHCu6mKQD3Gs1nS+PvsVHGNrMUKUoZYqFOOSSoz7iM1/U9jYzr8bnRhnF9jScP8CiBcGVyDYepXxrNZ7B4TTo85qlHjh79zQ+29nDW9JRxLd422jBeq/XsulxKcURPKuG6GnHvO2d4ZYpSSlRfQmAu9NTjXaubzBxZOcpjG85fDevwjFEDMCvj+T18Q6Dryhj61XrKn4zmstDwO9wrY4t5ihS/096wHg5lbsl4bVWcZFSD+402jcqNI/LanMTSEJ+xmFMynvC/ENPPLvONvsGtPEuvNHdP/ucTdfkk49WVMMKgBjcZbRopdvXUog2PerivUJfV/M3TxCwwmsdpBt9fY4/N5SlS/NGgDo4AtOe3jJdX6BHIMSquNGwAxMFMt+XFQCP1Yu6knWfKTQ3n8QeD9edZTw2c398cYhePjTFzjMWX/6PhxnGbrzY78rpWT2AqF3psgd1EP8N5/MJY3fE239/S0JgGjhDwCs8x3lDs1hMjbAhe8nJWjbpyJVOk01vK4+yTZbZ7X8N5fNPIm4PjPXtMdvaTOAJxh8eLfN3IAaiDDDcO2Zg5g7mWdz0WSjfJWsZzE8Okymi04Tw+YeC9wZ6eW6pL2NPI041jfmuFSa6kPwel/e1I7uTSyJ9cZDinPSSv+5EfgQL6sx2d6EAnWrGaEtZRyEwm86tCAO6OhvNoYhmwH294bBtLcTZjDefWEQrNPXflXx/5c7cz/HVMec7SR4vplY6rI89RO2Z5PvnvxsvWERrbZMQPMlGZuho3ANsZL1mz5wCiX4Jryneez33K7fzLbbxHdZdE+sxmxg3A/sbL9UnDOTw20tzU4y3Pp35WY+uzI0c5zmNetyriL0p5pI0hU0YbL9U3DOdw7wjzUtcz3m+KqbQ2Xq6OCDjf4+VW+WyfCc6KCJuCl5g+7WD6yHOKHSLLSQH/9XziAunJVUfsudPjBVdEeEJgjuHmYT44pdmNwCm6RpSPAv7j+bxlBneOOiKnDi95vOQyjozoeRMMN4/3jZdnmdH8VUXm1eEez+etZmfDJeqImAZ84PGiSzk8kqd9EmFj8JKVhj08dzKcv6h2Adzm+bT1Ro+OOQzRhK88Xna5x0HX4DxvuIGYXgjcz3DupkSSC++9DGUcZrQsLZKUuAByrOdgfsz4az2eiWBRcJnx3A0LnoQCQw3nbmHoKRZwh+fUaSWn87bh3DmM0YHpHja/iitDfs5fjfcAnjFajlF4HPKTsN261Rd4bSrjaKPl6DBON8GGz5tCfcrZxg3AGkMnHQEaZYRii1r+Far+jQVeG8usxh90GEJkAu4PcUh0uHEDkOJEYyV4sPG8XRyi9i35wvMZpZGtCTlihsgEPBXa+chhFgyAuWCVzxnPW3gbgTsI3H2VcoSx8nNYR2QCXqdxKOn3smAAytjaSNm1ND4ASLFHSLr3E7z3tRxopOwcsaEr0zyrwrhQHIeZ9phXLf81UnKXW8hZr1A0HyVwhrKS3Y2UnCNWtBd0BufQP4TUV0bWGMRiog9Qj18t5KxZCJqfJziitSjCcwaOWNNSENxqZQhnz0yG6twi0XuuPddCrtYH1rquYMtvijkh9S4cOUkTwYp2KacHTNn0Snm1VDI80vJqyiILuQoaFKQF7wtS/onOkZaXI/Y0EJwFT3FjIF8wD1sxAClmRrof4FYrefoxkM7b8osg3Q983J478oYCwZGQFM8F8AX/N0sGIMWdkZXUIOOOTjY1VH1OEYZKfSjhTnEdClwgCJ0xVntN4AxrBqAyosMsTTxdrJqQZzU1bixw9ZGikr9EUkaOnOVw1npWlQWax2xMn5erKcUMjKCEHrWWn7u09O3LJEF669yOf0cmuwgmuEo5XyO1ARYNQIr5oU9uXWwxNzoOz05kjSC139klgtrjSABdBa6hUzylvEOwm1UDkGKiIKinHoeHEmdYV85V1LY5jwjT+opOEdciRw7TSHBMNMVExfXi1pYNQIpf6BJSqRxCidWcnKCk7d7ME6b0oHPz7cjGXwRfu9VKzrfrWzcAKWaHsjPwOMvNP6Xgtq0J91IlSKUkUj/QjgRxAMsFlegNhVUB280mRYpFgY/RXOEZLdes7Cep6+7MFKbxu2GfSY6cpjvfCCrSUulT44XWG06KFGUBztK35BXr+qdISe1ubMRtPvMUH4ZyxMuRR9TnTmFn8klaSqRgOjiIWJ7XOkxzgM9Y2qwMyarrQYJjvilSlHNNnnm/dITE0RQJKtVCTs66UdjGeUCRzFGMcL+1BacfugagB6/53Ds/NF8Cjjykp6cr8Wr5nO197y0KuRkEk0qekgx11Yv7KLWub03ZVahrA67xdU/yFm1tVyFHblOXa4VRcMq5y+c4yZrQG0JQKeFpX9cXjTiK12Mw6Zcuuwn03c/Tx/MmWc9FLrS3IwyG+swuL2Y0dT3vMu84S05+40FOYvsaB53asSsX8TqrrevmLV6TgP153feeH0Jx6+JwANCUB4VTgimmcpzHt8bOyTkVKWY+K4Wn5eIj6e5ZuvGo787Ecm6kvu0q40gaw307nFPSjEAcNgIlRWpuBGrNLaz3vXqu4oSnwyFJE+7w/fJ8ywGbr21uvdkkR07dWKaNuSrL2kol99HUdjVxJJldmeJbBSdxFo2AEdabTXLkBqAFV2V1RzbNLfk5oqc+V2QZNxfyLgutN5vkyGreybqoWsaNAfw3ORxKdOFp683CyRaZyGDbVcKRb4zynRR0YkrWcJlgIdbhiJQGXBKjHf/5Kc+H5vXA4dCgGdezwXozyE+ZUWPVxeGwRncejuEG2mTLOq53k36O+DCIN3z2CjoJUyp5mm62X7jDkc4OvOyMQOQy3sXydcSXXXjXehNJrsxyHv0d8Wcf5lhvKsmTNVzpfPo6coM2woCUTvTkKefP35FLDLPeZJIkF9l+ncnE+UuJkvl0t61CQpjIzrZVSCbOV2qULLOtQGKYb1uBpOIMQJS4MWtYbGdbgaTiDEB09KSrbRUSQx92tK1CMnEGIDqOt61AojjRtgLJxE0CRkVdptPbthIJYi69SdlWInm4HkBUnOSaf6j0cuf+osD1AKKhHlPoZ1uJhPEx+9tWIXm4HkA0XOaaf+iMckeAwsf1AKKgJ1NoYluJBDKBoVTaViJZOE9q4dOQd+hpW4lE0pkixttWIlm4HkD4PMy5tlVILOWM5BvbSiQJNwcQNte45h8h9XnBeQIKE9cDCJfLuNO2ColnOnu5UxZh4XoA4VGH21zzN8C2fObmWMLC9QDCoi1PcJhtJfKG5RzLl7aVSAKuBxAOB/CTa/4Gac/nPOyiADviQH/esO4vJz9lDqe5hexguCFAMHbjQo6nnm018piZPMRzblJQF2cAdOnJcZzEINtqOIByPuFN3maRbUVyD2cA1NmOwziWIbbVcKSR4gfe4XO+o8S2KrmDMwDyNGM4h3CIW4KKOaV8z5d8w3gKbasSf5wByE579mAEezLIjfVzjJmM5xu+ZJptReKLMwBitmY4e7In27pSynGW8AVf8CFzbSsSP1zVzqQuh3IiezqXnoljGq9wNyttqxEnnAFI52RudcdNEswaruC/tpWID24nYDpj3ZpygilnDO/bViJOuB5AJgX0Zxd2ZyR9baviCIXVjOdbfmEuM1ljW5l44QyAHx0ZwXD2YGdXTjlIJTP4kR/5iolU2VYmrriKLUNn9mIogxlEC9uq5CE/8G+2Ym9GSvpZXMx3fMs4fmCtbdXjjzMAKtRhG/rTl770oROdaJVxRRm/Moe5zGUZ7TjIObIOTBW9+A2ARgxnKIPoRyc61LiijEIKmcVMZjCNGayyrXIu4QxAEBrSngbUozlQTDHFGd+cY3ieBrbVzGm+Y1fPvxdsNL/l7jvviDOXWj80m9tyl+0XmGzcMmDU3M/vtlXIaabbViDZOAMQNRW8YluFnMbt448UZwCix4WyCILrAUSKMwDRM9u2AjlModuXGS3OAETPYq273JEVgHm2FUg6zgBEzzKtfWhTbKsdCxbYViDpOAMQPRWs0LjLTX6BMwCR4wyACZYo3/G7GwIAzgBEjjMAJlD3TecmDqtZaFuBpOMMgAmKle9Y4t4MgFsDiBpXzUygbgBcxa/GDYQixhkAE+gYAHdMC3An+6LGGQATqHuhcR7tq3EGIGKcATCB+oFV9T5DEql0DryixhkAE2xQvmOtGwIAG0jZViHpOANggvXKdzgnFwBlthVIPs4AmECnB5C8uPfqX/NS2yonH2cATOAMAMCXync4AxA5zgCYQGcIkDwD8IzyHW4IEDnOAJhAvQewLnEGYAmfKd+jbjgdijgDYAI3BIBZLFW+xxmAyHEGwASqBqCCEurZVjpk5rNOuUGvs6108nEGwASqFb8YEtcD+B2U/SK4HkDkOANgAp0vX9zfzCzF6xeifsRJfejkUCTu1SwZqFbktRDzcJa/sTtFSncsw/UAYogzACZIngH4khW8oHRHEbBc8SnOAESOMwAm0JkDiLcBWI6q29IinAGIIc4AmKBScUtLEXE3AG1RnaMvwhmAGOIMgBnUBgFF6OycN0l9YLVynlQNgFsGjBxnAMygZgBWEfceQAoTBqDIdjaTjzMAZlDrzK4m7gagADUDsIFS1FcB1EyMQwNnAMygPgSI90EY1R5AtYcj1X0ARbazmXycATCDugGI/1FYFQNQnRvVHkCR7SwmH2cAzKA2BCgiaQagZOMdav0aNwSIHGcAzJDEHkC5Qq6qDUBK0dtxke0sJh9nAMyQxB6Ayhe6ZOP/q60DuB5A5DgDYAY1J5+r2dJk4kyR9JWbzJmKASjJCSOY4zgDYIYipatXEfdVgGrkvfbr9ACKbGcvH3AGwAwqndlKinE9ADcAMIIzAGZQqcyrSRH3HkD1RmX5HsCm6UIVA+DCoxnAGQAzFClfG+8eQHXcInmzptMDcJGBDeAMgBmKFK6tbiTxngBzPYCE4AyAGVSGANX75eJtAFRzpTMJ6HoABnAGwAxFCtdWf/mSZQA2zWiobAZ2ocEN4AyAGVwPoGbe5HA9AAM4A2CGIoVrq7vJ8Z4ErEZ9EnClwjFnNwdgAGcAzFCkcG21AcgFl9jqPYAKhZJwBsAAzgCYoUyhQVdX/Fzwh1ckfeWWAY38IMDNARjAGQBTyH8tq3sAuWAA5JvolgGNvAFwPQADOANgiiLpK6ubSLwNQEoxT1t6APLN2k0CGsAZAFOo9gAqYr4ZuDpPslN66kOACoVtRg5tnAEwRZHkdZWbr4x3H6Ba12LJK9UNwMqYO0ZPCM4AmKJI8rrCzV/V+BsA+VkA9SGAGwAYwRkAU8gOAbZ8IXMhLEaR5HUVHvnzxxkAIzgDYIoiyeu2NJAk9QC2dOdlDYBbBDSCMwCmkO0BLN78X/ltAFRdiDu0cAbAFMk0AEWS16kbADcEMIIzAKYokrxuyeb/ygUDoN4DcJOAscIZAFPI9gCWbv4v+UnAV6ytmRcp3yF7HMh5BDSCMwCmkP2eqw8BqriKDy3lSr0HUCX5bS+ylKM8wxkAU1RKXrdlCCB7fGgsc3nLUq7UDYDsLIDrARjBGQBTVEhep2MA4ANLuSqSvK6mAZCbBZBN2REIZwBMIdcDqKjhNU/WAPwGrOBXK7mS7QHUrGdyPYBc2AaVAJwBMIVcD2BZjSkyWQNQPW04UVuzICvuRZLXqRuAggBaOaRxBsAUjaWuWlLjv2UNwDIAJmnq9QnPady1qUsv2wOo2ZzdFp8YUc+2AnlDW6mrFtf4b1mvgMsz7lThb/QOkKsiyetqfmjk5gBczTSC6wGYYlupq3QMQPUQQPZgbm3GM54fAuSqRLKfoj4E2CqAVg5pnAEwxRCpq5bW+G+5fQDrN06X6RmAh4GZgbYRyQ0C1A1AnwA6OaRxBsAMzThQ6roFNf5brgewadVApxGX8jpQxY8BcibXoa9Zz+QGK0MD6OSQxhkAM5xFU6nrptX4b7nO9bKN/6/TA/h043abIIMAOQNQcxJwttQdB9A9gFYOSZwBMEFnrpO8Ut0AbOoB6BiAzzf+//cB8ibXoa9Zz4qk7mnIfW4pMHqcAYieFrxNa6krV9QKnik3BNjUA9AZAny18f/NDgFk+wBH8BD1A2jmkMAZgKjpyzgGS147rta/oh4CVGzePDQvgA9+uXi/tevZJMm0z2UCe2hr5pDAGYAo6cCt/Mx20tfXPtKjNgQooVxRu2mbn5AKMAuwSOqq2vXsU+nUt2cs/2OEtnaOLDgDEA1NOYb/sYAraSh9TxXv1Pq32hBAvQ8wocZ/qxqALYd7dAzABwqB0go4li/4iQtop6ijQwJnAMKmNafxOst5hWNpoHTnl7U2AssGCN/SBVedBahpAPSnAeUMQO3pvGLeUHzKjjzAYt7jNFpoa+pwREonzuMjykhpymFp6XWQumvL/MLPis+rObruqnjvk5vv7CJ1/SlpedtFu5Q28BonSC6qOhxG6MnlfEWldqVOkWJsxqKXXNPaslr+tdLzKmhW62mLNA1AXUokrj81o8xeD1Ra63iRoyUPWDkckTGQvzMhUFWulvVsn5H21lJ3Ntp8/QdKT5ya9rS3NA0ATJa4/gyP3K0OXGpreJbDFGZZHBm4OQA96jKCO5jDJG5gpxDSu5ApGX/rLHHfmhpThbI+h6qZkPZv/VmAaRLXZHbZf+Ucgkb/a84pvMUSnuBAt2NAD3foUpVG7McRHE770FJMcQ2Pe/y9h8S9NVfhZb0OVpO++Ud/IVDGAHhthHqZ7tyu/dQttGI0oynkNV7ic8VScDikacMfeIW1IXT4a8paj/FxNTdI3D22xvWvKT13r7SntdceApwocb3I6chZlIZamkt5gBGuX+sImxF8RkXITT9Fig/pK3zmdxL3P1bj+v8pPLfSYzntV00DsK3E9fOE+/oH8mPopfo7t3vMqTgcmnQL/bufopS32dvnmT2lVhWurHHHiwpPn+nxxFc0DUABiyXuGCbMaR1O4tvQy7eSm2xXG0dy6M2NfMQcVlIUuGr+ygucSMssT3xeKq3Da9zxnIIOL3g88SqF+5+odecLEneMyXK2bwBX8R7LQjQBVaFMzyYcNwkox2z+VuNfjWlBC1rQauP/1/zv6rXp5ptLdi1lFLGKpSxnIb8wVWrH3pGcKHFVOV/W+JfKnLrXnL/+NOBnEtruw9/4h8/vv/ALtwKNaUc7SQ+KYurRnNkBPCU7HBY5QnJq7LNad72u8HXc0+OprajS7AH0lbzrDvfBcTj8acV/pRviZbXu/Fi6+abvAtzETE0DANMl75vMAbYL2OGIKz24lRXSjXBN2ur6OOk7fxY8X27eIUXtSUCAvyr0PiZylsAAORx5Sg8uZoziQuNtaWnMkr7zMYEWf5ZOIX0SsZvien4xjzPcufxy5DtNOJA7pHbTp0shHdPSWid97/kCbfaSTiEzGvEDGnmYwTV0s/0KHA7zNGcUf2eM1Ek6bzkhLcWWCvcOFmole6Lxs4x7O7NGKx+VjOUiuth+IQ5H9DRkZ87gfiYG3lX4dEbaA6TvLfFxVDJNMo3fPO4dHSA/lXzOBS4akCN5tGIIJ3ItzzGZ8oDNfpO86dGEj5K+e7yPts9IplHl6ZJD9m6xzOExzmU3mtt+bfmCW5eNgpbsxQ70oR+9I/Bk9xonUZbxV/ldb34Hf8fxB6k0ChjCFxl/PZNmHBkob73oxZlAiuWsYAVlQCMaU85cxvC+dghUh8MIvbiOcaF96TNlPRcJ5s7lj9Sc5qN/P+lU7va8vwH3R5b3FJW85rmFyeGwTl1O4lOFvXTqUsU7DBA8faDCk/v75mOBZCq/Cz3xHM1vEZZCijE+B4scDgvU4QTp6TM9WcfzDPLRQP4kYGGW0/JPSaf0Z2Eajbg04vJ4kSa2X7rDsYkdAvgC9pdSJvEIh2dxfzlK4fv/TJa8nC6d0kq29k1pZ/7K6/waiR+FFPvafunJwO3FCofdODytLFt6fmmzxQhcBcB6VrGKZUxhpkS8n86MV1hAO4GXfX/vwELpqeGp7L4xvrAfdenEVnSlK202n5xs6PEFr6AYWEs5lawB1lFG1eb0i6mg8WYXqPN52Tn/cjigLROVehTZ/BDAewrpTczSC3A4HBHST+EEX4oUL0mkebxSiis43vUjHQ7zNOJq1iuOnHeWSLce8xVT/ZrhtgvD4cgntuJ6lipPnH0omfqlGpNyEzjHHfJ1OKKmMSfzkVYYskp2l3xGQyUPwVtkPa9wgjMDDkcUNORwntU8c5cixR0KzzpW+ymbzIAL3+lwhEQHTuOFgP6Ip9aIIijDy4GeVm0GTo3gJITDkTfUYSjX813AuMMpUqxiR8Vnt2JG4KemqOAb/uq7h9HhcGTQg9E8E5qX/GJ209Bh2xC99C/gYQ53h3wdDn+6cAqPMie0hlfd/PfR1GaHUAN1pCjna/7BXi6gt8NRm/Ycxi38EMFpwmmBouR144fQNUqxno+5iuEupLcj32nDkdzD5IiOEVfxaOBTc024O4Q5CG8p5FUuoJ/tl+BwmKY1R3MXEyJrWilSfMYuIWm7K59HqGeKBTzJqc4xqCMfKOBo3lX0oq8qFbzLQSHrvQ9vRWquUqSYxm30tv2CHI7oaMa7ETf9H7gqsm9pN/7MuIjO92/JwRW2X1I+4c5xmeUljo8k3bX8xHd8xliKIs9DG/ZhCDsxiA6RpJ9iON9EngsH4AyAWXbhu1DTW85EJjKRScyiykJ+ujCIndiJnegVarr3cbGF3OQl/w9IGMGEuUrA+AAAAABJRU5ErkJggg==;" vertex="1" parent="1">
          <mxGeometry x="604" y="631.5" width="72" height="72" as="geometry" />
        </mxCell>
        <mxCell id="nSW95RDYFiEPkef_lx06-43" value="argocd" style="aspect=fixed;sketch=0;html=1;dashed=0;whitespace=wrap;verticalLabelPosition=bottom;verticalAlign=top;fillColor=#2875E2;strokeColor=#ffffff;points=[[0.005,0.63,0],[0.1,0.2,0],[0.9,0.2,0],[0.5,0,0],[0.995,0.63,0],[0.72,0.99,0],[0.5,1,0],[0.28,0.99,0]];shape=mxgraph.kubernetes.icon2;prIcon=ns" vertex="1" parent="1">
          <mxGeometry x="615" y="250" width="50" height="48" as="geometry" />
        </mxCell>
        <mxCell id="nSW95RDYFiEPkef_lx06-45" value="Connects&lt;div&gt;via&lt;/div&gt;&lt;div&gt;Brokers&lt;/div&gt;" style="edgeStyle=orthogonalEdgeStyle;rounded=0;orthogonalLoop=1;jettySize=auto;html=1;entryX=0.139;entryY=1.004;entryDx=0;entryDy=0;entryPerimeter=0;" edge="1" parent="1" source="nSW95RDYFiEPkef_lx06-21" target="nSW95RDYFiEPkef_lx06-31">
          <mxGeometry relative="1" as="geometry">
            <Array as="points">
              <mxPoint x="210" y="1090" />
              <mxPoint x="210" y="1090" />
            </Array>
          </mxGeometry>
        </mxCell>
        <mxCell id="nSW95RDYFiEPkef_lx06-46" value="Kafka Broker&lt;div&gt;Configuration&lt;/div&gt;" style="aspect=fixed;sketch=0;html=1;dashed=0;whitespace=wrap;verticalLabelPosition=bottom;verticalAlign=top;fillColor=#2875E2;strokeColor=#ffffff;points=[[0.005,0.63,0],[0.1,0.2,0],[0.9,0.2,0],[0.5,0,0],[0.995,0.63,0],[0.72,0.99,0],[0.5,1,0],[0.28,0.99,0]];shape=mxgraph.kubernetes.icon2;prIcon=cm" vertex="1" parent="1">
          <mxGeometry x="315" y="1272" width="50" height="48" as="geometry" />
        </mxCell>
        <mxCell id="nSW95RDYFiEPkef_lx06-47" style="edgeStyle=orthogonalEdgeStyle;rounded=0;orthogonalLoop=1;jettySize=auto;html=1;entryX=0.5;entryY=0;entryDx=0;entryDy=0;entryPerimeter=0;dashed=1;" edge="1" parent="1" source="nSW95RDYFiEPkef_lx06-21" target="nSW95RDYFiEPkef_lx06-46">
          <mxGeometry relative="1" as="geometry" />
        </mxCell>
        <mxCell id="nSW95RDYFiEPkef_lx06-50" value="&lt;div&gt;Raw Data&lt;/div&gt;Generator" style="aspect=fixed;sketch=0;html=1;dashed=0;whitespace=wrap;verticalLabelPosition=bottom;verticalAlign=top;fillColor=#2875E2;strokeColor=#ffffff;points=[[0.005,0.63,0],[0.1,0.2,0],[0.9,0.2,0],[0.5,0,0],[0.995,0.63,0],[0.72,0.99,0],[0.5,1,0],[0.28,0.99,0]];shape=mxgraph.kubernetes.icon2;prIcon=deploy" vertex="1" parent="1">
          <mxGeometry x="310" y="450" width="50" height="48" as="geometry" />
        </mxCell>
        <mxCell id="nSW95RDYFiEPkef_lx06-54" value="&lt;div&gt;Raw Data&lt;/div&gt;Producers" style="aspect=fixed;sketch=0;html=1;dashed=0;whitespace=wrap;verticalLabelPosition=bottom;verticalAlign=top;fillColor=#2875E2;strokeColor=#ffffff;points=[[0.005,0.63,0],[0.1,0.2,0],[0.9,0.2,0],[0.5,0,0],[0.995,0.63,0],[0.72,0.99,0],[0.5,1,0],[0.28,0.99,0]];shape=mxgraph.kubernetes.icon2;prIcon=rs" vertex="1" parent="1">
          <mxGeometry x="315" y="540" width="50" height="48" as="geometry" />
        </mxCell>
        <mxCell id="nSW95RDYFiEPkef_lx06-56" value="Stats&lt;div&gt;Consumer&lt;/div&gt;" style="aspect=fixed;sketch=0;html=1;dashed=0;whitespace=wrap;verticalLabelPosition=bottom;verticalAlign=top;fillColor=#2875E2;strokeColor=#ffffff;points=[[0.005,0.63,0],[0.1,0.2,0],[0.9,0.2,0],[0.5,0,0],[0.995,0.63,0],[0.72,0.99,0],[0.5,1,0],[0.28,0.99,0]];shape=mxgraph.kubernetes.icon2;prIcon=pod" vertex="1" parent="1">
          <mxGeometry x="210" y="540" width="50" height="48" as="geometry" />
        </mxCell>
        <mxCell id="nSW95RDYFiEPkef_lx06-57" value="Summary&lt;div&gt;Stats&amp;nbsp;&lt;span style=&quot;background-color: initial;&quot;&gt;Cache&lt;/span&gt;&lt;/div&gt;" style="aspect=fixed;sketch=0;html=1;dashed=0;whitespace=wrap;verticalLabelPosition=bottom;verticalAlign=top;fillColor=#2875E2;strokeColor=#ffffff;points=[[0.005,0.63,0],[0.1,0.2,0],[0.9,0.2,0],[0.5,0,0],[0.995,0.63,0],[0.72,0.99,0],[0.5,1,0],[0.28,0.99,0]];shape=mxgraph.kubernetes.icon2;prIcon=pod" vertex="1" parent="1">
          <mxGeometry x="150" y="350" width="50" height="48" as="geometry" />
        </mxCell>
        <mxCell id="nSW95RDYFiEPkef_lx06-67" style="edgeStyle=orthogonalEdgeStyle;rounded=0;orthogonalLoop=1;jettySize=auto;html=1;entryX=0.75;entryY=0;entryDx=0;entryDy=0;" edge="1" parent="1" source="nSW95RDYFiEPkef_lx06-61" target="nSW95RDYFiEPkef_lx06-31">
          <mxGeometry relative="1" as="geometry">
            <Array as="points">
              <mxPoint x="475" y="700" />
              <mxPoint x="430" y="700" />
            </Array>
          </mxGeometry>
        </mxCell>
        <mxCell id="nSW95RDYFiEPkef_lx06-62" value="Back End" style="aspect=fixed;sketch=0;html=1;dashed=0;whitespace=wrap;verticalLabelPosition=bottom;verticalAlign=top;fillColor=#2875E2;strokeColor=#ffffff;points=[[0.005,0.63,0],[0.1,0.2,0],[0.9,0.2,0],[0.5,0,0],[0.995,0.63,0],[0.72,0.99,0],[0.5,1,0],[0.28,0.99,0]];shape=mxgraph.kubernetes.icon2;prIcon=deploy" vertex="1" parent="1">
          <mxGeometry x="490" y="450" width="50" height="48" as="geometry" />
        </mxCell>
        <mxCell id="nSW95RDYFiEPkef_lx06-64" value="Stats&lt;div&gt;Summary&lt;/div&gt;&lt;div&gt;Producer&lt;/div&gt;" style="aspect=fixed;sketch=0;html=1;dashed=0;whitespace=wrap;verticalLabelPosition=bottom;verticalAlign=top;fillColor=#2875E2;strokeColor=#ffffff;points=[[0.005,0.63,0],[0.1,0.2,0],[0.9,0.2,0],[0.5,0,0],[0.995,0.63,0],[0.72,0.99,0],[0.5,1,0],[0.28,0.99,0]];shape=mxgraph.kubernetes.icon2;prIcon=pod" vertex="1" parent="1">
          <mxGeometry x="410" y="540" width="50" height="48" as="geometry" />
        </mxCell>
        <mxCell id="nSW95RDYFiEPkef_lx06-65" value="Raw Stats&lt;div&gt;Consumer&lt;/div&gt;" style="aspect=fixed;sketch=0;html=1;dashed=0;whitespace=wrap;verticalLabelPosition=bottom;verticalAlign=top;fillColor=#2875E2;strokeColor=#ffffff;points=[[0.005,0.63,0],[0.1,0.2,0],[0.9,0.2,0],[0.5,0,0],[0.995,0.63,0],[0.72,0.99,0],[0.5,1,0],[0.28,0.99,0]];shape=mxgraph.kubernetes.icon2;prIcon=pod" vertex="1" parent="1">
          <mxGeometry x="490" y="540" width="50" height="48" as="geometry" />
        </mxCell>
        <mxCell id="nSW95RDYFiEPkef_lx06-66" value="Raw Stats&lt;div&gt;Cache&lt;/div&gt;" style="aspect=fixed;sketch=0;html=1;dashed=0;whitespace=wrap;verticalLabelPosition=bottom;verticalAlign=top;fillColor=#2875E2;strokeColor=#ffffff;points=[[0.005,0.63,0],[0.1,0.2,0],[0.9,0.2,0],[0.5,0,0],[0.995,0.63,0],[0.72,0.99,0],[0.5,1,0],[0.28,0.99,0]];shape=mxgraph.kubernetes.icon2;prIcon=pod" vertex="1" parent="1">
          <mxGeometry x="410" y="350" width="50" height="48" as="geometry" />
        </mxCell>
        <mxCell id="nSW95RDYFiEPkef_lx06-68" value="Backend&lt;div&gt;Processing&lt;/div&gt;" style="aspect=fixed;sketch=0;html=1;dashed=0;whitespace=wrap;verticalLabelPosition=bottom;verticalAlign=top;fillColor=#2875E2;strokeColor=#ffffff;points=[[0.005,0.63,0],[0.1,0.2,0],[0.9,0.2,0],[0.5,0,0],[0.995,0.63,0],[0.72,0.99,0],[0.5,1,0],[0.28,0.99,0]];shape=mxgraph.kubernetes.icon2;prIcon=pod" vertex="1" parent="1">
          <mxGeometry x="410" y="450" width="50" height="48" as="geometry" />
        </mxCell>
        <mxCell id="nSW95RDYFiEPkef_lx06-73" value="User Workstation" style="text;html=1;align=center;verticalAlign=middle;whiteSpace=wrap;rounded=0;fillColor=#f5f5f5;fontColor=#333333;strokeColor=#666666;" vertex="1" parent="1">
          <mxGeometry x="-110" y="250" width="140" height="30" as="geometry" />
        </mxCell>
        <mxCell id="nSW95RDYFiEPkef_lx06-74" value="Producers and Consumers" style="text;html=1;align=center;verticalAlign=middle;whiteSpace=wrap;rounded=0;strokeColor=default;fillColor=default;" vertex="1" parent="1">
          <mxGeometry x="190" y="670" width="320" height="20" as="geometry" />
        </mxCell>
        <mxCell id="nSW95RDYFiEPkef_lx06-75" value="kubectl port-forward" style="text;html=1;align=center;verticalAlign=middle;whiteSpace=wrap;rounded=0;fillColor=default;strokeColor=default;rotation=-90;fontStyle=3" vertex="1" parent="1">
          <mxGeometry x="-502.5" y="805" width="1157.5" height="30" as="geometry" />
        </mxCell>
      </root>
    </mxGraphModel>
  </diagram>
</mxfile>
